SplineFontDB: 3.0
FontName: Oxygen-Bold
FullName: Oxygen-Bold
FamilyName: Oxygen
Weight: Bold
Copyright: Copyright (c) 2011 by vernon adams. All rights reserved.
Version: 1.000
ItalicAngle: 0
UnderlinePosition: -119
UnderlineWidth: 119
Ascent: 1638
Descent: 410
sfntRevision: 0x00010000
LayerCount: 2
Layer: 0 0 "Back"  1
Layer: 1 0 "Fore"  0
NeedsXUIDChange: 1
XUID: [1021 956 130891471 5867879]
FSType: 0
OS2Version: 3
OS2_WeightWidthSlopeOnly: 0
OS2_UseTypoMetrics: 1
CreationTime: 1324290120
ModificationTime: 1325283973
PfmFamily: 17
TTFWeight: 400
TTFWidth: 5
LineGap: 0
VLineGap: 0
Panose: 2 0 5 3 0 0 0 9 0 4
OS2TypoAscent: 317
OS2TypoAOffset: 1
OS2TypoDescent: -215
OS2TypoDOffset: 1
OS2TypoLinegap: 0
OS2WinAscent: 37
OS2WinAOffset: 1
OS2WinDescent: 0
OS2WinDOffset: 1
HheadAscent: 37
HheadAOffset: 1
HheadDescent: 0
HheadDOffset: 1
OS2SubXSize: 2937
OS2SubYSize: 2726
OS2SubXOff: 0
OS2SubYOff: 580
OS2SupXSize: 2937
OS2SupYSize: 2726
OS2SupXOff: 0
OS2SupYOff: 2001
OS2StrikeYSize: 102
OS2StrikeYPos: 512
OS2FamilyClass: 2053
OS2Vendor: 'newt'
OS2CodePages: 20000000.00000000
OS2UnicodeRanges: 800000af.4000204a.00000000.00000000
MarkAttachClasses: 1
DEI: 91125
ShortTable: maxp 16
  1
  0
  399
  124
  7
  92
  4
  1
  0
  0
  0
  0
  0
  0
  3
  1
EndShort
LangName: 1033 "" "" "" "" "" "Version 1.000" "" "Oxygen is a trademark of vernon adams." "vernon adams" "vernon adams" "Copyright (c) 2011 by vernon adams. All rights reserved." "" "" "" "" "" "" "" "Oxygen" 
GaspTable: 3 8 2 16 1 65535 3 0
Encoding: UnicodeBmp
Compacted: 1
UnicodeInterp: none
NameList: Adobe Glyph List
DisplaySize: -72
AntiAlias: 1
FitToEm: 1
WinInfo: 0 14 5
BeginPrivate: 0
EndPrivate
Grid
-2048 162.199996948 m 0
 4096 162.199996948 l 0
-2048 864.199996948 m 0
 4096 864.199996948 l 0
EndSplineSet
BeginChars: 65547 399

StartChar: exclam
Encoding: 33 33 2
Width: 750
Flags: HW
LayerCount: 2
Fore
SplineSet
247 1445 m 1
 491 1445 l 1
 491 1194.0859375 l 1
 427.237304688 323 l 1
 318.981445312 323 l 1
 247 1193.96875 l 1
 247 1445 l 1
491 -23 m 1
 247 -23 l 1
 247 233 l 1
 491 233 l 1
 491 -23 l 1
EndSplineSet
EndChar

StartChar: quotedbl
Encoding: 34 34 3
Width: 719
Flags: HW
LayerCount: 2
Fore
SplineSet
603.93359375 937 m 1
 434.676757812 937 l 1
 398.05859375 1443 l 1
 603.93359375 1443 l 1
 603.93359375 937 l 1
288.93359375 937 m 1
 118.728515625 937 l 1
 81 1443 l 1
 288.93359375 1443 l 1
 288.93359375 937 l 1
EndSplineSet
EndChar

StartChar: numbersign
Encoding: 35 35 4
Width: 1124
Flags: HW
LayerCount: 2
Fore
SplineSet
941.310546875 1070 m 1
 1088.28417969 1070 l 1
 1068.59375 897 l 1
 909.989257812 897 l 1
 845.452148438 556 l 1
 1002.99023438 556 l 1
 984.831054688 380 l 1
 813.489322348 380 l 1
 727.621178407 -23 l 1
 519.596987438 -23 l 1
 603.26233861 380 l 1
 424.883859802 380 l 1
 339.01671035 -23 l 1
 145.1875 -23 l 1
 224.1875 380 l 1
 42 380 l 1
 57.365234375 556 l 1
 256.295898438 556 l 1
 318.3303481 895 l 1
 124.98046875 895 l 1
 140.380859375 1070 l 1
 350.365816932 1070 l 1
 435.132067243 1445 l 1
 641.906185747 1445 l 1
 562.643436647 1070 l 1
 744.192345859 1070 l 1
 823.45509496 1445 l 1
 1014.31054688 1445 l 1
 941.310546875 1070 l 1
640.763518076 556 m 1
 709.889442485 897 l 1
 527.261512887 897 l 1
 458.134593989 556 l 1
 640.763518076 556 l 1
EndSplineSet
EndChar

StartChar: dollar
Encoding: 36 36 5
Width: 1230
Flags: HW
LayerCount: 2
Fore
SplineSet
359 1059 m 0
 359 943.731445312 427.272068954 893.797851562 519.656075258 855.619140625 c 1
 521.561023386 1262.70410156 l 1
 422.034457915 1239.1796875 359 1167.44433594 359 1059 c 0
707.495717092 1256.47949219 m 1
 705.455270562 784.520507812 l 1
 905.790039062 711.483398438 1126 631.844726562 1126 370.516601562 c 0
 1126 134.1171875 933.88671875 11.4921875 705.858776834 -13.1220703125 c 1
 709.244244269 -172 l 1
 524.633648922 -172 l 1
 520.159212708 -19.470703125 l 1
 377.468435591 -12.4462890625 285.663085938 25.59375 202.043945312 86.5556640625 c 0
 187.4140625 97.2216796875 l 1
 250.1875 274.9765625 l 1
 277.360351562 256.356445312 l 0
 338.208984375 214.663085938 423.370512015 178.440429688 518.540206062 169.34375 c 1
 521.600875857 633.836914062 l 1
 342.654296875 707.610351562 130 788.560546875 130 1037.34375 c 0
 130 1257.30566406 304.607421875 1411.87988281 520.96522894 1438.32617188 c 1
 516.434002955 1575 l 1
 702.550025405 1575 l 1
 705.909588735 1441.91796875 l 1
 850.392730747 1434.8046875 962.181640625 1392.55859375 1038.52832031 1326.86230469 c 0
 1051.38671875 1315.79785156 l 1
 985.387695312 1141.08105469 l 1
 957.875976562 1166.33789062 l 0
 901.756835938 1217.85742188 817.156766009 1248.82519531 707.495717092 1256.47949219 c 1
906 358 m 0
 906 472.217773438 811.8962398 524.76171875 707.253613329 567.150390625 c 1
 703.44172445 160.926757812 l 1
 822.106442943 184.854492188 906 246.3359375 906 358 c 0
EndSplineSet
EndChar

StartChar: percent
Encoding: 37 37 6
Width: 1985
Flags: HW
LayerCount: 2
Fore
SplineSet
1265.88319741 360.161132812 m 0
 1265.88319741 227.462890625 1320.94392335 131 1448.97503421 131 c 0
 1575.52246094 131 1629 234.510742188 1629 366.87890625 c 0
 1629 499.928710938 1577.79101562 597 1451.06524961 597 c 0
 1321.9545553 597 1265.88319741 493.862304688 1265.88319741 360.161132812 c 0
1815 365.950195312 m 0
 1815 145.5859375 1682.28027344 -32 1445.83872609 -32 c 0
 1202.37197293 -32 1070.79774011 140.6796875 1070.79774011 361.075195312 c 0
 1070.79774011 583.135742188 1209.21590159 760 1452.11035731 760 c 0
 1693.16894531 760 1815 589.071289062 1815 365.950195312 c 0
904.247367592 1055.45410156 m 0
 904.247367592 836.389648438 765.203717529 661 523.979858085 661 c 0
 285.103515625 661 159 831.975585938 159 1051.578125 c 0
 159 1272.1640625 291.202148438 1447 529.206381607 1447 c 0
 776.276343029 1447 904.247367592 1277.85351562 904.247367592 1055.45410156 c 0
611.822096041 -45 m 1
 398.854492188 -45 l 1
 1326.62355671 1446 l 1
 1541.87634205 1446 l 1
 611.822096041 -45 l 1
346 1052.6015625 m 0
 346 920.739257812 399.333007812 824 527.115181185 824 c 0
 653.907135139 824 710.207017986 925.905273438 710.207017986 1056.3984375 c 0
 710.207017986 1187.97070312 655.427023151 1285 528.161273907 1285 c 0
 400.662109375 1285 346 1183.62402344 346 1052.6015625 c 0
EndSplineSet
EndChar

StartChar: ampersand
Encoding: 38 38 7
Width: 1665
Flags: HW
LayerCount: 2
Fore
SplineSet
285 1140.05371094 m 0
 285 1359.11035156 454.151874914 1473 687.024373882 1473 c 0
 907.961481824 1473 1092.27940338 1366.64257812 1092.27940338 1155.59375 c 0
 1092.27940338 953.91015625 919.76252314 852.224609375 777.928745469 784.37109375 c 1
 1124.66163462 418.344726562 l 1
 1174.95287958 472.47265625 1221.80437687 541.813476562 1254.51464844 607.1171875 c 0
 1267.1796875 632.46484375 l 1
 1440.04394531 517.584960938 l 1
 1430.40527344 498.646484375 l 0
 1388.94433594 417.182617188 1329.83300781 334.385742188 1269.84765625 268.626953125 c 1
 1474.50488281 51.2724609375 l 1
 1437.86816406 39.4599609375 l 0
 1381.8046875 21.3828125 1326.85449219 4.94921875 1270.375 -11.9609375 c 1
 1255.25878906 -16.609375 l 1
 1114.52909814 130.458984375 l 1
 998.420326069 41.7294921875 851.680808303 -23 651.993675227 -23 c 0
 339.682617188 -23 109 109.77734375 109 401.858398438 c 0
 109 637.182617188 279.955078125 754.126953125 437.452996427 833.908203125 c 1
 364.773755531 911.16796875 285 995.984375 285 1140.05371094 c 0
660.486354969 182 m 0
 792.995670144 182 890.830906111 226.633789062 968.708295291 284.029296875 c 1
 833.57224574 429.840820312 701.760363612 569.95703125 569.573092592 712.638671875 c 1
 452.556472125 652.077148438 349 575.151367188 349 426 c 0
 349 259.096679688 470.783578548 182 660.486354969 182 c 0
690.209252268 1280 m 0
 581.247687124 1280 517.99070741 1227.11035156 517.99070741 1128 c 0
 517.99070741 1028.0625 580.7013975 963.533203125 641.065907017 904.877929688 c 1
 745.896218621 957.8828125 856.057052488 1014.38085938 856.057052488 1135 c 0
 856.057052488 1228.60351562 793.040124091 1280 690.209252268 1280 c 0
EndSplineSet
EndChar

StartChar: quotesingle
Encoding: 39 39 8
Width: 574
Flags: HW
LayerCount: 2
Fore
SplineSet
374.875 937 m 1
 204.618164062 937 l 1
 168 1443 l 1
 374.875 1443 l 1
 374.875 937 l 1
EndSplineSet
EndChar

StartChar: parenleft
Encoding: 40 40 9
Width: 646
Flags: HW
LayerCount: 2
Fore
SplineSet
133 625 m 0
 133 989.7734375 261.84765625 1257.90722656 402.576171875 1489 c 0
 404.037109375 1489 l 1
 629.26171875 1489 l 1
 604.23046875 1462.25292969 l 1
 466.15234375 1234.03515625 362 964.313476562 362 628 c 0
 362 295.3828125 474.455078125 19.6865234375 605.171875 -194.072265625 c 1
 630.48828125 -221 l 1
 407.258789062 -221 l 1
 405.788085938 -221 l 0
 266.52734375 -0.6416015625 133 273.889648438 133 625 c 0
EndSplineSet
EndChar

StartChar: parenright
Encoding: 41 41 10
Width: 646
Flags: HW
LayerCount: 2
Fore
SplineSet
130.317382812 -194.072265625 m 1
 262.614257812 22.2685546875 373.48828125 295.021484375 373.48828125 628 c 0
 373.48828125 963.991210938 268.333007812 1235.69335938 131.258789062 1462.25292969 c 1
 106.2265625 1489 l 1
 331.452148438 1489 l 1
 332.913085938 1489 l 0
 474.094726562 1257.16210938 602.48828125 990.188476562 602.48828125 625 c 0
 602.48828125 273.356445312 468.619140625 -1.185546875 329.700195312 -221 c 0
 328.229492188 -221 l 1
 105 -221 l 1
 130.317382812 -194.072265625 l 1
EndSplineSet
EndChar

StartChar: asterisk
Encoding: 42 42 11
Width: 1124
Flags: HW
LayerCount: 2
Fore
SplineSet
962.228515625 529 m 2
 911.9375 497.770507812 865.3515625 471.59765625 813.917072452 441.025390625 c 1
 790.783584552 428.022460938 l 1
 572.017121061 734.27734375 l 1
 356.54079786 428.329101562 l 1
 159.265625 543.88671875 l 1
 424.291215404 837.12890625 l 1
 61 959.67578125 l 1
 159.108398438 1138.22363281 l 1
 484.69305585 989.546875 l 1
 455.204203194 1339 l 1
 690.474113871 1339 l 1
 664.146025146 989.5546875 l 1
 985.51953125 1137.6640625 l 1
 997.91015625 1125.53515625 l 1
 998.21484375 1126 l 0
 1025.546875 1076.7421875 1046.58984375 1033.50488281 1073.24609375 985.46484375 c 1
 1086.41992188 959.775390625 l 1
 721.775230732 837.147460938 l 1
 808.982857223 744.236328125 888.737304688 650.34765625 967.86328125 562.051757812 c 1
 987.514648438 544.717773438 l 1
 962.228515625 529 l 2
EndSplineSet
EndChar

StartChar: plus
Encoding: 43 43 12
Width: 1485
Flags: HW
LayerCount: 2
Fore
SplineSet
188 460 m 1
 188 649 l 1
 632.709794941 649 l 1
 632.709794941 1047 l 1
 840.473850214 1047 l 1
 840.473850214 649 l 1
 1283 649 l 1
 1283 460 l 1
 838.290205059 460 l 1
 838.290205059 62 l 1
 629.434823717 62 l 1
 629.434823717 460 l 1
 188 460 l 1
EndSplineSet
EndChar

StartChar: comma
Encoding: 44 44 13
Width: 560
Flags: HW
LayerCount: 2
Fore
SplineSet
184.745117188 214 m 1
 414.442382812 214 l 1
 244.05859375 -306 l 1
 73 -306 l 1
 184.745117188 214 l 1
EndSplineSet
EndChar

StartChar: hyphen
Encoding: 45 45 14
Width: 882
Flags: HW
LayerCount: 2
Fore
SplineSet
715 433 m 1
 167 433 l 1
 167 617 l 1
 715 617 l 1
 715 433 l 1
EndSplineSet
EndChar

StartChar: period
Encoding: 46 46 15
Width: 560
Flags: HW
LayerCount: 2
Fore
SplineSet
418 -51 m 1
 142 -51 l 1
 142 228 l 1
 418 228 l 1
 418 -51 l 1
EndSplineSet
EndChar

StartChar: slash
Encoding: 47 47 16
Width: 781
Flags: HW
LayerCount: 2
Fore
SplineSet
840.876953125 1451 m 1
 163.271484375 -215 l 1
 -45 -215 l 1
 628.484375 1451 l 1
 840.876953125 1451 l 1
EndSplineSet
EndChar

StartChar: zero
Encoding: 48 48 17
Width: 1205
Flags: HW
LayerCount: 2
Fore
SplineSet
65 722.129882812 m 0
 65 1097.6796875 187.125976562 1474 613 1474 c 0
 1038.65234375 1474 1161 1096.89648438 1161 722.129882812 c 0
 1161 346.647460938 1040.65722656 -22 613 -22 c 0
 185.319335938 -22 65 347.012695312 65 722.129882812 c 0
320.155429956 729.821289062 m 0
 320.155429956 475.080078125 372.508824414 193 613 193 c 0
 852.36016035 193 905.844570044 476.966796875 905.844570044 729.821289062 c 0
 905.844570044 981.713867188 851.038491097 1259 613 1259 c 0
 375.916764967 1259 320.155429956 979.97265625 320.155429956 729.821289062 c 0
EndSplineSet
EndChar

StartChar: one
Encoding: 49 49 18
Width: 1207
Flags: HW
LayerCount: 2
Fore
SplineSet
556.334960938 1441.12109375 m 0
 560.818359375 1443.96582031 l 1
 778 1477.25 l 1
 778 0 l 1
 537 0 l 1
 537 1218.33691406 l 1
 462.888671875 1176.53515625 391.458007812 1143.54394531 306.616210938 1109.171875 c 0
 272 1095.14746094 l 1
 272 1298.54492188 l 1
 288.470703125 1304.35546875 l 0
 386.225585938 1338.84863281 473.301757812 1388.42480469 556.334960938 1441.12109375 c 0
EndSplineSet
EndChar

StartChar: two
Encoding: 50 50 19
Width: 1223
Flags: HW
LayerCount: 2
Fore
SplineSet
118 1321.64160156 m 1
 132.155273438 1333.29785156 l 2
 231.463867188 1415.08203125 361.2265625 1473 562.041353884 1473 c 0
 865.390625 1473 1079.04785156 1326.48242188 1079.04785156 1056.43847656 c 0
 1079.04785156 809.833984375 930.249023438 655.176757812 802.979492846 528.120117188 c 1
 464.019106622 218 l 1
 1067.04785156 218 l 1
 1067.04785156 0 l 1
 119.047851562 0 l 1
 119.047851562 213.66796875 l 1
 616.064995803 699.64453125 l 1
 715.270650388 791.541992188 823.846775611 896.984375 823.846775611 1032.13574219 c 0
 823.846775611 1179.90820312 730.145062676 1258 556.432641771 1258 c 0
 411.398391092 1258 301.69140625 1206.90917969 227.904296875 1139.53808594 c 0
 201.337890625 1115.28125 l 1
 118 1321.64160156 l 1
EndSplineSet
EndChar

StartChar: three
Encoding: 51 51 20
Width: 1217
Flags: HW
LayerCount: 2
Fore
SplineSet
1061.72167969 1095.54980469 m 0
 1061.72167969 925.850585938 976.075195312 814.5 853.316913209 755.676757812 c 1
 1003.11328125 705.24609375 1111.72167969 589.18359375 1111.72167969 406.6953125 c 0
 1111.72167969 125.333984375 856.688981028 -23 545.999774162 -23 c 0
 364.142075947 -23 204.478515625 17.125 111.31640625 98.134765625 c 0
 97.8330078125 109.860351562 l 1
 179.638671875 311.127929688 l 1
 205.504882812 292.16015625 l 0
 281.172851562 236.670898438 395.83573019 192 543.783587873 192 c 0
 730.519683581 192 856.541633511 256.859375 856.541633511 404.801757812 c 0
 856.541633511 617.141601562 640.616791334 633.651367188 366.0755143 637.840820312 c 0
 339.864257812 638.249023438 l 1
 338.575195312 853 l 1
 365.437340261 853 l 0
 620.738814937 853 801.221601533 880.263671875 801.221601533 1072.50292969 c 0
 801.221601533 1209.87304688 719.142065918 1259 547.106871716 1259 c 0
 398.69108611 1259 282.470703125 1216.94238281 205.6171875 1159.92285156 c 0
 179.708007812 1140.69921875 l 1
 97 1344.18945312 l 1
 113.534179688 1355.58496094 l 0
 223.952148438 1431.68457031 376.717389974 1473 583.662993991 1473 c 0
 848.721263653 1473 1061.72167969 1336.29882812 1061.72167969 1095.54980469 c 0
EndSplineSet
EndChar

StartChar: four
Encoding: 52 52 21
Width: 1366
Flags: HW
LayerCount: 2
Fore
SplineSet
1260 547 m 1
 1260 341 l 1
 1076 341 l 1
 1076 0 l 1
 843 0 l 1
 843 341 l 1
 105 341 l 1
 105 522.076171875 l 1
 824.064327894 1472 l 1
 1076 1472 l 1
 1076 547 l 1
 1260 547 l 1
382.636696991 547 m 1
 829.528520383 547 l 1
 829.528520383 1161.92675781 l 1
 682.976914641 953.541015625 529.96366084 750.146484375 382.636696991 547 c 1
EndSplineSet
EndChar

StartChar: five
Encoding: 53 53 22
Width: 1272
Flags: HW
LayerCount: 2
Fore
SplineSet
221.1171875 309.633789062 m 1
 241.28125 299.206054688 l 2
 339.6796875 248.30859375 437.596431089 188 591.346479688 188 c 0
 801.779430646 188 921.795898438 304.206054688 921.795898438 487.834960938 c 0
 921.795898438 655.861328125 819.977097094 757 628.727109391 757 c 0
 524.765868239 757 449.519417268 729.151367188 390.844047907 684.677734375 c 0
 381.903796762 677.901367188 l 1
 196.952148438 700.057617188 l 1
 260.72265625 1473 l 1
 1102.79589844 1473 l 1
 1102.79589844 1260 l 1
 467.768784457 1260 l 1
 456.488080555 1145.78222656 445.81386611 1033.97070312 435.98177719 924.17578125 c 1
 503.566576101 948.30078125 577.254050893 963 663.909463372 963 c 0
 978.4296875 963 1166.79589844 771.806640625 1166.79589844 489.989257812 c 0
 1166.79589844 173.584960938 937.8984375 -23 586.948934002 -23 c 0
 383.326561374 -23 231.68359375 39.6650390625 129.44140625 128.090820312 c 0
 113 142.309570312 l 1
 221.1171875 309.633789062 l 1
EndSplineSet
EndChar

StartChar: six
Encoding: 54 54 23
Width: 1216
Flags: W
HStem: -23 208<423.843 788.465> 725 201<518.736 797.823> 1454 20G<717.168 1038.52>
VStem: 68 236<303.517 607.523> 919.996 246.004<307.858 609.013>
LayerCount: 2
Fore
SplineSet
671.559769921 926 m 0
 977.505859375 926 1166 741.495117188 1166 463.189453125 c 0
 1166 165.706054688 942.685546875 -23 614.817529768 -23 c 0
 276.15234375 -23 68 161.509765625 68 464.69140625 c 0
 68 652.392578125 135.715820312 775.061523438 216.903320312 890.095703125 c 1
 362.417528406 1090.62109375 539.898628988 1266.46777344 717.168234502 1464.74902344 c 1
 725.222919906 1474 l 1
 1038.52148438 1474 l 1
 514.831002297 903.170898438 l 1
 564.757739415 917.416015625 615.68932634 926 671.559769921 926 c 0
607.178883958 185 m 0
 796.825419152 185 919.995976395 290.732421875 919.995976395 453.565429688 c 0
 919.995976395 623.624023438 808.518216899 725 613.726294653 725 c 0
 418.250240473 725 304 619.353515625 304 450.696289062 c 0
 304 286.876953125 418.514361075 185 607.178883958 185 c 0
EndSplineSet
EndChar

StartChar: seven
Encoding: 55 55 24
Width: 1227
Flags: HW
LayerCount: 2
Fore
SplineSet
532.078125 0 m 1
 280.794921875 0 l 1
 815.816392417 1267 l 1
 95 1267 l 1
 95 1473 l 1
 1102 1473 l 1
 1102 1314.53710938 l 1
 532.078125 0 l 1
EndSplineSet
EndChar

StartChar: eight
Encoding: 56 56 25
Width: 1234
Flags: HW
LayerCount: 2
Fore
SplineSet
346.454069789 755.732421875 m 1
 217.052734375 816.104492188 124 923.73046875 124 1095.54980469 c 0
 124 1349.78613281 341.095703125 1473 617 1473 c 0
 893.624023438 1473 1110 1348.73828125 1110 1095.54980469 c 0
 1110 926.865234375 1024.24023438 817.168945312 904.11328125 755.872070312 c 1
 1044.25292969 689.912109375 1137 567.456054688 1137 382.5078125 c 0
 1137 114.328125 907 -23 617 -23 c 0
 326.046875 -23 97 115.575195312 97 382.5078125 c 0
 97 571.815429688 200.95703125 691.98046875 346.454069789 755.732421875 c 1
617 676.140625 m 1
 468.296621973 638.885742188 352.171594117 565.934570312 352.171594117 411 c 0
 352.171594117 266.071289062 451.445442496 193 617 193 c 0
 782.554557504 193 881.828405883 266.075195312 881.828405883 411 c 0
 881.828405883 567.247070312 762.581020883 639.684570312 617 676.140625 c 1
616.976127247 834.626953125 m 1
 770.944441994 867.487304688 874.178183266 929.982421875 874.178183266 1077 c 0
 874.178183266 1196.18554688 762.723262702 1259 617 1259 c 0
 470.957439227 1259 359.821816734 1195.54394531 359.821816734 1077 c 0
 359.821816734 928.724609375 464.817168233 866.842773438 616.976127247 834.626953125 c 1
EndSplineSet
EndChar

StartChar: colon
Encoding: 58 58 27
Width: 551
Flags: HW
LayerCount: 2
Fore
SplineSet
402.068359375 -34.45703125 m 1
 374.803710938 -31.9794921875 l 2
 306.252929688 -25.6953125 238.000976562 -22 166.068359375 -22 c 0
 136 -22 l 1
 141.234375 -12.3408203125 l 1
 147.266601562 62.818359375 150.068359375 130.189453125 150.068359375 197 c 0
 150.068359375 244.29296875 l 1
 177.328125 241.815429688 l 0
 245.87890625 235.634765625 314.1328125 232 386.068359375 232 c 0
 412.978515625 232 l 1
 410.994140625 186.690429688 l 1
 405.02734375 112.5390625 402.068359375 41.5185546875 402.068359375 -27 c 0
 402.068359375 -34.45703125 l 1
402.068359375 776.16796875 m 1
 375.255859375 778.118164062 l 2
 305.689453125 783.151367188 237.142578125 788 166.068359375 788 c 0
 139.157226562 788 l 1
 141.142578125 833.310546875 l 1
 147.109375 907.4609375 150.068359375 978.481445312 150.068359375 1047 c 0
 150.068359375 1054.45703125 l 1
 177.334960938 1051.97949219 l 0
 245.884765625 1045.6953125 314.135742188 1042 386.068359375 1042 c 0
 416.118164062 1042 l 1
 410.904296875 1032.37207031 l 1
 405.006835938 958.571289062 402.068359375 888.779296875 402.068359375 823 c 0
 402.068359375 776.16796875 l 1
EndSplineSet
EndChar

StartChar: semicolon
Encoding: 59 59 28
Width: 560
Flags: HW
LayerCount: 2
Fore
SplineSet
408.943359375 794 m 0
 408.943359375 766.625 l 1
 381.6796875 769.102539062 l 0
 313.12890625 775.334960938 244.877929688 779 172.943359375 779 c 0
 145.653320312 779 l 1
 148.0390625 806.184570312 l 0
 154.283203125 877.365234375 157.943359375 943.911132812 157.943359375 1018 c 0
 157.943359375 1045.375 l 1
 185.20703125 1042.89746094 l 0
 253.89453125 1036.65332031 320.912109375 1033 392.943359375 1033 c 0
 420.013671875 1033 l 1
 417.864257812 1006.01464844 l 0
 411.911132812 931.26953125 408.943359375 860.590820312 408.943359375 794 c 0
208.745117188 233 m 1
 439.512695312 233 l 1
 268.022460938 -287 l 1
 97 -287 l 1
 208.745117188 233 l 1
EndSplineSet
EndChar

StartChar: less
Encoding: 60 60 29
Width: 1485
Flags: HW
LayerCount: 2
Fore
SplineSet
503.207440876 552.276367188 m 1
 1262 238.677734375 l 1
 1262 31.0283203125 l 1
 208 492.196289062 l 1
 208 610.649414062 l 1
 1265 1084.4609375 l 1
 1265 875.5859375 l 1
 503.207440876 552.276367188 l 1
EndSplineSet
EndChar

StartChar: equal
Encoding: 61 61 30
Width: 1485
Flags: HW
LayerCount: 2
Fore
SplineSet
188 283 m 1
 188 470 l 1
 1284 470 l 1
 1284 283 l 1
 188 283 l 1
187 639 m 1
 187 827 l 1
 1283 827 l 1
 1283 639 l 1
 187 639 l 1
EndSplineSet
EndChar

StartChar: greater
Encoding: 62 62 31
Width: 1485
Flags: HW
LayerCount: 2
Fore
SplineSet
966.619295901 555.975585938 m 1
 209 887.918945312 l 1
 209 1096.06835938 l 1
 1264 609.4609375 l 1
 1264 488.958984375 l 1
 204 41.7548828125 l 1
 204 251.010742188 l 1
 966.619295901 555.975585938 l 1
EndSplineSet
EndChar

StartChar: question
Encoding: 63 63 32
Width: 1080
Flags: W
HStem: 1285 195<286.607 665.305>
VStem: 345.039 232.654<382 641.753> 737.039 218<979.25 1219.37>
LayerCount: 2
Fore
SplineSet
131 1359.48828125 m 1
 146.702148438 1370.48046875 l 2
 232.11328125 1430.26855469 347.446289062 1480 502.747876214 1480 c 0
 768.100585938 1480 955.0390625 1356.97851562 955.0390625 1115 c 0
 955.0390625 910.618164062 808.893554688 811.876953125 711.9765625 722.611328125 c 0
 711.86328125 722.506835938 l 1
 711.743164062 722.41015625 l 0
 661.029435332 682.352539062 607.711125314 640.264648438 589.227525056 592.0859375 c 0
 588.882178346 591.184570312 l 1
 588.455277458 590.303710938 l 0
 578.06567777 568.833007812 577.693146334 550.357421875 577.693146334 515 c 0
 577.693146334 382 l 1
 358.208007812 382 l 1
 356.141601562 404.736328125 l 0
 351.1953125 459.146484375 345.0390625 519.490234375 345.0390625 580 c 0
 345.0390625 669.471679688 401.448524125 729.280273438 453.059230589 772.912109375 c 0
 568.95275338 870.88671875 737.0390625 947.296875 737.0390625 1107 c 0
 737.0390625 1225.99316406 633.899078399 1285 479.089109524 1285 c 0
 356.423828125 1285 289.337890625 1245.33886719 218.564453125 1204.36425781 c 0
 192.724609375 1189.40429688 l 1
 131 1359.48828125 l 1
574.480314412 203 m 1
 368.0390625 203 l 1
 368.0390625 24 l 1
 574.480314412 24 l 1
 574.480314412 203 l 1
EndSplineSet
EndChar

StartChar: at
Encoding: 64 64 33
Width: 1900
Flags: HW
LayerCount: 2
Fore
SplineSet
972.246432509 1189 m 0
 762.920936956 1189 614.587537211 1109.51074219 509.848917589 1008.35742188 c 0
 402.648897051 904.826171875 325 760.838867188 325 562.98046875 c 0
 325 179.37109375 582.506556011 -64 997.374793666 -64 c 0
 1202.68597884 -64 1366.10802239 -5.873046875 1483.26203495 78.96875 c 0
 1502.17087545 92.7060546875 l 1
 1612.02050781 -28.525390625 l 1
 1591.9921875 -45.2158203125 l 1
 1453.52519817 -158.74609375 1248.6170206 -233 995.280927794 -233 c 0
 728.765796857 -233 517.265636844 -142.697265625 375.150390625 -14.369140625 c 1
 236.786132812 116.014648438 138 310.791015625 138 563.954101562 c 0
 138 806.375976562 242.295898438 997.758789062 373.814453125 1126.44628906 c 1
 510.661830222 1254.83105469 714.431930111 1358 975.386738642 1358 c 0
 1207.54965975 1358 1397.69632927 1279.63085938 1527.05664062 1171.01464844 c 1
 1653.83203125 1060.50390625 1751 892.315429688 1751 667.955078125 c 0
 1751 431.241210938 1637.15039062 249.100585938 1473.93275397 164.0625 c 1
 1416.96482203 135.482421875 1356.57083285 121 1293.68095555 121 c 0
 1183.33865818 121 1107.61658547 166.03515625 1075.3316371 248.615234375 c 1
 1012.16192079 182.743164062 931.548577404 138 817.287548471 138 c 0
 615.137361755 138 510.700258819 288.801757812 510.700258819 475 c 0
 510.700258819 758.560546875 725.674758156 999 1025.64444631 999 c 0
 1150.2614895 999 1253.92016701 968.048828125 1345.58123941 939.80859375 c 0
 1368.4275331 932.76953125 l 1
 1362.95589207 910.296875 l 0
 1326.16100295 759.182617188 1282.38393333 600.484375 1253.79896913 450.9765625 c 0
 1246.62563099 413.463867188 1243.23406095 385.173828125 1243.23406095 368 c 0
 1243.23406095 308.733398438 1262.47102255 290 1317.7618911 290 c 0
 1480.77107357 290 1564 489.3359375 1564 671.377929688 c 0
 1564 1000.5625 1329.70825808 1189 972.246432509 1189 c 0
843.46234989 311 m 0
 1056.72628398 311 1110.53912956 609.588867188 1151.75921944 825.104492188 c 1
 1115.53287649 832.484375 1069.24119713 834 1027.73831218 834 c 0
 840.863000164 834 713.441654722 653.696289062 713.441654722 464 c 0
 713.441654722 368.505859375 755.508159096 311 843.46234989 311 c 0
EndSplineSet
EndChar

StartChar: A
Encoding: 65 65 34
Width: 1382
Flags: W
HStem: 0 21G<17 273.04 1129.52 1386.68> 444 195<506.987 894.981> 1425 20G<571.838 831.911>
LayerCount: 2
Fore
SplineSet
265.579101562 0 m 1
 17 0 l 1
 579.625214925 1445 l 1
 824.124240636 1445 l 1
 1386.68261719 0 l 1
 1137.02636719 0 l 1
 970.415039062 444 l 1
 431.202148438 444 l 1
 265.579101562 0 l 1
506.987304688 639 m 1
 894.981445312 639 l 1
 703.651367188 1189.52441406 l 1
 506.987304688 639 l 1
EndSplineSet
EndChar

StartChar: B
Encoding: 66 66 35
Width: 1409
Flags: WO
HStem: 0 192<413 951.148> 674 189<413 937.197> 1252 193<413 913.607>
VStem: 172 241<192 674 863 1252> 1004.52 254.483<924.024 1172.1> 1070 244<287.848 584.883>
LayerCount: 2
Fore
SplineSet
172 0 m 1xf4
 172 1445 l 1
 636 1445 l 0
 966.412751227 1445 1259 1373.80479232 1259 1061.74414062 c 4xf8
 1259 929.497019409 1182.73963141 834.573312208 1064.95214844 783.129882812 c 5
 1227.08266103 723.715948086 1314 592.934587477 1314 419.104492188 c 4
 1314 116.016572304 1078.20019531 0 722.049371359 0 c 0
 172 0 l 1xf4
413 863 m 5
 720.916992188 863 l 6
 895.689520134 863 1004.51660156 902.24356693 1004.51660156 1041.515625 c 4
 1004.51660156 1235.7186273 850.308460696 1252 605 1252 c 0
 413 1252 l 1
 413 863 l 5
413 192 m 1
 690.34765625 192 l 2
 928.801566791 192 1070 241.007842267 1070 427.6015625 c 4xf4
 1070 614.758807757 964.709216851 674 743.561523438 674 c 4
 413 674 l 5
 413 192 l 1
EndSplineSet
EndChar

StartChar: C
Encoding: 67 67 36
Width: 1429
Flags: W
HStem: -23 215<626.834 1088.19> 1258 215<626.68 1090.83>
VStem: 101 255.128<479.286 974.8>
LayerCount: 2
Fore
SplineSet
1217.16894531 1139.65039062 m 0
 1136.57128906 1205.59472656 1012.74025905 1258 856.919942838 1258 c 0
 515.283515888 1258 356.12769346 1036.9375 356.12769346 726.911132812 c 0
 356.12769346 416.682617188 517.227000214 192 856.919942838 192 c 0
 1013.75308863 192 1135.96972656 244.912109375 1217.16894531 311.349609375 c 0
 1243.45996094 332.860351562 l 1
 1326.12792969 128.158203125 l 1
 1311.67480469 116.524414062 l 0
 1200.77734375 27.265625 1045.22704011 -23 839.734511895 -23 c 0
 356.386098661 -23 101 299.319335938 101 727.90234375 c 0
 101 1156.65625 357.965241554 1473 839.734511895 1473 c 0
 1045.10724306 1473 1200.69726562 1423.79882812 1311.67480469 1334.47460938 c 0
 1326.12792969 1322.84179688 l 1
 1243.45996094 1118.13964844 l 1
 1217.16894531 1139.65039062 l 0
EndSplineSet
EndChar

StartChar: D
Encoding: 68 68 37
Width: 1605
Flags: HW
LayerCount: 2
Fore
SplineSet
172 1445 m 1
 560 1445 l 2
 1136.63536521 1445 1504 1250.01855469 1504 720.083984375 c 0
 1504 248.315429688 1172.0131295 0 655.907743847 0 c 0
 172 0 l 1
 172 1445 l 1
413 216 m 1
 674.227734874 216 l 2
 1041.61137194 216 1248.86574451 391.420898438 1248.86574451 716.486328125 c 0
 1248.86574451 1102.26855469 1026.51627793 1237 582.629761239 1237 c 0
 413 1237 l 1
 413 216 l 1
EndSplineSet
EndChar

StartChar: E
Encoding: 69 69 38
Width: 1258
Flags: W
HStem: 0 208<413 1137.88> 651 208<413 1080> 1237 208<413 1107.88>
VStem: 172 241<208 651 859 1237>
LayerCount: 2
Fore
SplineSet
413 859 m 1
 1080 859 l 1
 1080 651 l 1
 413 651 l 1
 413 208 l 1
 1156.31347656 208 l 1
 1137.8828125 0 l 1
 172 0 l 1
 172 1445 l 1
 1126.31347656 1445 l 1
 1107.8828125 1237 l 1
 413 1237 l 1
 413 859 l 1
EndSplineSet
EndChar

StartChar: F
Encoding: 70 70 39
Width: 1156
Flags: HW
LayerCount: 2
Fore
SplineSet
412 843 m 1
 1060 843 l 1
 1060 636 l 1
 412 636 l 1
 412 0 l 1
 172 0 l 1
 172 1445 l 1
 1101.48535156 1445 l 1
 1081.73925781 1237 l 1
 412 1237 l 1
 412 843 l 1
EndSplineSet
EndChar

StartChar: G
Encoding: 71 71 40
Width: 1558
Flags: W
HStem: -23 215<625.568 1091.88> 583 198<796.128 1157> 1258 215<625.415 1090.98>
VStem: 101 255.12<479.284 974.802> 1157 215<245.63 583>
LayerCount: 2
Fore
SplineSet
1225.16894531 1138.65039062 m 0
 1143.44628906 1205.515625 1012.60565409 1258 854.659429755 1258 c 0
 514.575771087 1258 356.120081094 1036.95214844 356.120081094 726.911132812 c 0
 356.120081094 416.668945312 516.509762071 192 854.659429755 192 c 0
 974.130609917 192 1081.11641912 225.509765625 1157 265.567382812 c 1
 1157 583 l 1
 796.128256054 583 l 1
 796.128256054 781 l 1
 1372 781 l 1
 1372 134.940429688 l 1
 1359.86621094 127.844726562 l 0
 1223.19921875 47.9208984375 1068.41440161 -23 837.550287004 -23 c 0
 356.341673923 -23 101 299.326171875 101 727.90234375 c 0
 101 1156.65039062 357.914587307 1473 837.550287004 1473 c 0
 1041.61650811 1473 1208.7578125 1422.75097656 1319.67480469 1333.47460938 c 0
 1334.12792969 1321.84179688 l 1
 1251.45996094 1117.13964844 l 1
 1225.16894531 1138.65039062 l 0
EndSplineSet
EndChar

StartChar: H
Encoding: 72 72 41
Width: 1570
Flags: HW
LayerCount: 2
Fore
SplineSet
1157 0 m 1
 1157 645 l 1
 413 645 l 1
 413 0 l 1
 172 0 l 1
 172 1445 l 1
 413 1445 l 1
 413 845 l 1
 1157 845 l 1
 1157 1445 l 1
 1398 1445 l 1
 1398 0 l 1
 1157 0 l 1
EndSplineSet
EndChar

StartChar: I
Encoding: 73 73 42
Width: 608
Flags: W
HStem: 0 21G<185 426> 1425 20G<185 426>
VStem: 185 241<0 1445>
LayerCount: 2
Fore
SplineSet
185 1445 m 1
 426 1445 l 1
 426 0 l 1
 185 0 l 1
 185 1445 l 1
EndSplineSet
EndChar

StartChar: J
Encoding: 74 74 43
Width: 725
Flags: W
HStem: -24 196.066<56 268.872> 1425 20G<312 553>
VStem: 312 241<217.201 1445>
LayerCount: 2
Fore
SplineSet
312 1445 m 1
 553 1445 l 1
 553 438.314453125 l 0
 553 111.19140625 459.375 -24 111 -24 c 0
 56 -24 l 1
 56 172.06640625 l 1
 130.411132812 173.506835938 l 1
 284.37109375 177.584960938 312 229.551757812 312 389.001953125 c 0
 312 1445 l 1
EndSplineSet
EndChar

StartChar: K
Encoding: 75 75 44
Width: 1320
Flags: HW
LayerCount: 2
Fore
SplineSet
172 1445 m 1
 413 1445 l 1
 413 803.344726562 l 1
 611.054466241 1016.93554688 804.488509143 1223.49121094 1001.48719077 1436.30761719 c 0
 1009.53320312 1445 l 1
 1313.09277344 1445 l 1
 681.255700536 769.244140625 l 1
 1386.53222656 0 l 1
 1080.18554688 0 l 1
 499.05347005 662.864257812 l 1
 413 589.904296875 l 1
 413 0 l 1
 172 0 l 1
 172 1445 l 1
EndSplineSet
EndChar

StartChar: L
Encoding: 76 76 45
Width: 1134
Flags: W
HStem: 0 208<412 1094> 1425 20G<172 412>
VStem: 172 240<208 1445>
LayerCount: 2
Fore
SplineSet
172 0 m 1
 172 1445 l 1
 412 1445 l 1
 412 208 l 1
 1094 208 l 1
 1094 0 l 1
 172 0 l 1
EndSplineSet
EndChar

StartChar: M
Encoding: 77 77 46
Width: 1860
Flags: HW
LayerCount: 2
Fore
SplineSet
820.569259378 161 m 1
 402 1025.08300781 l 1
 402 0 l 1
 172 0 l 1
 172 1445 l 1
 433.907226562 1445 l 1
 936.011815485 416.275390625 l 1
 1433.0234375 1445 l 1
 1688 1445 l 1
 1688 0 l 1
 1456 0 l 1
 1456 1016.72851562 l 1
 1046.52613943 161 l 1
 820.569259378 161 l 1
EndSplineSet
EndChar

StartChar: N
Encoding: 78 78 47
Width: 1589
Flags: W
HStem: 0 21G<172 397 1156.07 1417> 1425 20G<172 427.402 1192 1417>
VStem: 172 225<0 1115.18> 1192 225<323.285 1445>
LayerCount: 2
Fore
SplineSet
1417 1445 m 1
 1417 0 l 1
 1170.03327871 0 l 1
 435.542490253 1051.76171875 l 1
 397 1115.18164062 l 1
 397 0 l 1
 172 0 l 1
 172 1445 l 1
 413.455078125 1445 l 1
 1148.90150057 390.381835938 l 1
 1192 323.28515625 l 1
 1192 1445 l 1
 1417 1445 l 1
EndSplineSet
EndChar

StartChar: O
Encoding: 79 79 48
Width: 1698
Flags: WO
HStem: -23 205<634.541 1063.48> 1268 205<628.973 1068.87>
VStem: 101 255.093<474.365 985.59> 1341.91 255.093<474.252 985.358>
LayerCount: 2
Fore
SplineSet
101 722.09765625 m 0
 101 1156.71386719 364.292709192 1473 849 1473 c 0
 1334.6453404 1473 1597 1155.36523438 1597 722.09765625 c 0
 1597 290.874023438 1331.48497142 -23 849 -23 c 0
 364.962462795 -23 101 291.786132812 101 722.09765625 c 0
356.092912879 729.77734375 m 0
 356.092912879 410.175239835 514.080784367 182 849 182 c 0
 1185.23406328 182 1341.90708712 410.466693304 1341.90708712 729.77734375 c 0
 1341.90708712 1045.64608104 1181.13071278 1268 849 1268 c 0
 515.404509455 1268 356.092912879 1045.4709522 356.092912879 729.77734375 c 0
EndSplineSet
EndChar

StartChar: P
Encoding: 80 80 49
Width: 1325
Flags: HW
LayerCount: 2
Fore
SplineSet
172 1445 m 1
 666 1445 l 2
 1023.58044268 1445 1285 1321.93457031 1285 1009.34667969 c 0
 1285 715.490234375 1033.84771518 563 693.760368812 563 c 0
 412 563 l 1
 412 0 l 1
 172 0 l 1
 172 1445 l 1
412 1237 m 1
 412 766 l 1
 713.423921576 766 l 0
 915.844322753 766 1053 851.709960938 1053 1006.25195312 c 0
 1053 1169.78027344 907.527751753 1237 687.976498729 1237 c 0
 412 1237 l 1
EndSplineSet
EndChar

StartChar: Q
Encoding: 81 81 50
Width: 1698
Flags: HW
LayerCount: 2
Fore
SplineSet
356.092912879 729.77734375 m 0
 356.092912879 416.009765625 514.080784367 192 849 192 c 0
 1185.23406328 192 1341.90708712 416.295898438 1341.90708712 729.77734375 c 0
 1341.90708712 1039.77734375 1181.13071278 1258 849 1258 c 0
 515.404509455 1258 356.092912879 1039.60546875 356.092912879 729.77734375 c 0
1256.09478352 -433.556640625 m 1
 1236.67390181 -414.427734375 l 2
 1124.86253274 -304.293945312 1017.33995405 -170.734375 941.420078835 -18.990234375 c 1
 910.496006393 -21.7216796875 880.844367157 -23 849 -23 c 0
 364.962462795 -23 101 281.786132812 101 722.09765625 c 0
 101 1166.71386719 364.292709192 1473 849 1473 c 0
 1334.66112252 1473 1597 1163.94140625 1597 718.651367188 c 0
 1597 380.395507812 1443.02929688 122.755859375 1156.5619017 19.267578125 c 1
 1216.34752113 -89.8564453125 1296.66666153 -182.995117188 1383.22851562 -260.883789062 c 1
 1400.84472656 -277.71875 l 1
 1256.09478352 -433.556640625 l 1
EndSplineSet
EndChar

StartChar: R
Encoding: 82 82 51
Width: 1426
Flags: W
HStem: 0 19.918G<172 413 1107.55 1368.1> 615 207<413 767.928> 1238 207<413 970.346>
VStem: 172 241<0 615 822 1238> 1052.7 245.302<911.128 1161.63>
LayerCount: 2
Fore
SplineSet
172 1445 m 1
 646 1445 l 2
 1005.658791 1445 1298 1380.12109375 1298 1046.72070312 c 0
 1298 844.83203125 1183.36035156 724.217773438 1009.85927738 673.821289062 c 1
 1061.30351488 626.489257812 1107.93180646 575.517578125 1138.87207031 510.530273438 c 1
 1368.10449219 0.1943359375 l 1
 1117.83102917 -1.08203125 l 1
 895.148393315 432.140625 l 0
 858.962963739 502.060546875 819.155599695 560.245117188 770.008612288 607.877929688 c 1
 725.595775525 613.415039062 682.835801724 615 632 615 c 0
 413 615 l 1
 413 0 l 1
 172 0 l 1
 172 1445 l 1
413 822 m 1
 688.52356552 822 l 2
 912.974774722 822 1052.69805394 874.252929688 1052.69805394 1041.80371094 c 0
 1052.69805394 1186.64355469 939.866466086 1238 733.284530933 1238 c 0
 413 1238 l 1
 413 822 l 1
EndSplineSet
EndChar

StartChar: S
Encoding: 83 83 52
Width: 1294
Flags: W
HStem: -23 218<371.998 864.929> 1257 216<458.141 949.605>
VStem: 136.04 238.091<964.377 1183.14> 962.04 243<278.623 519.598>
LayerCount: 2
Fore
SplineSet
586.941810474 887.528320312 m 0
 784.95119623 830.751953125 l 1
 998.419921875 767.779296875 1205.04003906 672.9609375 1205.04003906 405.419921875 c 0
 1205.04003906 113.51953125 969.934570312 -23 653.054542505 -23 c 0
 431.95690952 -23 267.2265625 29.93359375 141.177734375 105.563476562 c 0
 123 116.46875 l 1
 206.571289062 328.009765625 l 1
 232.620117188 309.307617188 l 0
 329.211914062 239.9609375 476.637366618 195 660.713538553 195 c 0
 842.571482449 195 962.040039062 257.107421875 962.040039062 403.680664062 c 0
 962.040039062 541.784179688 837.06117751 586.4921875 694.312789307 625.952148438 c 0
 500.696150701 679.833984375 l 0
 313.587890625 732.338867188 136.040039062 830.576171875 136.040039062 1062.88964844 c 0
 136.040039062 1339.12207031 369.129300697 1473 670.559967713 1473 c 0
 864.617669127 1473 1028.46777344 1431.68359375 1138.15722656 1356.6328125 c 0
 1155.06933594 1345.0625 l 1
 1072.33789062 1150.70996094 l 1
 1047.33984375 1167.08789062 l 0
 965.193359375 1220.90917969 821.784907573 1257 669.466251157 1257 c 0
 495.089487446 1257 374.130992668 1204.13574219 374.130992668 1069.47949219 c 0
 374.130992668 956.55859375 470.868781657 921.561523438 586.941810474 887.528320312 c 0
EndSplineSet
EndChar

StartChar: T
Encoding: 84 84 53
Width: 1203
Flags: W
HStem: 0 21G<503.545 745.051> 1237 208<27 469.157 729.425 1179>
VStem: 469.157 260.268<729.646 1237> 504.11 240.94<0 507.354>
LayerCount: 2
Fore
SplineSet
469.157145493 1237 m 1xe0
 27 1237 l 1
 27 1445 l 1
 1179 1445 l 1
 1179 1237 l 1
 729.424878551 1237 l 1xe0
 745.05078125 -0 l 1
 504.110351562 0 l 1xd0
 469.157145493 1237 l 1xe0
EndSplineSet
EndChar

StartChar: U
Encoding: 85 85 54
Width: 1514
Flags: W
HStem: -23 215<535.868 970.34> 1425 20G<164 405 1109 1350>
VStem: 164 241<329.635 1445> 1109 241<329.635 1445>
LayerCount: 2
Fore
SplineSet
1109 1445 m 1
 1350 1445 l 1
 1350 539.861328125 l 0
 1350 175.877929688 1164.17773438 -23 757 -23 c 0
 349.443359375 -23 164 175.205078125 164 539.861328125 c 0
 164 1445 l 1
 405 1445 l 1
 405 550.53515625 l 0
 405 306.010742188 491.696325648 192 757 192 c 0
 1021.53494236 192 1109 306.010742188 1109 550.53515625 c 0
 1109 1445 l 1
EndSplineSet
EndChar

StartChar: V
Encoding: 86 86 55
Width: 1368
Flags: HW
LayerCount: 2
Fore
SplineSet
251.674804688 1445 m 1
 636.20956331 414.125976562 l 1
 690.754782646 257.591796875 l 1
 838.001095193 648.630859375 983.576174537 1037.96289062 1130.19429304 1428.42089844 c 0
 1136.41894531 1445 l 1
 1385.12792969 1445 l 1
 810.739844379 0 l 1
 562.443186697 0 l 1
 -8 1445 l 1
 251.674804688 1445 l 1
EndSplineSet
EndChar

StartChar: W
Encoding: 87 87 56
Width: 2167
Flags: HW
LayerCount: 2
Fore
SplineSet
981.588867188 1445 m 1
 1211.42089844 1445 l 1
 1563.62011719 299.645507812 l 1
 1661.5078125 680.41796875 1804.07758863 1050.12402344 1909.46876164 1426.37011719 c 0
 1914.6875 1445 l 1
 2163.08496094 1445 l 1
 1696.82128906 0 l 1
 1433.36328125 0 l 1
 1090.62792969 1140.23242188 l 1
 696.393554688 0 l 1
 435.987304688 0 l 1
 20 1445 l 1
 271.129882812 1445 l 1
 573.236328125 318.965820312 l 1
 575.458007812 309.01953125 l 1
 691.008789062 689.232421875 851.261289306 1053.56054688 975.754797147 1427.4765625 c 0
 981.588867188 1445 l 1
EndSplineSet
EndChar

StartChar: X
Encoding: 88 88 57
Width: 1337
Flags: HW
LayerCount: 2
Fore
SplineSet
264.573242188 0 m 1
 -8 0 l 1
 538.502745598 736.734375 l 1
 28.875 1445 l 1
 312.80859375 1445 l 1
 696.092301581 883.28125 l 1
 1098.95019531 1445 l 1
 1365.12792969 1445 l 1
 842.90512527 737.294921875 l 1
 1372.40722656 0 l 1
 1090.72460938 0 l 1
 680.220581264 591.731445312 l 1
 264.573242188 0 l 1
EndSplineSet
EndChar

StartChar: Y
Encoding: 89 89 58
Width: 1310
Flags: W
HStem: 0 21G<538.084 793.945> 1425 20G<-6 267.296 1072.13 1351.01>
VStem: 538.084 255.86<0 571.27>
LayerCount: 2
Fore
SplineSet
1084.31835938 1445 m 1
 1351.00683594 1445 l 1
 793.944933567 571.26953125 l 1
 793.944933567 0 l 1
 538.084464641 0 l 1
 538.084464641 571.403320312 l 1
 -6 1445 l 1
 255.232421875 1445 l 1
 667.72329558 761.12890625 l 1
 1084.31835938 1445 l 1
EndSplineSet
EndChar

StartChar: Z
Encoding: 90 90 59
Width: 1258
Flags: W
HStem: 0 208<359.923 1190> 1237 208<77 864.959>
LayerCount: 2
Fore
SplineSet
77 1445 m 1
 1198 1445 l 1
 1198 1294.86328125 l 1
 359.923359361 208 l 1
 1190 208 l 1
 1190 0 l 1
 44 0 l 1
 44 164.509765625 l 1
 864.958876493 1237 l 1
 77 1237 l 1
 77 1445 l 1
EndSplineSet
EndChar

StartChar: bracketleft
Encoding: 91 91 60
Width: 646
Flags: HW
LayerCount: 2
Fore
SplineSet
420 -87 m 1
 575 -87 l 1
 575 -259 l 1
 179 -259 l 1
 179 1489 l 1
 575 1489 l 1
 575 1317 l 1
 420 1317 l 1
 420 -87 l 1
EndSplineSet
EndChar

StartChar: backslash
Encoding: 92 92 61
Width: 771
Flags: HW
LayerCount: 2
Fore
SplineSet
147.315429688 1451 m 1
 869.408203125 -119 l 1
 657.15625 -119 l 1
 -67 1451 l 1
 147.315429688 1451 l 1
EndSplineSet
EndChar

StartChar: bracketright
Encoding: 93 93 62
Width: 646
Flags: HW
LayerCount: 2
Fore
SplineSet
575 -259 m 1
 179 -259 l 1
 179 -87 l 1
 334 -87 l 1
 334 1317 l 1
 179 1317 l 1
 179 1489 l 1
 575 1489 l 1
 575 -259 l 1
EndSplineSet
EndChar

StartChar: asciicircum
Encoding: 94 94 63
Width: 1484
Flags: HW
LayerCount: 2
Fore
SplineSet
175 550 m 1
 677.911303095 1432 l 1
 814.192447395 1432 l 1
 1325.12792969 550 l 1
 1121.33496094 550 l 1
 744.336870558 1196.47460938 l 1
 379.7265625 550 l 1
 175 550 l 1
EndSplineSet
EndChar

StartChar: underscore
Encoding: 95 95 64
Width: 1048
Flags: HW
LayerCount: 2
Fore
SplineSet
-5 -145 m 1
 1048 -145 l 1
 1048 -323 l 1
 -5 -323 l 1
 -5 -145 l 1
EndSplineSet
EndChar

StartChar: grave
Encoding: 96 96 65
Width: 613
Flags: W
HStem: 1125 364
VStem: -2 553.188
LayerCount: 2
Fore
SplineSet
551.1875 1125 m 1
 352.725585938 1125 l 1
 -2 1489 l 1
 297.314453125 1489 l 1
 551.1875 1125 l 1
EndSplineSet
EndChar

StartChar: a
Encoding: 97 97 66
Width: 1166
Flags: WO
HStem: -23 172<379.8 711.312> 0 21G<849.766 1034> 425.427 144.821<416.685 800> 864 181<339.882 759.735>
VStem: 118 230<182.526 368.721> 800 234<200.865 425.078 570.248 823.952>
LayerCount: 2
Fore
SplineSet
857.8515625 0 m 1x7c
 829.615234375 69.83984375 l 1
 722.543726908 20.09532244 610.22490811 -23 462.347948785 -23 c 0xbc
 262.112304688 -23 118 81.595703125 118 266.530273438 c 0
 118 570.770507812 480.914244204 570.291992188 800 570.248046875 c 1
 800 707.122070312 l 0
 800 821.074389394 742.318582725 864 611.232421875 864 c 0
 447.557066145 864 325.1700639 822.903986033 231.8515625 770.155273438 c 1
 180.795898438 950.348632812 l 1
 288.073324915 1003.98734605 428.058887934 1045 606.685793796 1045 c 0
 849.803710938 1045 1034 963.59765625 1034 736.673828125 c 0
 1034 0 l 1
 857.8515625 0 l 1x7c
511.668945312 149 m 0
 625.291514226 149 709.949744602 183.048257192 800 216.428710938 c 1
 800 425.078125 l 1
 773.786453056 425.21875 751.377682578 425.423828125 724.059305108 425.426757812 c 0
 519.499014579 425.447265625 348 408.397460938 348 289 c 0
 348 194.158203125 398.917925496 149 511.668945312 149 c 0
EndSplineSet
EndChar

StartChar: b
Encoding: 98 98 67
Width: 1299
Flags: W
HStem: -23 185<522.168 860.498> 0 21G<149 386.202> 864 181<523.17 858.766>
VStem: 156.378 233<0 118.18 302.882 722.278 899.874 1487> 986.378 238<299.422 725.88>
LayerCount: 2
Fore
SplineSet
389.377929688 899.874023438 m 1x78
 469.61988888 990.214601219 581.891842527 1045 730.293945312 1045 c 0
 1061.57806197 1045 1224.37792969 815.048828125 1224.37792969 522.458984375 c 0
 1224.37792969 221.32421875 1069.90848835 -23 730.293945312 -23 c 0xb8
 578.347499794 -23 467.125211241 34.798250473 387.974609375 118.1796875 c 1
 385.840820312 0 l 1
 149 0 l 1
 150.525645009 98.853972765 156.377929688 187.171886041 156.377929688 279.6796875 c 2
 156.377929688 1487 l 1
 389.377929688 1487 l 1
 389.377929688 899.874023438 l 1x78
386.377929688 512 m 0
 386.377929688 303.746870294 479.429767004 162 700.58203125 162 c 0
 906.981143258 162 986.377929688 314.564947289 986.377929688 512 c 0
 986.377929688 710.154273343 905.01882506 864 700.58203125 864 c 0
 478.4441346 864 386.377929688 721.362387048 386.377929688 512 c 0
EndSplineSet
EndChar

StartChar: c
Encoding: 99 99 68
Width: 1109
Flags: WO
HStem: -23 185<452.493 821.394> 865 180<454.363 820.624>
VStem: 75 235<310.912 714.922>
LayerCount: 2
Fore
SplineSet
623.029067552 -23 m 0
 259.879882812 -23 75 204.774414062 75 513.865234375 c 0
 75 819.985351562 268.534179688 1045 626.389876563 1045 c 0
 823.671621074 1045 952.43064928 986.388004356 1040.75 894.069335938 c 1
 924.375 734.889648438 l 1
 853.052206703 811.052364243 782.070283131 865 633.111328125 865 c 0
 409.347801836 865 310 720.439668912 310 514.723632812 c 0
 310 302.831665809 407.525257773 162 639.833984375 162 c 0
 780.919210453 162 859.43035008 220.362309863 924.3828125 290.305664062 c 1
 1041.41210938 128.884765625 l 1
 948.581162047 40.1008662863 824.827999751 -23 623.029067552 -23 c 0
EndSplineSet
EndChar

StartChar: e
Encoding: 101 101 70
Width: 1177
Flags: WO
HStem: -23 185<459.502 847.447> 451 165<321.494 860.41> 865 180<451.16 753.989>
LayerCount: 2
Fore
SplineSet
1088 451 m 1
 312.93359375 451 l 1
 331.001832295 280.136110634 432.161959026 162 634.415039062 162 c 0
 792.197489093 162 900.333877149 219.517914722 971.59765625 295.8984375 c 1
 1067.24511719 139.434570312 l 1
 966.065081263 38.385383282 833.189097966 -23 612.4765625 -23 c 0
 274.15432222 -23 75 209.329101562 75 511 c 0
 75 814.704101562 274.403320312 1045 609.692122436 1045 c 0
 932.549804688 1045 1089 814.107421875 1089 531.725585938 c 0
 1089 504.454339672 1088 477.60882649 1088 451 c 1
611.907226562 865 m 0
 442.500671686 865 350.219738451 755.014265731 321.494140625 616 c 1
 860.41015625 616 l 1
 842.453690068 760.512840477 768.324899208 865 611.907226562 865 c 0
EndSplineSet
EndChar

StartChar: f
Encoding: 102 102 71
Width: 726
Flags: HW
HStem: 0 21G<208 441.217> 865 155<37 208 450.392 691> 1286 203<480.768 707>
VStem: 208 242.392<0 865 1020 1256.6>
LayerCount: 2
Fore
SplineSet
707 1489 m 1
 707 1286 l 1
 653 1286 l 0
 463.859375 1286 450.392212726 1250.05566406 450.392212726 1058 c 0
 450.392212726 1020 l 1
 691 1020 l 1
 691 865 l 1
 450.392212726 865 l 1
 449 0 l 1
 208 0 l 1
 208 865 l 1
 37 865 l 1
 37 1020 l 1
 208.000976562 1020 l 1
 208.025390625 1199.95898438 207.651367188 1368.24316406 349.782527971 1439.71191406 c 0
 433.022527711 1480.29492188 534.014648438 1489 653 1489 c 0
 707 1489 l 1
EndSplineSet
EndChar

StartChar: g
Encoding: 103 103 72
Width: 1299
Flags: W
HStem: -402 205<329.759 803.92> 0 203<438.702 781.031> 844 201<430.232 783.708> 1000 20G<913.072 1150.77>
VStem: 75 238<329.14 715.578> 913.996 229.004<-91.5548 124.558 337.913 710.814 923.682 1020>
LayerCount: 2
Fore
SplineSet
912.957719494 524.892578125 m 0xec
 912.957719494 718.209960938 817.340825587 844 598.048753935 844 c 0
 393.745867085 844 313 708.479492188 313 524.892578125 c 0
 313 341.387695312 395.697739062 203 598.048753935 203 c 0
 817.269306614 203 912.957719494 331.173828125 912.957719494 524.892578125 c 0xec
913.99609375 124.557617188 m 1
 834.742782416 45.482421875 724.49727853 0 568.561083952 0 c 0
 244.958007812 0 75 235.729492188 75 515.344726562 c 0
 75 814.23046875 235.817382812 1045 578.389976173 1045 c 0xec
 725.571056447 1045 833.013413911 995.541992188 911.233317584 923.681640625 c 1
 913.553710938 1020 l 1
 1150.7734375 1020 l 1xdc
 1149.98925781 994.978515625 l 0
 1147.35351562 911 1143 841.545898438 1143 761.016601562 c 0
 1143 131.284179688 l 0
 1143 -261.801757812 946.932617188 -402 507.401435346 -402 c 0
 329.759232399 -402 l 1
 329.759232399 -197 l 1
 512.724632255 -197 l 1
 719.286326676 -195.049804688 861.10249064 -170.26171875 898.681737786 -46.705078125 c 0
 912.912026817 0.177734375 913.928710938 58.466796875 913.99609375 124.557617188 c 1
EndSplineSet
EndChar

StartChar: h
Encoding: 104 104 73
Width: 1259
Flags: W
HStem: 0 21G<160 393 894 1127> 844 201<530.244 827.136>
VStem: 160 233<0 725.686 921.096 1487> 894 233<0 771.279>
LayerCount: 2
Fore
SplineSet
894 0 m 1
 894 508.131835938 l 2
 894 700.806640625 885.710517837 844 700.608643075 844 c 0
 550.191261058 844 423.549217954 747.10546875 393 650.409179688 c 1
 393 0 l 1
 160 0 l 1
 160 1487 l 1
 393 1487 l 1
 393 921.095703125 l 1
 474.120141055 998.961914062 582.560996372 1045 736.09328658 1045 c 0
 1018.53222656 1045 1127 858.934570312 1127 605.975585938 c 0
 1127 0 l 1
 894 0 l 1
EndSplineSet
EndChar

StartChar: i
Encoding: 105 105 74
Width: 557
Flags: W
HStem: 0 21G<169 402> 1000 20G<169 402> 1211 234<169 402>
VStem: 169 233<0 1020 1211 1445>
LayerCount: 2
Fore
SplineSet
169 1020 m 1
 402 1020 l 1
 402 0 l 1
 169 0 l 1
 169 1020 l 1
169 1445 m 1
 402 1445 l 1
 402 1211 l 1
 169 1211 l 1
 169 1445 l 1
EndSplineSet
EndChar

StartChar: j
Encoding: 106 106 75
Width: 518
Flags: W
HStem: 1000 20G<143 376> 1211 234<143 376>
VStem: 143 233<-43.0087 1020 1211 1445>
LayerCount: 2
Fore
SplineSet
-50 -289.319335938 m 1
 -50 -84.9306640625 l 1
 -28.0791015625 -82.1904296875 l 0
 120.790039062 -64.3896484375 143 -32.1279296875 143 131.143554688 c 0
 143 1020 l 1
 376 1020 l 1
 376 178.080078125 l 0
 376 46.017578125 376.677734375 -64.8896484375 315.346679688 -147.526367188 c 1
 246.340820312 -244.5078125 123.313476562 -267.655273438 -21.8994140625 -285.806640625 c 0
 -50 -289.319335938 l 1
143 1445 m 1
 376 1445 l 1
 376 1211 l 1
 143 1211 l 1
 143 1445 l 1
EndSplineSet
EndChar

StartChar: k
Encoding: 107 107 76
Width: 1186
Flags: HW
LayerCount: 2
Fore
SplineSet
160 0 m 1
 160 1492 l 1
 393 1492 l 1
 393 629.862304688 l 1
 847.020572666 1020 l 1
 1177.31640625 1020 l 1
 663.630384773 575.473632812 l 1
 1172.75683594 0 l 1
 876.680664062 0 l 1
 469.982216777 483.631835938 l 1
 393 427.911132812 l 1
 393 0 l 1
 160 0 l 1
EndSplineSet
EndChar

StartChar: l
Encoding: 108 108 77
Width: 639
Flags: W
HStem: -23 199<436.117 558> 1472 20G<169 402.023>
VStem: 169 232<204.501 1492>
LayerCount: 2
Fore
SplineSet
558 176 m 1
 558 -23 l 1
 533 -23 l 0
 207.294921875 -23 169 146.782226562 169 445.5859375 c 0
 169 1492 l 1
 402.0234375 1492 l 1
 401 401.2890625 l 0
 401 250.913085938 402.459960938 176 533 176 c 0
 558 176 l 1
EndSplineSet
EndChar

StartChar: m
Encoding: 109 109 78
Width: 1938
Flags: HW
LayerCount: 2
Fore
SplineSet
1573.60644531 0 m 1
 1573.60644531 527.012695312 l 2
 1573.60644531 710.30078125 1559.54668303 844 1380.30665732 844 c 0
 1221.3902494 844 1095.60644531 730.046875 1095.60644531 594.041992188 c 0
 1095.60644531 0 l 1
 862.606445312 0 l 1
 862.606445312 558.166992188 l 0
 862.606445312 723.588867188 840.82161528 844 680.409857217 844 c 0
 514.544909328 844 414.68480452 744.888671875 385.606445312 627.4453125 c 1
 385.606445312 0 l 1
 152.606445312 0 l 1
 152.606445312 749.18359375 l 0
 152.606445312 833.493164062 151.609375 915.571289062 149.614257812 995.4140625 c 0
 149 1020 l 1
 367.86328125 1020 l 1
 375.936523438 908.440429688 l 1
 449.812842947 985.48828125 548.255537339 1045 702.707388835 1045 c 0
 869.850585938 1045 972.56640625 984.930664062 1030.36523438 879.907226562 c 1
 1114.92964159 981.771484375 1236.07539981 1045 1418.20497796 1045 c 0
 1690.109375 1045 1806.60644531 879.259765625 1806.60644531 642.227539062 c 0
 1806.60644531 0 l 1
 1573.60644531 0 l 1
EndSplineSet
EndChar

StartChar: n
Encoding: 110 110 79
Width: 1251
Flags: W
HStem: 0 21G<152 385 886 1119> 865 180<529.935 817.047> 1000 20G<149 369.374>
VStem: 149 219.409<870.116 1020> 152 233<0 733.852 870.116 999.63> 886 233<0 791.159>
LayerCount: 2
Fore
SplineSet
886 0 m 1xd4
 886 508.131835938 l 2
 886 712.853542747 877.710507351 865 692.608398438 865 c 0
 542.191136046 865 415.549193659 757.594716469 385 650.409179688 c 1
 385 0 l 1
 152 0 l 1
 152 760.048828125 l 2xcc
 152 838.02734375 149 919.337890625 149 995.243164062 c 2
 149 1020 l 1
 368.409179688 1020 l 1xb4
 375.638671875 870.116210938 l 1
 457.734999523 979.398795295 568.695881333 1045 728.09328658 1045 c 0
 1010.53222656 1045 1119 858.934570312 1119 605.975585938 c 2
 1119 0 l 1
 886 0 l 1xd4
EndSplineSet
EndChar

StartChar: o
Encoding: 111 111 80
Width: 1277
Flags: W
HStem: -23 185<467.526 815.914> 864 181<471.89 818.9>
VStem: 75 239<316.358 701.194> 964 238<315.217 707.743>
LayerCount: 2
Fore
SplineSet
641.216576544 -23 m 0
 281.647460938 -23 75 192.982421875 75 508.134765625 c 0
 75 824.71484375 286.135742188 1045 645.56329745 1045 c 0
 1007.36425781 1045 1202 826.9609375 1202 510.044921875 c 0
 1202 199.026367188 994.584960938 -23 641.216576544 -23 c 0
964 508.138671875 m 0
 964 717.87757659 861.685981934 864 641.216796875 864 c 0
 426.287624646 864 314 709.566813639 314 506.276367188 c 0
 314 305.348545421 428.43666301 162 645.563476562 162 c 0
 861.007321977 162 964 307.227689241 964 508.138671875 c 0
EndSplineSet
EndChar

StartChar: p
Encoding: 112 112 81
Width: 1299
Flags: W
HStem: -427 21G<156.384 389.703> -23 185<523.64 859.303> 864 181<535.339 854.619> 1000 20G<149 385.877>
VStem: 156.384 233.319<-427 104.819 302.893 722.267 883.698 1020> 986.384 238<303.693 724.024>
LayerCount: 2
Fore
SplineSet
386.150390625 883.698242188 m 1xdc
 469.931474434 981.985920976 580.145935279 1045 732.994140625 1045 c 0xec
 1072.0616863 1045 1224.38378906 800.346679688 1224.38378906 499.541015625 c 0
 1224.38378906 207.646484375 1078.70800781 -23 742.835905972 -23 c 0
 590.5561189 -23 471.360810171 27.0078125 389.703029188 104.819335938 c 1
 389.703029188 -427 l 1
 156.383789062 -427 l 1
 156.383789062 742.50390625 l 2
 156.383789062 834.290888567 152.532417036 946.26584679 149 1020 c 1
 385.830078125 1020 l 1
 386.150390625 883.698242188 l 1xdc
386.426069568 512 m 0
 386.426069568 303.770548993 480.784405981 162 701.334960938 162 c 0
 907.150726303 162 986.383789062 314.555681711 986.383789062 512 c 0
 986.383789062 710.162556476 905.19488054 864 701.334960938 864 c 0
 479.800027012 864 386.426069568 721.338573042 386.426069568 512 c 0
EndSplineSet
EndChar

StartChar: q
Encoding: 113 113 82
Width: 1299
Flags: HW
LayerCount: 2
Fore
SplineSet
909.681753193 104.796875 m 1
 825.934028882 24.9296875 708.27339812 -23 556.547883091 -23 c 0
 218.821289062 -23 75 207.455078125 75 499.541015625 c 0
 75 800.671875 232.590820312 1045 578.389976173 1045 c 0
 725.571056447 1045 833.013413911 995.541992188 911.233317584 923.681640625 c 1
 913.553710938 1020 l 1
 1150.7734375 1020 l 1
 1149.98925781 994.965820312 l 0
 1147.35351562 910.938476562 1143 841.443359375 1143 760.865234375 c 0
 1143 -427 l 1
 909.681753193 -427 l 1
 909.681753193 104.796875 l 1
912.957719494 512 m 0
 912.957719494 709.270507812 818.412616866 844 598.048753935 844 c 0
 392.232048818 844 313 699.290039062 313 512 c 0
 313 325.096679688 394.188887391 180 598.048753935 180 c 0
 819.662212259 180 912.957719494 314.353515625 912.957719494 512 c 0
EndSplineSet
EndChar

StartChar: r
Encoding: 114 114 83
Width: 750
Flags: W
HStem: 0 21G<152.445 385.445> 838 208<477.445 695.445> 1000 20G<149 357.15>
VStem: 149 206.704<907.479 1020> 152.445 233<0 739.345>
LayerCount: 2
Fore
SplineSet
695.4453125 824.981445312 m 1xd0
 664.3828125 832.74609375 l 2
 650.764648438 836.150390625 634.784179688 838 616.4453125 838 c 0
 456.110351562 838 385.4453125 722.081054688 385.4453125 554.170898438 c 0
 385.4453125 0 l 1
 152.4453125 0 l 1
 152.4453125 772.053710938 l 0xc8
 152.4453125 846.865234375 150.799804688 922.20703125 149.450195312 995.565429688 c 0
 149 1020 l 1
 355.704101562 1020 l 1xb0
 363.837890625 907.478515625 l 1
 424.008789062 988.541992188 509.361328125 1046 632.4453125 1046 c 0
 651.9453125 1046 l 0
 659.814453125 1046 668.688476562 1044.91601562 675.217773438 1043.54980469 c 1
 695.4453125 1039.05371094 l 1
 695.4453125 824.981445312 l 1xd0
EndSplineSet
EndChar

StartChar: s
Encoding: 115 115 84
Width: 1067
Flags: W
HStem: -23 199<304.975 716.733> 845 200<385.091 789.154>
VStem: 130.307 231.043<667.062 816.658> 743.307 231<207.049 365.244>
LayerCount: 2
Fore
SplineSet
568.341430453 416.547851562 m 0
 445.228697721 443.971679688 l 1
 285.118164062 482.118164062 130.306640625 551.275390625 130.306640625 744.0859375 c 0
 130.306640625 951.013671875 317.556640625 1045 547.757897792 1045 c 0
 701.984829387 1045 818.176757812 1015.46484375 909.173828125 954.80078125 c 0
 925.501953125 943.916015625 l 1
 859.26171875 761.420898438 l 1
 833.055664062 777.799804688 l 0
 772.39453125 815.71484375 674.560529385 845 554.726145316 845 c 0
 437.773616424 845 361.349748156 816.852539062 361.349748156 743.09765625 c 0
 361.349748156 665.728515625 420.131162018 651.958984375 519.057792171 629.993164062 c 0
 663.115418715 597.834960938 l 1
 824.217773438 558.314453125 974.306640625 492.005859375 974.306640625 294.9140625 c 0
 974.306640625 76.6982421875 798.181640625 -23 554.726145316 -23 c 0
 369.160167918 -23 218.081054688 18.580078125 126.98828125 97.0595703125 c 0
 114 108.25 l 1
 183.2265625 302.354492188 l 1
 210.936523438 277.666992188 l 0
 276.081054688 219.62890625 391.549502552 176 539.62827568 176 c 0
 678.923965281 176 743.306640625 203.358398438 743.306640625 292.092773438 c 0
 743.306640625 360.8984375 673.161258707 393.102539062 568.341430453 416.547851562 c 0
EndSplineSet
EndChar

StartChar: t
Encoding: 116 116 85
Width: 796
Flags: HW
LayerCount: 2
Fore
SplineSet
730 853 m 1
 482.547470821 853 l 1
 482.547470821 393.810546875 l 0
 482.547470821 226.8828125 503.664873402 176 679 176 c 0
 762 176 l 1
 762 -23 l 1
 709 -23 l 0
 492.533915187 -23 279.048828125 7.1123046875 228.908203125 179.908203125 c 0
 207.045898438 255.245117188 207 340.98828125 207 435.079101562 c 0
 207 853 l 1
 36 853 l 1
 36 1020 l 1
 207 1020 l 1
 207 1306.22167969 l 1
 482.547470821 1369.52148438 l 1
 482.547470821 1020 l 1
 730 1020 l 1
 730 853 l 1
EndSplineSet
EndChar

StartChar: u
Encoding: 117 117 86
Width: 1208
Flags: W
HStem: -23 203<451.6 756.273> 1000 20G<132 365 843 1076>
VStem: 132 233<264.463 1020> 843 233<265.029 1020>
LayerCount: 2
Fore
SplineSet
843 1020 m 1
 1076 1020 l 1
 1076 396.907226562 l 0
 1076 140.599609375 890.829101562 -23 604 -23 c 0
 316.374023438 -23 132 142.458984375 132 396.907226562 c 0
 132 1020 l 1
 365 1020 l 1
 365 400.631835938 l 0
 365 269.095703125 455.739128439 180 604 180 c 0
 752.359617054 180 843 270.412109375 843 400.631835938 c 0
 843 1020 l 1
EndSplineSet
EndChar

StartChar: v
Encoding: 118 118 87
Width: 1185
Flags: HW
LayerCount: 2
Fore
SplineSet
724.06623268 0 m 1
 480.04040111 0 l 1
 41 1020 l 1
 300.283203125 1020 l 1
 306.823438505 1003.80566406 l 0
 407.472379581 754.551757812 511.671393777 503.440429688 609.815627223 254.228515625 c 1
 712.011272415 503.228515625 807.685544472 753.345703125 907.092555605 1003.67675781 c 0
 913.57421875 1020 l 1
 1168.09960938 1020 l 1
 724.06623268 0 l 1
EndSplineSet
EndChar

StartChar: w
Encoding: 119 119 88
Width: 1806
Flags: HW
LayerCount: 2
Fore
SplineSet
1365.68164062 0 m 1
 1149.73632812 0 l 1
 919.466796875 721.575195312 l 1
 806.100991939 484.034179688 720.258108943 253.243164062 630.094809951 16.7197265625 c 0
 623.720703125 0 l 1
 407.142578125 0 l 1
 43 1020 l 1
 295.272460938 1020 l 1
 523.239257812 304.655273438 l 1
 814.236328125 1020 l 1
 1036.18554688 1020 l 1
 1265.859375 310.452148438 l 1
 1371.15915921 544.528320312 1449.6673851 771.09765625 1529.66539683 1002.55175781 c 0
 1535.69628906 1020 l 1
 1783.36425781 1020 l 1
 1365.68164062 0 l 1
EndSplineSet
EndChar

StartChar: x
Encoding: 120 120 89
Width: 1149
Flags: W
HStem: 0 21G<39 326.994 868.541 1158.26> 1000 20G<57.959 350.587 869.159 1146.21>
LayerCount: 2
Fore
SplineSet
311.407226562 0 m 1
 39 0 l 1
 444.133373856 514.045898438 l 1
 57.958984375 1020 l 1
 335.8515625 1020 l 1
 601.476759728 659.481445312 l 1
 884.880859375 1020 l 1
 1146.21386719 1020 l 1
 762.673534208 517.635742188 l 1
 1158.26464844 0 l 1
 883.569335938 0 l 1
 602.709416794 373.76953125 l 1
 311.407226562 0 l 1
EndSplineSet
EndChar

StartChar: y
Encoding: 121 121 90
Width: 1140
Flags: W
HStem: -385 207<118.751 361.588> 1000 20G<24 288.172 882.417 1139.38>
LayerCount: 2
Fore
SplineSet
279.94140625 1020 m 1
 591.785995031 262.2109375 l 1
 890.295898438 1020 l 1
 1139.38476562 1020 l 1
 725.995617112 23.5283203125 l 1
 669.217716198 -243.706054688 493.233824011 -385 143.750976562 -385 c 0
 118.750976562 -385 l 1
 118.750976562 -178 l 1
 143.750976562 -178 l 0
 346.905731997 -178 455.091322135 -121.061523438 468.260205078 37.5244140625 c 1
 24 1020 l 1
 279.94140625 1020 l 1
EndSplineSet
EndChar

StartChar: z
Encoding: 122 122 91
Width: 1011
Flags: W
HStem: 0 193<350.465 958> 826 194<66 634.516>
LayerCount: 2
Fore
SplineSet
40 154.674804688 m 1
 634.516423545 826 l 1
 66 826 l 1
 66 1020 l 1
 942 1020 l 1
 942 869.182617188 l 1
 350.465439704 193 l 1
 958 193 l 1
 958 0 l 1
 40 0 l 1
 40 154.674804688 l 1
EndSplineSet
EndChar

StartChar: braceleft
Encoding: 123 123 92
Width: 733
Flags: HW
LayerCount: 2
Fore
SplineSet
665 1501 m 1
 665 1325 l 1
 640 1325 l 0
 502.041992188 1325 506 1273.66503906 506 1117.66796875 c 0
 506 907.30078125 l 0
 506 785.751953125 461.48046875 693.125 378.129882812 640.001953125 c 1
 462.7109375 586.521484375 506 493.547851562 506 372.69921875 c 0
 505.999023438 151.822265625 l 0
 505.999023438 147.138671875 505.99609375 142.549804688 505.99609375 138.053710938 c 0
 505.991210938 2.6064453125 506.66015625 -45 640 -45 c 0
 665 -45 l 1
 665 -221 l 1
 640 -221 l 0
 424.798828125 -221 282 -153.299804688 282 64.8251953125 c 0
 282 319.533203125 l 0
 282 448.706054688 272.123046875 547 174 547 c 0
 85 547 l 1
 85 733 l 1
 174 733 l 0
 272.130859375 733 282 831.28515625 282 960.466796875 c 0
 282 1215.17480469 l 0
 282 1433.2578125 424.9296875 1501 640 1501 c 0
 665 1501 l 1
EndSplineSet
EndChar

StartChar: bar
Encoding: 124 124 93
Width: 516
Flags: HW
LayerCount: 2
Fore
SplineSet
365 -280 m 1
 151 -280 l 1
 151 1489 l 1
 365 1489 l 1
 365 -280 l 1
EndSplineSet
EndChar

StartChar: braceright
Encoding: 125 125 94
Width: 733
Flags: HW
LayerCount: 2
Fore
SplineSet
68 -221 m 1
 68 -45 l 1
 93 -45 l 0
 230.958007812 -45 227 6.3349609375 227 162.33203125 c 0
 227 372.69921875 l 0
 227 494.248046875 271.51953125 586.875 354.870117188 639.998046875 c 1
 270.2890625 693.478515625 227 786.452148438 227 907.30078125 c 0
 227.000976562 1128.17773438 l 0
 227.000976562 1132.86132812 227.00390625 1137.45019531 227.00390625 1141.94628906 c 0
 227.008789062 1277.39355469 226.33984375 1325 93 1325 c 0
 68 1325 l 1
 68 1501 l 1
 93 1501 l 0
 308.201171875 1501 451 1433.29980469 451 1215.17480469 c 0
 451 960.466796875 l 0
 451 831.293945312 460.876953125 733 559 733 c 0
 648 733 l 1
 648 547 l 1
 559 547 l 0
 460.869140625 547 451 448.71484375 451 319.533203125 c 0
 451 64.8251953125 l 0
 451 -153.2578125 308.0703125 -221 93 -221 c 0
 68 -221 l 1
EndSplineSet
EndChar

StartChar: asciitilde
Encoding: 126 126 95
Width: 1485
Flags: HW
LayerCount: 2
Fore
SplineSet
503.188247327 526 m 0
 407.915039062 526 358.611328125 466.432617188 341.731445312 403.950195312 c 1
 335.399414062 373.287109375 l 1
 179 442.002929688 l 1
 182.717773438 458.994140625 l 0
 210.951171875 587.997070312 314.760742188 710 499.925520718 710 c 0
 676.778599923 710 810.392613052 616.313476562 931.729724233 579.126953125 c 0
 952.613953008 572.7265625 969.57755136 570 981.75125271 570 c 0
 1064.98730469 570 1109.6640625 638.584960938 1127.92773438 704.599609375 c 1
 1134.12890625 730.151367188 l 1
 1300.52246094 679.39453125 l 1
 1295.66601562 658.53125 l 0
 1263.76367188 521.482421875 1172.35546875 385 980.663677174 385 c 0
 776.347331049 385 673.440457492 526 503.188247327 526 c 0
EndSplineSet
EndChar

StartChar: dieresis
Encoding: 168 168 97
Width: 766
Flags: W
HStem: 1119 215<85 301 459 675>
VStem: 85 216<1119 1334> 459 216<1119 1334>
LayerCount: 2
Fore
SplineSet
675 1334 m 1
 675 1119 l 1
 459 1119 l 1
 459 1334 l 1
 675 1334 l 1
301 1334 m 1
 301 1119 l 1
 85 1119 l 1
 85 1334 l 1
 301 1334 l 1
EndSplineSet
EndChar

StartChar: ring
Encoding: 730 730 99
Width: 663
Flags: HW
LayerCount: 2
Fore
SplineSet
309 1395 m 0
 262.705078125 1395 229 1370.11914062 229 1340 c 0
 229 1306.58789062 257.354492188 1285 309 1285 c 0
 355.294921875 1285 389 1309.88085938 389 1340 c 0
 389 1371.2421875 356.7421875 1395 309 1395 c 0
310 1530 m 0
 434.540039062 1530 534 1452.08789062 534 1339.94042969 c 0
 534 1228.75878906 433.22265625 1149 311 1149 c 0
 186.014648438 1149 85 1225.92871094 85 1339.05957031 c 0
 85 1452.70703125 185.501953125 1530 310 1530 c 0
EndSplineSet
EndChar

StartChar: cedilla
Encoding: 184 184 101
Width: 585
Flags: W
HStem: -396 133<58.5716 310.967> -368.996 129.181<61.1744 224.824> -198 215<176.805 301.867>
VStem: 49 446.992<-336.627 -232.36>
LayerCount: 2
Fore
SplineSet
302.274414062 -78.7666015625 m 1xb0
 404.169921875 -83.94921875 495.9921875 -129.635742188 495.9921875 -233.5625 c 0
 495.9921875 -358.333007812 363.142578125 -396 242.9921875 -396 c 0xb0
 181.942382812 -396 122.870117188 -384.10546875 70.982421875 -373.493164062 c 0
 49 -368.99609375 l 1
 61.859375 -232.360351562 l 1
 90.326171875 -239.815429688 l 0x70
 136.26953125 -251.84765625 180.71875 -263 226.9921875 -263 c 0
 290.529296875 -263 310.9921875 -252.725585938 310.9921875 -230.850585938 c 0
 310.9921875 -207.055664062 289 -198 231.9921875 -198 c 0
 226.6640625 -198 209.776367188 -199.940429688 198.956054688 -200.924804688 c 1
 137.153320312 -205.044921875 l 1
 176.8046875 17 l 1
 319.3671875 17 l 1
 302.274414062 -78.7666015625 l 1xb0
EndSplineSet
EndChar

StartChar: acute
Encoding: 180 180 103
Width: 613
Flags: W
HStem: 1125 364
VStem: 149 553.188
LayerCount: 2
Fore
SplineSet
402.873046875 1489 m 1
 702.1875 1489 l 1
 347.4609375 1125 l 1
 149 1125 l 1
 402.873046875 1489 l 1
EndSplineSet
EndChar

StartChar: tilde
Encoding: 732 732 105
Width: 772
Flags: HW
LayerCount: 2
Fore
SplineSet
764.70703125 1425 m 1
 763.53125 1401.99121094 l 2
 757.619140625 1286.30371094 689.360351562 1187 538.556640625 1187 c 0
 384.725153622 1187 313.212571495 1245 212.556640625 1245 c 0
 171.11328125 1245 159.84375 1231.87890625 157.51171875 1205.54492188 c 0
 156.133789062 1190 l 1
 -10 1190 l 1
 -9.4375 1212.47851562 l 0
 -6.435546875 1332.35546875 69.595703125 1426 219.556640625 1426 c 0
 384.260503548 1426 439.736078101 1368 550.556640625 1368 c 0
 582.3984375 1368 591.82421875 1381.54199219 594.616210938 1409.43554688 c 0
 596.174804688 1425 l 1
 764.70703125 1425 l 1
EndSplineSet
EndChar

StartChar: circumflex
Encoding: 710 710 111
Width: 772
Flags: HW
LayerCount: 2
Fore
SplineSet
210.580078125 1116 m 1
 33 1116 l 1
 292.345916933 1488 l 1
 509.151195117 1488 l 1
 768.49609375 1116 l 1
 585.96875 1116 l 1
 396.98542762 1318.61816406 l 1
 210.580078125 1116 l 1
EndSplineSet
EndChar

StartChar: dotlessi
Encoding: 305 305 121
Width: 527
Flags: W
HStem: 0 21G<158 366> 1000 20G<158 366>
VStem: 158 208<0 1020>
LayerCount: 2
Fore
SplineSet
158 1020 m 1
 366 1020 l 1
 366 0 l 1
 158 0 l 1
 158 1020 l 1
EndSplineSet
EndChar

StartChar: otilde
Encoding: 245 245 130
Width: 1250
Flags: HW
LayerCount: 2
Fore
SplineSet
626.091174987 -23 m 0
 269.7265625 -23 75 196.981445312 75 508.134765625 c 0
 75 820.770507812 273.850585938 1045 630.453889175 1045 c 0
 989.58984375 1045 1175 823.327148438 1175 510.044921875 c 0
 1175 202.657226562 976.861328125 -23 626.091174987 -23 c 0
626.091174987 862 m 0
 401.370686207 862 289 706.286132812 289 506.26171875 c 0
 289 305.234375 404.13486379 158 630.453889175 158 c 0
 855.858472192 158 960 307.208984375 960 508.130859375 c 0
 960 714.390625 856.224844867 862 626.091174987 862 c 0
270.782226562 1153 m 1
 273.08984375 1180.12011719 l 2
 283.241210938 1299.39550781 351.03266922 1413 501.732970139 1413 c 0
 620.011771488 1413 677.727878856 1345 760.265983199 1345 c 0
 797.453306188 1345 817.649475807 1368.6640625 824.149860375 1413.3515625 c 0
 827.297289592 1435 l 1
 987.931640625 1435 l 1
 984.84765625 1407.23925781 l 0
 972.111328125 1292.62109375 913.228064482 1170 760.265983199 1170 c 0
 645.503962382 1170 582.694381235 1238 498.460438058 1238 c 0
 455.853976689 1238 436.861177483 1222.66503906 431.393387989 1175.33007812 c 0
 428.814878943 1153 l 1
 270.782226562 1153 l 1
EndSplineSet
EndChar

StartChar: dagger
Encoding: 8224 8224 135
Width: 1071
Flags: HW
LayerCount: 2
Fore
SplineSet
618.376078837 113 m 1
 420.967955423 113 l 1
 420.967955423 909 l 1
 101 909 l 1
 101 1091 l 1
 420.967955423 1091 l 1
 420.967955423 1451 l 1
 633.393831145 1451 l 1
 633.393831145 1091 l 1
 973 1091 l 1
 973 909 l 1
 618.376078837 909 l 1
 618.376078837 113 l 1
EndSplineSet
EndChar

StartChar: degree
Encoding: 176 176 136
Width: 862
Flags: HW
LayerCount: 2
Fore
SplineSet
423 1278 m 0
 325.83984375 1278 259 1224.68359375 259 1150.76171875 c 0
 259 1074.90429688 325.439453125 1021 423 1021 c 0
 522.015625 1021 588 1074.81835938 588 1150.76171875 c 0
 588 1225.45800781 520.434570312 1278 423 1278 c 0
90 1149.95996094 m 0
 90 1320.41894531 236.01953125 1444 423 1444 c 0
 611.37890625 1444 756 1320.06738281 756 1149.95996094 c 0
 756 979.971679688 609.31640625 855 423 855 c 0
 236.049804688 855 90 981.284179688 90 1149.95996094 c 0
EndSplineSet
EndChar

StartChar: cent
Encoding: 162 162 137
Width: 1229
Flags: HW
LayerCount: 2
Fore
SplineSet
747.015475917 -255 m 1
 552.314426804 -255 l 1
 568.420443548 -18.640625 l 1
 300.573242188 29.2900390625 161 228.90234375 161 503 c 0
 161 799.524414062 325.684570312 1028.40527344 641.533506217 1055.15625 c 1
 656.347564425 1261 l 1
 850.578125 1261 l 1
 835.942790526 1046.76757812 l 1
 942.1640625 1025.95703125 1024.78613281 980.09375 1077.28125 909.2265625 c 0
 1087.41992188 895.5390625 l 1
 987.607421875 749.944335938 l 1
 966.305664062 776.453125 l 0
 931.584960938 819.66015625 884.79296875 850.68359375 823.406895863 867.456054688 c 1
 774.16558988 148.176757812 l 1
 863.432617188 157.739257812 936.056640625 191.522460938 1004.16210938 251.90234375 c 0
 1032.92773438 277.40625 l 1
 1094.015625 91.9638671875 l 1
 1080.78125 81.484375 l 0
 999.081054688 16.7822265625 900.006835938 -20.904296875 761.779574398 -28.4697265625 c 1
 747.015475917 -255 l 1
376 508 m 0
 376 328.155273438 442.911617741 203.176757812 581.054259275 155.526367188 c 1
 628.797772647 880.685546875 l 1
 462.655701794 839.969726562 376 697.640625 376 508 c 0
EndSplineSet
EndChar

StartChar: sterling
Encoding: 163 163 138
Width: 1229
Flags: HW
LayerCount: 2
Fore
SplineSet
140.465820312 0 m 1
 107.620117188 160.512695312 l 1
 125.70703125 168.420898438 l 0
 238.837890625 217.887695312 286 280.9765625 286 441.685546875 c 0
 286 632 l 1
 100 632 l 1
 100 814 l 1
 286 814 l 1
 286 903.450195312 l 0
 286 1232.00390625 386.473048823 1472 778.246409981 1472 c 0
 970.516601562 1472 1089.19921875 1396.46777344 1164.45507812 1289.37402344 c 0
 1175.90527344 1273.078125 l 1
 1054.95507812 1138.69042969 l 1
 1036.32226562 1157.32226562 l 0
 972.43359375 1221.2109375 900.99135252 1271 778.246409981 1271 c 0
 592.783710013 1271 524.861662402 1157.60449219 524.861662402 983.6640625 c 0
 524.861662402 814 l 1
 945 814 l 1
 945 632 l 1
 525.95657034 632 l 1
 525.95657034 498.77734375 l 0
 525.95657034 379.388671875 510.382448806 273.07421875 452.528188979 197.717773438 c 1
 468.116220414 198.599609375 481.459789932 199 497.869499103 199 c 0
 1160 199 l 1
 1160 0 l 1
 140.465820312 0 l 1
EndSplineSet
EndChar

StartChar: section
Encoding: 167 167 139
Width: 1142
Flags: HW
LayerCount: 2
Fore
SplineSet
199.73046875 218.067382812 m 1
 235.922851562 200.487304688 l 2
 310.881835938 164.078125 383.991210938 139 488.887394069 139 c 0
 626.539066169 139 729 178.501953125 729 263.264648438 c 0
 729 345.580078125 614.86741863 372.349609375 509.81652759 409.787109375 c 1
 414.932617188 444.551757812 l 1
 414.828125 444.596679688 l 0
 300.307617188 493.920898438 176 574.706054688 176 731.95703125 c 0
 176 852.455078125 255.5078125 925.20703125 332.911132812 971.25 c 1
 264.333007812 1021.05664062 210 1088.65527344 210 1202.57714844 c 0
 210 1410.69140625 398.064453125 1493 633.976583561 1493 c 0
 740.298828125 1493 801.868164062 1473.55175781 872.650390625 1450.80078125 c 0
 889.754882812 1445.30273438 l 1
 892.541992188 1239.07226562 l 1
 856.213867188 1256.44628906 l 0
 801.924804688 1282.41015625 728.23828125 1306 640.021587507 1306 c 0
 510.755312054 1306 423.043133435 1278.51855469 423.043133435 1200.05859375 c 0
 423.043133435 1136.44335938 469.703449751 1108.55078125 536.559253171 1077.5 c 0
 684.732587104 1008.68359375 965 952.673828125 965 733.294921875 c 0
 965 613.333984375 884.0859375 537.5078125 811.290039062 487.125976562 c 1
 883.426757812 443.116210938 944 377.948242188 944 265.567382812 c 0
 944 51.109375 741.791015625 -48 494.932398015 -48 c 0
 381.805664062 -48 291.276367188 -26.5322265625 216.059570312 6.060546875 c 0
 201.110351562 12.5390625 l 1
 199.73046875 218.067382812 l 1
510.222761556 883.495117188 m 1
 444.541196616 850.20703125 394 809.345703125 394 741 c 0
 394 648.036132812 507.268975777 613.19140625 616.632818479 575.088867188 c 1
 685.433896488 612.631835938 746 655.796875 746 723 c 0
 746 817.338867188 619.226854776 838.043945312 510.222761556 883.495117188 c 1
EndSplineSet
EndChar

StartChar: bullet
Encoding: 8226 8226 140
Width: 1039
Flags: HW
LayerCount: 2
Fore
SplineSet
517.479449305 335 m 0
 300.259765625 335 149 475.895507812 149 669 c 0
 149 863.491210938 306.06640625 1010 523.780826043 1010 c 0
 740.041992188 1010 891 868.60546875 891 676 c 0
 891 480.46875 736.217773438 335 517.479449305 335 c 0
EndSplineSet
EndChar

StartChar: paragraph
Encoding: 182 182 141
Width: 1253
Flags: HW
LayerCount: 2
Fore
SplineSet
635.695541311 -148 m 1
 428.991198674 -148 l 1
 428.991198674 758.625976562 l 1
 226.502929688 773.09375 101 922.391601562 101 1115.42089844 c 0
 101 1388.63964844 359.12002508 1451 648.549817294 1451 c 0
 1058 1451 l 1
 1058 1277 l 1
 976 1277 l 1
 976 -148 l 1
 802.797137086 -148 l 1
 802.797137086 1277 l 1
 635.695541311 1277 l 1
 635.695541311 -148 l 1
EndSplineSet
EndChar

StartChar: germandbls
Encoding: 223 223 142
Width: 1343
Flags: HW
LayerCount: 2
Fore
SplineSet
840.391762395 780.915039062 m 1
 998.176228529 693.518554688 1185.36621094 616.090820312 1263.30957031 448.428710938 c 0
 1279.83886719 412.873046875 1288 374.029296875 1288 332.649414062 c 0
 1288 102.497070312 1118.58398438 -25 872.566161124 -25 c 0
 730.805873462 -25 597.715672703 12.1884765625 513.116823371 74.376953125 c 0
 496.485262437 86.603515625 l 1
 505.395523451 104.513671875 l 0
 528.443305976 150.840820312 549.545876697 194.858398438 571.516845544 241.963867188 c 0
 583.960246367 268.64453125 l 1
 610.422074101 253.171875 l 0
 675.673013157 215.017578125 764.095791614 177 857.329991924 177 c 0
 971.661800679 177 1034.8821768 236.0546875 1034.8821768 335.51171875 c 0
 1034.8821768 385.162109375 1005.33976874 423.459960938 971.487128599 456.080078125 c 0
 892.888662212 531.815429688 768.184706225 582.764648438 660.984679119 645.172851562 c 1
 621.854163276 667.59765625 570.381477021 707.399414062 570.381477021 768.868164062 c 0
 570.381477021 822.943359375 609.211278998 859.360351562 644.650854686 884.505859375 c 1
 736.390417762 950.479492188 858.777983773 1012.84765625 858.777983773 1130 c 0
 858.777983773 1226.62597656 774.229749646 1278 655.996600276 1278 c 0
 475.966255259 1278 409 1166.71386719 409 996.180664062 c 0
 409 0 l 1
 172 0 l 1
 172 1006.16894531 l 0
 172 1300.58691406 340.681640625 1473 657.084330959 1473 c 0
 901.144895379 1473 1110 1366.0390625 1110 1131 c 0
 1110 952.104492188 951.01178944 853.99609375 840.391762395 780.915039062 c 1
EndSplineSet
EndChar

StartChar: registered
Encoding: 174 174 143
Width: 1838
Flags: HW
LayerCount: 2
Fore
SplineSet
915.882955913 1473 m 0
 1157.41563022 1473 1344.82298497 1393.61230469 1479.29530226 1285.71289062 c 1
 1623.85449219 1164.31445312 1726 980.845703125 1726 725 c 0
 1726 388.030273438 1556.03027344 171.622070312 1313.59680117 59.2802734375 c 0
 1205.16683148 9.7763671875 1072.47205467 -23 921.117044087 -23 c 0
 679.568604454 -23 492.238105667 56.337890625 357.704697737 164.287109375 c 1
 212.780273438 285.9921875 111 469.3671875 111 725.966796875 c 0
 111 1063.32421875 280.79296875 1278.29394531 523.403198825 1390.71972656 c 0
 632.308098961 1440.44140625 763.594835105 1473 915.882955913 1473 c 0
1358.18212794 268.3046875 m 0
 1477.46061247 374.827148438 1542 532.274414062 1542 722 c 0
 1542 1076.57128906 1301.61515355 1313 916.929379415 1313 c 0
 531.727290861 1313 294 1078.78417969 294 726.951171875 c 0
 294 371.3984375 534.8645907 138 921.117044087 138 c 0
 1091.93533474 138 1234.21148831 185.232421875 1339.80271403 267.548828125 c 1
 1140.34276768 267.548828125 l 1
 1012.5657872 482.044921875 l 0
 966.470930488 558.436523438 921.207694711 611.350585938 882.098848002 640 c 1
 782.732955324 640 l 1
 782.732955324 253 l 1
 584.195280541 253 l 1
 584.195280541 1211 l 1
 878.192988529 1211 l 0
 1111.67155201 1211 1328.18366889 1153.2265625 1328.18366889 933 c 0
 1328.18366889 779.60546875 1220.56561348 695.389648438 1087.50626351 665.903320312 c 1
 1195.68497333 560.333007812 1263.53893568 416.293945312 1343.20802441 291.05078125 c 0
 1351.31041655 278.313476562 l 0
782.732955324 807 m 1
 877.146565027 807 l 2
 1025.1790332 807 1124.41190594 819.66015625 1124.41190594 927 c 0
 1124.41190594 1042.60546875 1028.59616757 1043 868.771235683 1043 c 0
 782.732955324 1043 l 1
 782.732955324 807 l 1
EndSplineSet
EndChar

StartChar: copyright
Encoding: 169 169 144
Width: 1838
Flags: HW
LayerCount: 2
Fore
SplineSet
1198.76965726 966.569335938 m 0
 1138.13691823 1020.06835938 1059.63671274 1055 948.500007423 1055 c 0
 756.560699779 1055 644.929427401 920.956054688 644.929427401 733 c 0
 644.929427401 530.235351562 764.522047175 405 975.700210399 405 c 0
 1071.53489273 405 1140.94570444 433.579101562 1195.09981206 478.873046875 c 0
 1225.20830578 504.0546875 l 1
 1281.09635368 329.34765625 l 1
 1266.18249687 318.831054688 l 0
 1176.26587094 255.42578125 1068.13499051 224 944.314906106 224 c 0
 640.398523222 224 441.302771142 442.098632812 441.302771142 729 c 0
 441.302771142 1027.06054688 642.738357409 1233 954.776674204 1233 c 0
 1074.72297839 1233 1179.19682114 1196.47070312 1264.87218973 1123.75292969 c 0
 1276.74672508 1113.67578125 l 1
 1230.86528595 938.249023438 l 1
 1198.76965726 966.569335938 l 0
912.930587006 1316 m 0
 713.02796158 1316 557.127026384 1241.67871094 451.925125755 1146.28417969 c 0
 347.272963011 1051.19628906 268 909.020507812 268 726.939453125 c 0
 268 538.0078125 345.927188906 401.49609375 451.870940121 305.723632812 c 0
 559.119087321 209.01171875 709.21624854 135 917.115688323 135 c 0
 1116.39764194 135 1274.03744339 210.198242188 1378.01179311 305.576171875 c 0
 1481.74280008 400.92578125 1560 542.326171875 1560 724.060546875 c 0
 1560 912.846679688 1482.01175786 1049.20898438 1376.52710675 1145.34863281 c 0
 1270.20898206 1242.04003906 1120.16600648 1316 912.930587006 1316 c 0
1731 725.015625 m 0
 1731 487.317382812 1625.08105469 312.916992188 1498.5390625 191.3125 c 1
 1366.02100495 68.96484375 1175.63337682 -32 918.161963652 -32 c 0
 659.00882545 -32 463.746460664 68.259765625 330.4609375 191.3125 c 1
 203.279296875 313.53125 98 487.674804688 98 725.984375 c 0
 98 1114.59277344 366.607382346 1369.44921875 694.6028757 1455.48144531 c 0
 764.602833029 1473.84277344 837.458865856 1483 912.930587006 1483 c 0
 1335.78936206 1483 1611.93066406 1230.45214844 1702.5234375 924.357421875 c 0
 1721.51660156 860.184570312 1731 793.65625 1731 725.015625 c 0
EndSplineSet
EndChar

StartChar: trademark
Encoding: 8482 8482 145
Width: 1876
Flags: HW
LayerCount: 2
Fore
SplineSet
799.677645505 686 m 1
 799.677645505 1451 l 1
 1031.42435324 1451 l 1
 1250.08884775 939.305664062 l 1
 1478.578125 1451 l 1
 1691 1451 l 1
 1691 686 l 1
 1525 686 l 1
 1525 1186.83496094 l 1
 1299.93682909 686 l 1
 1186.12807666 686 l 1
 971.973093368 1180.12988281 l 1
 971.973093368 686 l 1
 799.677645505 686 l 1
66 1300 m 1
 66 1451 l 1
 739.651982081 1451 l 1
 739.651982081 1300 l 1
 481.167429584 1300 l 1
 481.167429584 686 l 1
 307 686 l 1
 307 1300 l 1
 66 1300 l 1
EndSplineSet
EndChar

StartChar: notequal
Encoding: 8800 8800 146
Width: 1383
Flags: HW
LayerCount: 2
Fore
SplineSet
731.15750093 874 m 1
 874.825478266 1125.4296875 l 1
 1053.11621094 1101.9609375 l 1
 931.064593403 874 l 1
 1212.94726562 874 l 1
 1227.08007812 703 l 1
 844.577653417 703 l 1
 717.428090433 470 l 1
 1214.12304688 470 l 1
 1226.87304688 300 l 1
 629.028491943 300 l 1
 482.045902259 43.5263671875 l 1
 307.858398438 67.1484375 l 1
 430.348481679 300 l 1
 164.540039062 300 l 1
 153.206054688 470 l 1
 519.916540636 470 l 1
 645.262739889 703 l 1
 164.719726562 703 l 1
 152 874 l 1
 731.15750093 874 l 1
EndSplineSet
EndChar

StartChar: AE
Encoding: 198 198 147
Width: 2026
Flags: HW
LayerCount: 2
Fore
SplineSet
1044.14414646 571 m 1
 988.955550272 1258 l 1
 979.335384405 1258 l 1
 576.561993443 571 l 1
 1044.14414646 571 l 1
247.974609375 0 m 1
 5 0 l 1
 842.080341575 1456 l 1
 1901.17773438 1456 l 1
 1901.17773438 1258 l 1
 1203.36566085 1258 l 1
 1236.82479836 845 l 1
 1862.17773438 845 l 1
 1862.17773438 647 l 1
 1259.35970744 647 l 1
 1295.89607854 198 l 1
 1923.17773438 198 l 1
 1923.17773438 0 l 1
 1097.8231378 0 l 1
 1066.72429452 373 l 1
 470.405793898 373 l 1
 247.974609375 0 l 1
EndSplineSet
EndChar

StartChar: Oslash
Encoding: 216 216 148
Width: 1698
Flags: HW
LayerCount: 2
Fore
SplineSet
1323.73595183 1569.29003906 m 1
 1245.21301365 1388.68945312 l 1
 1476.27539062 1266.04785156 1597 1026.48828125 1597 723.586914062 c 0
 1597 281.486328125 1331.49187609 -23 849 -23 c 0
 774.6593229 -23 704.236556416 -15.3505859375 640.606018661 -1.314453125 c 1
 568.082257813 -173.377929688 l 1
 397.586071992 -117.051757812 l 1
 470.718430738 52.111328125 l 1
 228.520507812 170.62890625 101 412.508789062 101 720.627929688 c 0
 101 1166.109375 364.286790898 1473 849 1473 c 0
 929.894201304 1473 1006.1553648 1463.89355469 1074.19305881 1447.31738281 c 1
 1148.72608046 1625.1640625 l 1
 1323.73595183 1569.29003906 l 1
356.092912879 705 m 0
 356.092912879 491.302734375 423.3148687 318.338867188 560.967482063 222.676757812 c 1
 988.420210499 1242.6484375 l 1
 944.560720175 1252.97460938 899.620154817 1258 849 1258 c 0
 515.548521275 1258 356.092912879 1029.46582031 356.092912879 705 c 0
849 192 m 0
 1185.09005146 192 1341.90708712 426.713867188 1341.90708712 755 c 0
 1341.90708712 956.811523438 1279.16133432 1120.80566406 1153.81581329 1216.28027344 c 1
 727.002260604 203.662109375 l 1
 765.746372162 195.819335938 805.164182852 192 849 192 c 0
EndSplineSet
EndChar

StartChar: infinity
Encoding: 8734 8734 149
Width: 1738
Flags: HW
LayerCount: 2
Fore
SplineSet
1457 614.989257812 m 0
 1457 711.6171875 1380.43488237 779 1263.98702004 779 c 0
 1125.2837791 779 1032.87673396 676.356445312 967.213803978 592.599609375 c 1
 1043.42077907 502.825195312 1123.87396288 405 1268.18689214 405 c 0
 1402.55078125 405 1457 489.9140625 1457 614.989257812 c 0
264 592 m 0
 264 485.211914062 345.090495612 405 470.163869925 405 c 0
 610.076792337 405 697.231039689 505.276367188 766.169081204 589.706054688 c 1
 695.804463413 680.494140625 609.051471448 779 460.713171806 779 c 0
 333.833984375 779 264 702.25 264 592 c 0
462.813107858 944 m 0
 662.567306551 944 782.983357901 818.106445312 868.164848426 709.124023438 c 1
 953.692384752 818.8828125 1067.46652569 944 1267.13692412 944 c 0
 1497.140625 944 1640 802.528320312 1640 594.666992188 c 0
 1640 390.74609375 1489.30761719 236 1266.08695609 236 c 0
 1074.09463371 236 961.448345747 353.845703125 867.109950973 471.599609375 c 1
 780.331325986 362.676757812 664.837800789 236 468.062947987 236 c 0
 234.388671875 236 91 402.87890625 91 610.533203125 c 0
 91 802.149414062 255.178710938 944 462.813107858 944 c 0
EndSplineSet
EndChar

StartChar: plusminus
Encoding: 177 177 150
Width: 1485
Flags: HW
LayerCount: 2
Fore
SplineSet
1288.26855469 188 m 1
 1288.26855469 0 l 1
 192.268554688 0 l 1
 192.268554688 188 l 1
 1288.26855469 188 l 1
194.34765625 570 m 1
 178 758 l 1
 631.237952488 758 l 1
 631.237952488 1107 l 1
 839.646213741 1107 l 1
 839.646213741 758 l 1
 1284.26855469 758 l 1
 1284.26855469 570 l 1
 844.002755473 570 l 1
 844.002755473 198 l 1
 633.416719656 198 l 1
 633.416719656 570 l 1
 194.34765625 570 l 1
EndSplineSet
EndChar

StartChar: lessequal
Encoding: 8804 8804 151
Width: 1383
Flags: HW
LayerCount: 2
Fore
SplineSet
1189 181 m 1
 1216 181 l 1
 1216 9 l 1
 153 9 l 1
 153 181 l 1
 1146.65722656 181 l 1
 187 631.206054688 l 1
 187 741.87109375 l 1
 1189 1235.14257812 l 1
 1189 1040.34375 l 1
 437.485248041 690.663085938 l 1
 1189 356.145507812 l 1
 1189 181 l 1
EndSplineSet
EndChar

StartChar: greaterequal
Encoding: 8805 8805 152
Width: 1382
Flags: HW
LayerCount: 2
Fore
SplineSet
941.423032763 688.069335938 m 1
 186 1042.40234375 l 1
 186 1237.05859375 l 1
 1194 742.90234375 l 1
 1194 633.120117188 l 1
 220.162109375 181 l 1
 1212 181 l 1
 1212 9 l 1
 153 9 l 1
 153 181 l 1
 182 181 l 1
 182 358.290039062 l 1
 941.423032763 688.069335938 l 1
EndSplineSet
EndChar

StartChar: yen
Encoding: 165 165 153
Width: 1229
Flags: HW
LayerCount: 2
Fore
SplineSet
1186.44140625 258 m 1
 765.44140625 258 l 1
 765.44140625 0 l 1
 551.44140625 0 l 1
 551.44140625 258 l 1
 124.1640625 258 l 1
 110.591796875 448 l 1
 547.654627693 448 l 1
 517.636186281 549 l 1
 116.44140625 549 l 1
 116.44140625 741 l 1
 460.427079218 741 l 1
 24 1420 l 1
 278.128131575 1420 l 1
 285.514200214 1407.35546875 l 1
 403.475429971 1212.92089844 526.657112049 1017.68457031 641.530828464 822.12109375 c 1
 1003.94140625 1420 l 1
 1240.43359375 1420 l 1
 793.248738731 741 l 1
 1133.44140625 741 l 1
 1133.44140625 549 l 1
 745.78143932 549 l 1
 761.854492188 448 l 1
 1186.44140625 448 l 1
 1186.44140625 258 l 1
EndSplineSet
EndChar

StartChar: partialdiff
Encoding: 8706 8706 154
Width: 1209
Flags: HW
LayerCount: 2
Fore
SplineSet
890.497070312 659.088867188 m 1
 853.174240921 758.301757812 770.91250921 844 630.900561145 844 c 0
 411.628778595 844 289 641.774414062 289 432.048828125 c 0
 289 278.412109375 356.318474069 161 511.908856315 161 c 0
 627.849925362 161 706.118079418 229.862304688 761.430373273 304.555664062 c 0
 827.963476476 394.40234375 873.165006479 522.750976562 890.497070312 659.088867188 c 1
607.76367202 1027 m 0
 742.222408616 1027 840.736956986 973.087890625 907.973632812 904.522460938 c 1
 908 908.2578125 908 908.729492188 908 911 c 0
 908 1146.5234375 828.222089225 1349 585.72787641 1349 c 0
 482.109704889 1349 381.188068618 1301.92773438 315.40625 1258.56835938 c 1
 279.271484375 1232.9453125 l 1
 265.041992188 1429.32519531 l 1
 276.6640625 1437.48144531 l 1
 354.117281702 1490.078125 474.405034275 1533 609.966853715 1533 c 0
 1014.33984375 1533 1120 1206.21777344 1120 848.951171875 c 0
 1120 539.541015625 1035.84179688 271 869.217183387 109.919921875 c 1
 784.846763101 35.73828125 668.6192307 -24 508.60358644 -24 c 0
 217.083007812 -24 79 173.634765625 79 434.115234375 c 0
 79 742.116210938 262.45703125 1027 607.76367202 1027 c 0
EndSplineSet
EndChar

StartChar: summation
Encoding: 8721 8721 155
Width: 1301
Flags: HW
LayerCount: 2
Fore
SplineSet
358.802132679 -131 m 1
 1259 -131 l 1
 1259 -329 l 1
 54 -329 l 1
 54 -208.715820312 l 1
 682.642779412 551.978515625 l 1
 75 1297.95996094 l 1
 75 1423 l 1
 1216 1423 l 1
 1216 1231 l 1
 389.288010698 1231 l 1
 955.520110569 560.451171875 l 1
 358.802132679 -131 l 1
EndSplineSet
EndChar

StartChar: product
Encoding: 8719 8719 156
Width: 1589
Flags: HW
LayerCount: 2
Fore
SplineSet
104 1423 m 1
 1488.43945312 1423 l 1
 1468.26757812 1228 l 1
 1362.71972656 1228 l 1
 1362.71972656 -329 l 1
 1138.29879161 -329 l 1
 1138.29879161 1228 l 1
 462.620393512 1228 l 1
 462.620393512 -329 l 1
 240.719726562 -329 l 1
 240.719726562 1228 l 1
 124.171875 1228 l 1
 104 1423 l 1
EndSplineSet
EndChar

StartChar: integral
Encoding: 8747 8747 157
Width: 767
Flags: HW
LayerCount: 2
Fore
SplineSet
116 -186.099609375 m 1
 151.291992188 -200.958984375 l 2
 169.96484375 -208.821289062 211.748046875 -214 245.590820312 -214 c 0
 356.580078125 -214 376.220428402 -154.370117188 376.220428402 -27.1708984375 c 0
 376.220428402 1240.47460938 l 0
 376.220428402 1455.65820312 465.595720763 1631 732.590820312 1631 c 0
 788.571289062 1631 826.950195312 1618.83300781 867.317382812 1609.3359375 c 0
 886.28515625 1604.87207031 l 1
 889.181640625 1418.09960938 l 1
 853.888671875 1432.95898438 l 0
 835.216796875 1440.82128906 793.432617188 1446 759.590820312 1446 c 0
 647.565429688 1446 626.512962437 1386.79003906 626.512962437 1259.17089844 c 0
 626.512962437 -8.474609375 l 0
 626.512962437 -223.424804688 539.567694677 -399 272.590820312 -399 c 0
 218.303710938 -399 177.298828125 -388.973632812 136.536132812 -376.984375 c 0
 118.87890625 -371.790039062 l 1
 116 -186.099609375 l 1
EndSplineSet
EndChar

StartChar: ordfeminine
Encoding: 170 170 158
Width: 757
Flags: HW
LayerCount: 2
Fore
SplineSet
326 718 m 0
 182.11328125 718 62 799.087890625 62 950 c 0
 62 1194.54296875 324.541015625 1186.37695312 508.563476562 1207.98925781 c 1
 504.719726562 1296.53417969 485.622070312 1319 393 1319 c 0
 300.099609375 1319 249.619140625 1290.28613281 215.029296875 1236.48046875 c 0
 196.830078125 1208.16992188 l 1
 99.7626953125 1321.91992188 l 1
 108.1015625 1337.06054688 l 0
 161.489257812 1434.00097656 265.514648438 1477 399 1477 c 0
 568.674804688 1477 685 1386.30175781 685 1209.90625 c 0
 683 888.9375 l 0
 683 846.3828125 685.063476562 823.215820312 689.918945312 763.008789062 c 0
 692.096679688 736 l 1
 516.631835938 736 l 1
 513.80859375 777.798828125 l 1
 465.736328125 739.5859375 403.322265625 718 326 718 c 0
346 871 m 0
 453.546875 871 501.331054688 944.66796875 508.694335938 1055.3203125 c 1
 376.764648438 1036.76855469 241 1044.72753906 241 952 c 0
 241 894.594726562 277.13671875 871 346 871 c 0
EndSplineSet
EndChar

StartChar: ordmasculine
Encoding: 186 186 159
Width: 883
Flags: HW
LayerCount: 2
Fore
SplineSet
835 1096 m 0
 835 872.548828125 695.877929688 717 445.532023726 717 c 0
 187.384765625 717 50 869.982421875 50 1099 c 0
 50 1323.16015625 193.44921875 1476 444.318809831 1476 c 0
 698.655273438 1476 835 1321.94726562 835 1096 c 0
233 1098 m 0
 233 963.614257812 294.041992188 875 445.532023726 875 c 0
 590.899414062 875 654 965.365234375 654 1094 c 0
 654 1227.63867188 591.313476562 1319 441.893393052 1319 c 0
 297.091259607 1319 233 1226.24609375 233 1098 c 0
EndSplineSet
EndChar

StartChar: ae
Encoding: 230 230 160
Width: 1816
Flags: HW
LayerCount: 2
Fore
SplineSet
1234.99430387 -25 m 0
 1054.85350074 -25 928.411801005 61.4990234375 857.454347418 173.341796875 c 1
 773.751644583 59.8544921875 641.420550091 -28 449.398498912 -28 c 0
 233.625 -28 77 85.2626953125 77 289.485351562 c 0
 77 613.131835938 429.265398995 628.014648438 750.726061726 628.7265625 c 1
 747.295671537 772.65234375 691.598626919 867 547.729126369 867 c 0
 406.722553414 867 324.429640459 817.1640625 272.768554688 725.70703125 c 0
 255.916015625 695.862304688 l 1
 134.715820312 826.926757812 l 1
 142.8125 842.51953125 l 0
 213.484375 978.629882812 352.092456693 1053 557.143488416 1053 c 0
 699.806145779 1053 833.665251524 992.962890625 889.647997794 887.1640625 c 1
 961.720673005 983.928710938 1073.62804004 1053 1233.94804472 1053 c 0
 1573.94921875 1053 1712 828.532226562 1712 521.321289062 c 0
 1712 454 l 1
 972.307397007 454 l 1
 975.186087453 267.797851562 1050.19360826 154.067382812 1245.45492508 154.067382812 c 0
 1390.90957721 154.067382812 1493.32324219 225.451171875 1551.94824219 313.154296875 c 0
 1568.94238281 338.579101562 l 1
 1686.94140625 222.380859375 l 1
 1677.80175781 206.7734375 l 0
 1596.59472656 68.091796875 1457.24950098 -25 1234.99430387 -25 c 0
752.555537482 478.450195312 m 1
 634.152891152 476.006835938 l 1
 449.12264904 470.954101562 287 458.375976562 287 315 c 0
 287 207.44921875 360.194561494 159 481.826621679 159 c 0
 676.718496701 159 746.488810662 287.3359375 752.555537482 478.450195312 c 1
1252.77775399 867 m 0
 1090.93958984 867 999.605697339 768.4921875 977.572188843 641 c 1
 1494.84960938 641 l 1
 1474.4375 776.986328125 1416.44834943 867 1252.77775399 867 c 0
EndSplineSet
EndChar

StartChar: oslash
Encoding: 248 248 161
Width: 1248
Flags: HW
LayerCount: 2
Fore
SplineSet
1035.171875 1235.40722656 m 1
 932.360351562 988.740234375 l 1
 1083.95117188 900.375976562 1173 737.639648438 1173 516.608398438 c 0
 1173 205.806640625 977.442382812 -23 625.091235116 -23 c 0
 573.289837489 -23 521.359358366 -17.3984375 475.221659648 -7.5380859375 c 1
 359.906207956 -267.208007812 l 1
 215.869140625 -219.157226562 l 1
 323.881548051 37.7978515625 l 1
 170.774414062 124.955078125 75 284.859375 75 507.3515625 c 0
 75 823.7421875 271.283203125 1051 629.456175579 1051 c 0
 681.198990065 1051 733.306211545 1045.37109375 779.234401064 1035.55859375 c 1
 887.90910621 1283.03222656 l 1
 1035.171875 1235.40722656 l 1
405.641768165 186.013671875 m 1
 701.921534984 859.752929688 l 1
 675.734871009 864.831054688 654.697565824 867 625.091235116 867 c 0
 400.255098007 867 290 699.645507812 290 484 c 0
 290 350.220703125 333.458402183 249.103515625 405.641768165 186.013671875 c 1
848.433005664 838.06640625 m 1
 551.503859622 166.052734375 l 1
 577.57633612 161.063476562 601.186334831 159 629.456175579 159 c 0
 853.590307932 159 957 320.453125 957 536 c 0
 957 667.678710938 917.64352548 773.352539062 848.433005664 838.06640625 c 1
EndSplineSet
EndChar

StartChar: exclamdown
Encoding: 161 161 164
Width: 750
Flags: HW
LayerCount: 2
Fore
SplineSet
500 834 m 1
 247 834 l 1
 247 1090 l 1
 500 1090 l 1
 500 834 l 1
295 744 m 1
 492 744 l 1
 492 -384 l 1
 295 -384 l 1
 295 744 l 1
EndSplineSet
EndChar

StartChar: logicalnot
Encoding: 172 172 165
Width: 1485
Flags: HW
LayerCount: 2
Fore
SplineSet
1285 798 m 1
 1285 238 l 1
 1093 238 l 1
 1093 609 l 1
 190 609 l 1
 190 798 l 1
 1285 798 l 1
EndSplineSet
EndChar

StartChar: radical
Encoding: 8730 8730 166
Width: 1348
Flags: HW
LayerCount: 2
Fore
SplineSet
1261.98925781 1596 m 1
 789.65332578 -153 l 1
 612.361367321 -153 l 1
 277.709960938 661.89453125 l 1
 109.321289062 633.14453125 l 1
 82 794.196289062 l 1
 413.948170236 853.366210938 l 1
 656.011002256 230.545898438 l 1
 686.040936352 142.322265625 l 1
 811.673361602 637.693359375 956.447095162 1109.86132812 1082.53515625 1596 c 0
 1083.5 1596 l 1
 1261.98925781 1596 l 1
EndSplineSet
EndChar

StartChar: florin
Encoding: 402 402 167
Width: 1231
Flags: HW
LayerCount: 2
Fore
SplineSet
1060.79296875 1411.10351562 m 1
 1049.72070312 1210.41894531 l 1
 1017.14257812 1223.89941406 l 0
 986.94921875 1236.39355469 958.561523438 1244 922.700195312 1244 c 0
 826.290039062 1244 795.983475837 1199.52929688 779.780690702 1109.77734375 c 1
 747.606304082 948.760742188 l 1
 941.560546875 948.760742188 l 1
 927.96875 764.875 l 1
 713.322366655 764.875 l 1
 582.686664142 124.734375 l 0
 540.774662741 -77.654296875 482.939887437 -332 194.700195312 -332 c 0
 163.548828125 -332 128.462890625 -326.162109375 88.9443359375 -315.069335938 c 0
 69 -309.471679688 l 1
 85.6865234375 -117.573242188 l 1
 116.7890625 -129.709960938 l 0
 142.036132812 -139.5625 163.756835938 -144 181.700195312 -144 c 0
 267.065429688 -144 296.924804688 -57.9140625 319.905590023 30.689453125 c 1
 384.524409682 263.426757812 425.119062869 520.711914062 476.085092914 765.397460938 c 1
 314.814567313 765.397460938 l 1
 329.949124548 948.227539062 l 1
 510.708830448 948.227539062 l 1
 529.763544922 1072.36914062 l 0
 558.575803802 1265.05078125 650.358702353 1436 898.700195312 1436 c 0
 949.228515625 1436 998.732421875 1427.06152344 1040.92578125 1416.21289062 c 0
 1060.79296875 1411.10351562 l 1
EndSplineSet
EndChar

StartChar: approxequal
Encoding: 8776 8776 168
Width: 1384
Flags: HW
LayerCount: 2
Fore
SplineSet
464.577849972 571 m 0
 626.103091538 571 750.335478443 488.094726562 848.418278124 445.314453125 c 0
 880.580919829 431.286132812 909.109908958 425 934.256492873 425 c 0
 1016.32324219 425 1049.56640625 491.016601562 1079.10351562 574.3515625 c 0
 1086.8125 596.1015625 l 1
 1237.01464844 556.047851562 l 1
 1232.13085938 532.849609375 l 0
 1201.45019531 387.119140625 1115.875 257 927.703206906 257 c 0
 765.888981218 257 651.388705615 346.115234375 541.192406581 386.188476562 c 0
 513.535335179 396.24609375 487.107687634 401 461.300710452 401 c 0
 369.405273438 401 331.004882812 348.103515625 307.71484375 278.384765625 c 1
 301.149414062 255.715820312 l 1
 145.692382812 292.98046875 l 1
 151.337890625 315.352539062 l 0
 184.994140625 448.715820312 276.375 571 464.577849972 571 c 0
144 617.5390625 m 1
 149.252929688 641.379882812 l 2
 181.349609375 787.051757812 274.584960938 917 462.393090292 917 c 0
 672.601729034 917 774.125525211 777 932.071733193 777 c 0
 1015.97167969 777 1049.8125 830.626953125 1076.89648438 901.486328125 c 1
 1084.109375 923.21484375 l 1
 1235.01074219 886.018554688 l 1
 1230.13574219 864.239257812 l 0
 1199.828125 728.838867188 1113.35546875 609 925.518447226 609 c 0
 761.400293148 609 647.776900635 693.961914062 537.02249481 734.38671875 c 0
 509.743784062 744.344726562 483.978515929 749 459.116943845 749 c 0
 368.26953125 749 330.24609375 686.641601562 307.823242188 602.55859375 c 0
 301.508789062 578.87890625 l 1
 144 617.5390625 l 1
EndSplineSet
EndChar

StartChar: guillemotleft
Encoding: 171 171 169
Width: 1198
Flags: HW
LayerCount: 2
Fore
SplineSet
517.3102495 914 m 1
 760.229319808 914 l 1
 455.966796875 540.799804688 l 1
 749.035885022 171 l 1
 510.287683837 171 l 1
 233 541.111328125 l 1
 517.3102495 914 l 1
912.782226562 914 m 1
 1123.78808594 914 l 1
 854.001756294 540.859375 l 1
 1116.26171875 171 l 1
 907.701171875 171 l 1
 600.668534624 541.079101562 l 1
 912.782226562 914 l 1
EndSplineSet
EndChar

StartChar: guillemotright
Encoding: 187 187 170
Width: 1198
Flags: HW
LayerCount: 2
Fore
SplineSet
790.12748036 171 m 1
 553.211584474 171 l 1
 850.314453125 542.219726562 l 1
 562.10310599 914 l 1
 797.173893655 914 l 1
 1074.14648438 541.810546875 l 1
 790.12748036 171 l 1
369.3046875 171 m 1
 157 171 l 1
 429.160308464 542.188476562 l 1
 163.708984375 914 l 1
 374.467773438 914 l 1
 680.345041264 541.841796875 l 1
 369.3046875 171 l 1
EndSplineSet
EndChar

StartChar: ellipsis
Encoding: 8230 8230 171
Width: 1639
Flags: HW
LayerCount: 2
Fore
SplineSet
151 199 m 1
 407.136150366 199 l 1
 407.136150366 -61 l 1
 151 -61 l 1
 151 199 l 1
681.079107301 199 m 1
 952.920892699 199 l 1
 952.920892699 -61 l 1
 681.079107301 -61 l 1
 681.079107301 199 l 1
1226.86384963 199 m 1
 1483 199 l 1
 1483 -61 l 1
 1226.86384963 -61 l 1
 1226.86384963 199 l 1
EndSplineSet
EndChar

StartChar: OE
Encoding: 338 338 175
Width: 2087
Flags: HW
LayerCount: 2
Fore
SplineSet
1113.8451962 75.7197265625 m 1
 1038.04811445 18.6220703125 944.57462128 -23 823.146429366 -23 c 0
 344.471679688 -23 101 286.958007812 101 729.032226562 c 0
 101 1168.04296875 356.386866795 1483 830.409791747 1483 c 0
 946.235043233 1483 1038.31075229 1449.23535156 1113.8451962 1403.36523438 c 1
 1113.8451962 1456 l 1
 1949 1456 l 1
 1949 1258 l 1
 1335.60202382 1258 l 1
 1335.60202382 845 l 1
 1913 845 l 1
 1913 647 l 1
 1335.60202382 647 l 1
 1335.60202382 198 l 1
 1978 198 l 1
 1978 0 l 1
 1113.8451962 0 l 1
 1113.8451962 75.7197265625 l 1
1113.8451962 1187.4296875 m 1
 1043.22119446 1245.95800781 951.906840021 1285 823.146429366 1285 c 0
 494.003189086 1285 326 1038.71972656 326 725.213867188 c 0
 326 406.6484375 486.771303898 175 821.070901925 175 c 0
 954.280417137 175 1045.27606499 226.5703125 1113.8451962 294.333984375 c 1
 1113.8451962 1187.4296875 l 1
EndSplineSet
EndChar

StartChar: oe
Encoding: 339 339 176
Width: 2036
Flags: HW
LayerCount: 2
Fore
SplineSet
1940 475.139648438 m 0
 1940 451 l 1
 1186.04241411 451 l 1
 1208.73682368 292.369140625 1305.49744414 178 1490.66198765 178 c 0
 1614.64901356 178 1701.18652344 235.40625 1751.24707031 309.939453125 c 0
 1767.42578125 334.028320312 l 1
 1919.29296875 195.368164062 l 1
 1908.15625 177.6796875 l 0
 1825.08398438 45.7431640625 1683.66480838 -23 1473.01602671 -23 c 0
 1285.09510108 -23 1146.35621709 67.9111328125 1060.95657349 179.0859375 c 1
 971.35251261 62.1298828125 830.210401811 -23 627.060514124 -23 c 0
 281.571289062 -23 75 193.030273438 75 508.134765625 c 0
 75 824.666992188 286.059570312 1045 631.212794263 1045 c 0
 832.268343068 1045 972.985487031 964.416992188 1062.28852973 849.29296875 c 1
 1152.0785136 962.100585938 1293.09175714 1045 1483.3962352 1045 c 0
 1791.26757812 1045 1941 812.776367188 1941 531.725585938 c 0
 1941 514.299804688 1940 491.224609375 1940 475.139648438 c 0
936.532776108 508.138671875 m 0
 936.532776108 705.030273438 837.424017128 842 627.060514124 842 c 0
 422.002210549 842 314 697.201171875 314 506.276367188 c 0
 314 314.55078125 424.047363453 178 631.212794263 178 c 0
 836.773778518 178 936.532776108 316.39453125 936.532776108 508.138671875 c 0
1485.47188341 868 m 0
 1319.96402355 868 1223.30866108 763.822265625 1194.08432127 626 c 1
 1712.52441406 626 l 1
 1695.45898438 766.522460938 1630.2704797 868 1485.47188341 868 c 0
EndSplineSet
EndChar

StartChar: endash
Encoding: 8211 8211 177
Width: 1131
Flags: HW
LayerCount: 2
Fore
SplineSet
-6 626 m 1
 1130 626 l 1
 1130 439 l 1
 -6 439 l 1
 -6 626 l 1
EndSplineSet
EndChar

StartChar: emdash
Encoding: 8212 8212 178
Width: 2162
Flags: HW
LayerCount: 2
Fore
SplineSet
-3 626 m 1
 2152 626 l 1
 2152 439 l 1
 -3 439 l 1
 -3 626 l 1
EndSplineSet
EndChar

StartChar: quotedblleft
Encoding: 8220 8220 179
Width: 1072
Flags: HW
LayerCount: 2
Fore
SplineSet
370.986619942 1001.56640625 m 1
 370.986619942 998 l 1
 142.22265625 998 l 1
 314.067326846 1483 l 1
 516.472907174 1483 l 1
 388.425825006 998 l 1
 384.43034415 998 l 2
 379.472374939 998 374.851627924 999.236328125 370.986619942 1001.56640625 c 1
366.861669849 1056.5234375 m 1
 386.897285106 1121.88867188 396.144800959 1158.64355469 399.581255732 1178.5546875 c 1
 386.570099283 1150.62304688 369.878604151 1096.5546875 366.861669849 1056.5234375 c 1
367.897423741 1024.77148438 m 1
 369.705978502 1016.94140625 373.003931301 1011.35058594 378.133522524 1009.16992188 c 0
 378.900301568 1008.84375 379.536607738 1008.63183594 380.54024523 1008.40234375 c 1
 503.255001402 1473 l 1
 321.379829615 1473 l 1
 156.276367188 1008 l 1
 364.044459408 1008 l 1
 347.971204971 1029.61328125 356.799200352 1079.20117188 368.568857223 1121.48730469 c 0
 378.91937068 1157.43066406 393.163997607 1200.82617188 406.178164969 1197.58007812 c 0
 419.682107426 1194.15820312 405.998513857 1146.10449219 371.742358974 1037.28515625 c 0
 370.471753908 1033.12792969 369.240290705 1029.12011719 367.897423741 1024.77148438 c 1
737.000976562 998.310546875 m 2
 731.958007812 998 l 1
 677.827148438 998 l 2
 680.154296875 997.676757812 682.190429688 997.323242188 682.190429688 997.323242188 c 1
 574.453045099 818.81640625 369.699956677 510.590820312 12.107421875 1.5009765625 c 1
 12.2548828125 0.609375 11.90234375 0.39453125 11.6572265625 2.763671875 c 1
 11.865234375 2.4033203125 11.994140625 2.03515625 12.0673828125 1.72265625 c 1
 11.8564453125 1.326171875 11.646484375 0.9296875 11.435546875 0.5322265625 c 2
 9.94921875 -1.7080078125 l 1
 8.8701171875 -1.31640625 l 1
 8.2158203125 -2.8505859375 l 1
 4.640625 0.2216796875 l 1
 0.55078125 1.7080078125 l 1
 0.943359375 2.1962890625 l 1
 0 2.8505859375 l 1
 2.271484375 4.8671875 l 2
 2.263671875 4.451171875 2.259765625 3.9677734375 2.259765625 3.4169921875 c 1
 2.333984375 4.1015625 2.3759765625 4.646484375 2.3955078125 5.0458984375 c 2
 2.48046875 5.16796875 l 1
 189.961914062 519.389648438 293.980526077 824.711914062 348.64364209 997.5078125 c 0
 348.945736976 998.463867188 359.31331227 997.252929688 359.31331227 997.252929688 c 1
 306.066328759 828.663085938 205.095703125 532.86328125 24.822265625 37.3896484375 c 1
 366.10091263 523.95703125 563.375898098 820.76953125 670.952148438 998 c 1
 509.818790601 998 l 1
 687.025390625 1483 l 1
 862.208007812 1483 l 1
 751.958007812 998 l 1
 747.958007812 998 l 2
 744.103515625 998 740.435546875 997.897460938 737.000976562 998.310546875 c 2
711.345703125 1008 m 1
 706.138671875 1011.85644531 702.1875 1016.734375 699.399414062 1022.29980469 c 0
 671.03125 1077.66796875 757.196289062 1206.31152344 780.584960938 1217.68652344 c 0
 783.236328125 1217.93066406 789.008789062 1218.11230469 791.5234375 1217.17675781 c 1
 849.708007812 1473 l 1
 694.08203125 1473 l 1
 524.383577888 1008 l 1
 711.345703125 1008 l 1
704.331054688 1054.86035156 m 1
 755.4140625 1142.875 777.103515625 1189.63964844 781.61328125 1207.56640625 c 0
 781.834960938 1207.48828125 782.009765625 1207.41796875 782.150390625 1207.35351562 c 1
 760.788085938 1190.01269531 708.540039062 1107.47851562 704.331054688 1054.86035156 c 1
705.176757812 1036.359375 m 1
 706.41015625 1030.29101562 708.7109375 1025.00390625 712.271484375 1020.76074219 c 0
 715.633789062 1016.75292969 720.122070312 1013.54589844 726.22265625 1011.31152344 c 0
 731.177734375 1009.49609375 736.452148438 1008.43945312 743.977539062 1008.08496094 c 1
 783.7890625 1183.1015625 l 1
 772.4921875 1156.36425781 749.208984375 1111.38085938 708.12890625 1041.4453125 c 0
 707.151367188 1039.7578125 706.174804688 1038.07617188 705.176757812 1036.359375 c 1
2.3955078125 5.0458984375 m 2
 2.4580078125 5.41015625 2.3154296875 5.3681640625 2.271484375 4.8671875 c 2
 2.3955078125 5.0458984375 l 2
12.0673828125 1.72265625 m 1
 12.0830078125 1.6455078125 12.0966796875 1.5712890625 12.107421875 1.5009765625 c 1
 12.09375 1.57421875 12.080078125 1.6484375 12.0673828125 1.72265625 c 1
EndSplineSet
EndChar

StartChar: quotedblright
Encoding: 8221 8221 180
Width: 1023
Flags: HW
LayerCount: 2
Fore
SplineSet
682.256835938 973 m 1
 506.930664062 973 l 1
 618.293945312 1463 l 1
 845.9609375 1463 l 1
 682.256835938 973 l 1
373.333007812 973 m 1
 197 973 l 1
 307.25 1463 l 1
 534.811523438 1463 l 1
 373.333007812 973 l 1
EndSplineSet
EndChar

StartChar: quoteleft
Encoding: 8216 8216 181
Width: 575
Flags: HW
LayerCount: 2
Fore
SplineSet
307.2109375 1001.89453125 m 1
 307.2109375 998 l 1
 291.36328125 998 l 2
 292.616210938 997.93359375 293.501953125 997.868164062 293.501953125 997.868164062 c 1
 249.1171875 825.734375 164.506835938 519.401367188 11.005859375 0 c 1
 11.005859375 -2.4150390625 11.2890625 -0.4560546875 11.005859375 0 c 1
 13.8369140625 0 l 1
 9.5908203125 -1.4150390625 l 1
 0 1.4150390625 l 1
 1.4150390625 2.830078125 l 2
 154.090820312 519.439453125 238.594726562 825.202148438 283.118164062 997.645507812 c 0
 283.16015625 997.80859375 283.479492188 997.922851562 283.982421875 998 c 2
 94.5 998 l 1
 258.205078125 1483 l 1
 432.4609375 1483 l 1
 322.2109375 998 l 1
 318.2109375 998 l 2
 314.110351562 998 310.251953125 999.416992188 307.2109375 1001.89453125 c 1
306.42578125 1048.77636719 m 1
 305.931640625 1030.94824219 307.536132812 1016.79296875 312.223632812 1010.99121094 c 0
 312.958007812 1010.08300781 313.58984375 1009.51855469 314.434570312 1008.99316406 c 2
 419.9609375 1473 l 1
 265.407226562 1473 l 1
 108.384765625 1008 l 1
 302.216796875 1008 l 1
 288.977539062 1031.36816406 298.641601562 1090.01953125 308.9453125 1135.32128906 c 0
 315.59765625 1163.07617188 322.467773438 1197.77832031 333.25390625 1195.48730469 c 0
 344.611328125 1193.00683594 332.23828125 1148.70605469 306.42578125 1048.77636719 c 1
EndSplineSet
EndChar

StartChar: quoteright
Encoding: 8217 8217 182
Width: 575
Flags: HW
LayerCount: 2
Fore
SplineSet
307.364257812 973 m 1
 133 973 l 1
 244.36328125 1463 l 1
 469.955078125 1463 l 1
 307.364257812 973 l 1
EndSplineSet
EndChar

StartChar: divide
Encoding: 247 247 183
Width: 1485
Flags: HW
LayerCount: 2
Fore
SplineSet
1283 649 m 1
 1283 460 l 1
 188 460 l 1
 188 649 l 1
 1283 649 l 1
602.141741824 1083 m 1
 880.866817003 1083 l 1
 880.866817003 823 l 1
 602.141741824 823 l 1
 602.141741824 1083 l 1
602.141741824 281 m 1
 880.866817003 281 l 1
 880.866817003 21 l 1
 602.141741824 21 l 1
 602.141741824 281 l 1
EndSplineSet
EndChar

StartChar: lozenge
Encoding: 9674 9674 184
Width: 1285
Flags: HW
LayerCount: 2
Fore
SplineSet
648.145085259 1270.953125 m 1
 535.670782102 1079.12695312 414.539259329 897.107421875 305.5 712.790039062 c 1
 413.215786756 524.018554688 527.536195048 338.526367188 637.405284176 150.56640625 c 1
 751.167290376 343.224609375 870.804441715 525.818359375 980.220703125 711.1796875 c 1
 872.723079507 898.922851562 756.486020619 1083.38476562 648.145085259 1270.953125 c 1
574.67248549 1470 m 1
 717.601561799 1470 l 1
 1180.77050781 711.880859375 l 1
 707.569202511 -45 l 1
 566.907516902 -45 l 1
 106 711.123046875 l 1
 574.67248549 1470 l 1
EndSplineSet
EndChar

StartChar: ydieresis
Encoding: 255 255 185
Width: 1116
Flags: HW
LayerCount: 2
Fore
SplineSet
224.237304688 -441.25 m 1
 94.8818359375 -288.5 l 1
 132.302734375 -277.934570312 l 0
 277.133269372 -237.922851562 426.643622007 -163.799804688 426.643622007 -12 c 0
 426.643622007 7.7421875 438.408634403 22.2919921875 444.067540913 29.376953125 c 1
 14 1020 l 1
 239.364257812 1020 l 1
 565.050341368 211.014648438 l 1
 899.955078125 1020 l 1
 1119.10546875 1020 l 1
 648.941374551 -64.3232421875 l 0
 575.379556212 -235.782226562 448.843947546 -385.177734375 239.669662264 -437.15625 c 1
 224.237304688 -441.25 l 1
251.64389654 1306.36425781 m 0
 248.517467203 1334 l 1
 278.195243942 1334 l 0
 337.129378938 1334 388.792309898 1337.92382812 446.574237191 1342.89550781 c 0
 475.718547711 1345.40332031 l 1
 475.718547711 1318 l 0
 475.718547711 1266.97460938 478.903479849 1212.83496094 485.303091312 1155.60546875 c 0
 488.391840879 1128 l 1
 458.748769192 1128 l 0
 398.755634344 1128 347.570641519 1125.25 290.973643836 1119.16308594 c 0
 261.225465422 1115.96484375 l 1
 261.225465422 1144 l 0
 261.225465422 1195.70507812 258.041524857 1249.82910156 251.64389654 1306.36425781 c 0
862.021465465 1334 m 0
 891.353183263 1334 l 1
 888.604543199 1306.65429688 l 0
 883.224268673 1253.16308594 880.072058441 1200.19726562 880.072058441 1144 c 0
 880.072058441 1116.21386719 l 1
 850.560865948 1119.13964844 l 0
 790.831489491 1125.05859375 734.816545096 1128 682.548754671 1128 c 0
 652.601270105 1128 l 1
 656.024179738 1155.85839844 l 0
 662.528897927 1208.79980469 664.498161696 1261.02050781 664.498161696 1318 c 0
 664.498161696 1345.46191406 l 1
 693.700975017 1342.890625 l 0
 750.138329465 1337.91894531 803.879597212 1334 862.021465465 1334 c 0
EndSplineSet
EndChar

StartChar: fraction
Encoding: 8260 8260 187
Width: 450
Flags: HW
LayerCount: 2
Fore
SplineSet
-320 0 m 1
 620.389648438 1436 l 1
 819.852539062 1436 l 1
 -118.466796875 0 l 1
 -320 0 l 1
EndSplineSet
EndChar

StartChar: Euro
Encoding: 8364 8364 188
Width: 1231
Flags: HW
LayerCount: 2
Fore
SplineSet
71 759 m 1
 99.6083984375 947 l 1
 215.299804688 947 l 1
 270.092773438 1215.39355469 447.100723267 1448 815.269441403 1448 c 0
 954.999023438 1448 1064.74121094 1406.41601562 1147.84472656 1322.60253906 c 0
 1156.99902344 1313.37011719 l 1
 1109.43066406 1048.9453125 l 1
 1075.0546875 1102.49414062 l 0
 1020.07226562 1188.13867188 939.59765625 1253 807.615296959 1253 c 0
 591.978202429 1253 491.68666095 1108.17871094 445.618763299 947 c 1
 1045.76953125 947 l 1
 1019.88574219 759 l 1
 418.393211884 759 l 1
 418.088277762 751.6953125 417.983984333 745.418945312 417.983984333 738 c 0
 417.983984333 707.5 l 0
 417.983984333 697.984375 418.609744909 687.200195312 419.217626611 679 c 1
 1012.56445312 679 l 1
 988.04296875 491 l 1
 439.682977263 491 l 1
 473.757130539 308.418945312 567.680813202 175 798.868554684 175 c 0
 927.107421875 175 1011.88769531 229.368164062 1093.06347656 297.185546875 c 0
 1134.39453125 331.71484375 l 1
 1133.01953125 87.125 l 1
 1122.67675781 79.6953125 l 0
 1034.70800781 16.5068359375 930.08203125 -21 781.374076863 -21 c 0
 407.388765181 -21 251.426757812 212.146484375 209.24609375 491 c 1
 74.4140625 491 l 1
 100.298828125 679 l 1
 192.791015625 679 l 1
 192.21484375 695.474609375 192.091796875 707.508789062 192.091796875 724 c 0
 192.091796875 752 l 0
 192.091796875 754.301757812 192.115234375 756.668945312 192.14453125 759 c 1
 71 759 l 1
EndSplineSet
EndChar

StartChar: guilsinglleft
Encoding: 8249 8249 189
Width: 660
Flags: HW
LayerCount: 2
Fore
SplineSet
377.555664062 914 m 1
 588.659179688 914 l 1
 321.62890625 540.859375 l 1
 581.131835938 171 l 1
 372.471679688 171 l 1
 100 541.081054688 l 1
 377.555664062 914 l 1
EndSplineSet
EndChar

StartChar: guilsinglright
Encoding: 8250 8250 190
Width: 660
Flags: HW
LayerCount: 2
Fore
SplineSet
307.014648438 171 m 1
 98 171 l 1
 364.107421875 542.216796875 l 1
 105.810546875 914 l 1
 313.208007812 914 l 1
 587.794921875 541.814453125 l 1
 307.014648438 171 l 1
EndSplineSet
EndChar

StartChar: fi
Encoding: 64257 64257 191
Width: 1245
Flags: HW
LayerCount: 2
Fore
SplineSet
732.503722858 1302.09375 m 1
 694.083461708 1315.73144531 l 2
 671.062289099 1323.90234375 624.791061473 1329 585.881051937 1329 c 0
 460.217612969 1329 441.126421288 1267.59375 441.126421288 1136.90625 c 1
 440.207893192 1026 l 1
 1082 1026 l 1
 1082 0 l 1
 876 0 l 1
 876 869 l 1
 440 869 l 1
 440 0 l 1
 234 0 l 1
 234 869 l 1
 43 869 l 1
 43 1026 l 1
 234.442382812 1026 l 1
 236.001953125 1113.36328125 l 0
 238.678710938 1330.12597656 306.659179688 1514 556.583104093 1514 c 0
 620.14844667 1514 662.160862309 1501.43457031 707.849389305 1492.42480469 c 0
 729.252393266 1488.20410156 l 1
 732.503722858 1302.09375 l 1
883 1257 m 1
 883 1462 l 1
 1079 1462 l 1
 1079 1257 l 1
 883 1257 l 1
EndSplineSet
EndChar

StartChar: daggerdbl
Encoding: 8225 8225 193
Width: 1070
Flags: HW
LayerCount: 2
Fore
SplineSet
93 587 m 1
 432.413915189 587 l 1
 432.413915189 958 l 1
 98 958 l 1
 98 1140 l 1
 436.015149775 1140 l 1
 408.348203882 1451 l 1
 630.586084811 1451 l 1
 630.586084811 1140 l 1
 970 1140 l 1
 970 958 l 1
 622.516391831 958 l 1
 622.516391831 587 l 1
 963 587 l 1
 963 410 l 1
 624.875441102 410 l 1
 653.696346073 113 l 1
 406.235787047 113 l 1
 430.444865988 410 l 1
 93 410 l 1
 93 587 l 1
EndSplineSet
EndChar

StartChar: periodcentered
Encoding: 183 183 194
Width: 471
Flags: HW
LayerCount: 2
Fore
SplineSet
72 723 m 1
 328 723 l 1
 328 463 l 1
 72 463 l 1
 72 723 l 1
EndSplineSet
EndChar

StartChar: quotesinglbase
Encoding: 8218 8218 195
Width: 575
Flags: HW
LayerCount: 2
Fore
SplineSet
294.3671875 -288 m 1
 119 -288 l 1
 230.389648438 201 l 1
 456.99609375 201 l 1
 294.3671875 -288 l 1
EndSplineSet
EndChar

StartChar: quotedblbase
Encoding: 8222 8222 196
Width: 1072
Flags: HW
LayerCount: 2
Fore
SplineSet
345.280273438 -288 m 1
 169 -288 l 1
 280.389648438 201 l 1
 530.158188346 201 l 1
 345.280273438 -288 l 1
735.3671875 -288 m 1
 536.849119825 -288 l 1
 670.489257812 201 l 1
 897.99609375 201 l 1
 735.3671875 -288 l 1
EndSplineSet
EndChar

StartChar: perthousand
Encoding: 8240 8240 197
Width: 2366
Flags: HW
LayerCount: 2
Fore
SplineSet
1772.24668892 340.4140625 m 0
 1772.24668892 220.709960938 1822.1613042 136 1937.17139079 136 c 0
 2047.78515625 136 2098 223.610351562 2098 339.471679688 c 0
 2098 457.80859375 2049.03320312 542 1936.14198043 542 c 0
 1823.45003167 542 1772.24668892 457.102539062 1772.24668892 340.4140625 c 0
2284 337.567382812 m 0
 2284 126.889648438 2158.28613281 -27 1933.05178483 -27 c 0
 1700.62015895 -27 1578.84425313 127.646484375 1578.84425313 340.466796875 c 0
 1578.84425313 552.506835938 1707.97631752 706 1938.20178341 706 c 0
 2169.76171875 706 2284 553.6640625 2284 337.567382812 c 0
774.155746866 1079.54980469 m 0
 774.155746866 869.458007812 644.950995106 715 416.858019571 715 c 0
 187.083984375 715 69 868.7265625 69 1082.45019531 c 0
 69 1293.4921875 193.323242188 1447 418.918804814 1447 c 0
 654.742180661 1447 774.155746866 1296.31347656 774.155746866 1079.54980469 c 0
1519.89184709 337.567382812 m 0
 1519.89184709 127.037109375 1391.43557881 -27 1162.59510205 -27 c 0
 929.008336311 -27 807.358160002 126.655273438 807.358160002 340.466796875 c 0
 807.358160002 552.506835938 936.49022439 706 1166.71470802 706 c 0
 1402.27189092 706 1519.89184709 553.439453125 1519.89184709 337.567382812 c 0
1000.76059578 340.4140625 m 0
 1000.76059578 221.247070312 1051.57496287 136 1165.68431539 136 c 0
 1276.57872507 136 1328.54921429 223.409179688 1328.54921429 339.471679688 c 0
 1328.54921429 459.26171875 1279.69740626 542 1164.65490504 542 c 0
 1052.97861498 542 1000.76059578 456.553710938 1000.76059578 340.4140625 c 0
258 1083.38574219 m 0
 258 963.845703125 307.08203125 878 420.978607794 878 c 0
 530.431057154 878 581.782721444 965.8828125 581.782721444 1080.55664062 c 0
 581.782721444 1199.80078125 531.814081759 1285 417.888412192 1285 c 0
 307.659179688 1285 258 1199.16796875 258 1083.38574219 c 0
1365.01175431 1441 m 1
 419.855882564 -26 l 1
 213.17578125 -26 l 1
 1159.62768918 1441 l 1
 1365.01175431 1441 l 1
EndSplineSet
EndChar

StartChar: breve
Encoding: 728 728 213
Width: 688
Flags: HW
LayerCount: 2
Fore
SplineSet
217 1445 m 1
 217 1422.74707031 l 2
 217 1385.83398438 261.186523438 1364 338 1364 c 0
 414.811523438 1364 459 1385.83984375 459 1422.74707031 c 0
 459 1445 l 1
 633 1445 l 1
 633 1421.00390625 l 0
 633 1282.1875 497.596679688 1206 338 1206 c 0
 177.890625 1206 43 1283.14648438 43 1421.00390625 c 0
 43 1445 l 1
 217 1445 l 1
EndSplineSet
EndChar

StartChar: dotaccent
Encoding: 729 729 214
Width: 581
Flags: HW
LayerCount: 2
Fore
SplineSet
377 1409 m 1
 377 1196 l 1
 175 1196 l 1
 175 1409 l 1
 377 1409 l 1
EndSplineSet
EndChar

StartChar: hungarumlaut
Encoding: 733 733 215
Width: 1045
Flags: HW
LayerCount: 2
Fore
SplineSet
409.614001417 1480 m 1
 689.031655669 1480 l 1
 329.920898438 1120 l 1
 161 1120 l 1
 409.614001417 1480 l 1
714.841796875 1480 m 1
 945.5390625 1480 l 1
 621.113183955 1120 l 1
 413.01017777 1120 l 1
 714.841796875 1480 l 1
EndSplineSet
EndChar

StartChar: ogonek
Encoding: 731 731 216
Width: 565
Flags: HW
LayerCount: 2
Fore
SplineSet
270.131835938 12.599609375 m 1
 472.752929688 -6.544921875 l 1
 410.22265625 -39.5458984375 l 0
 340.581054688 -76.30078125 229 -126.877929688 229 -184.901367188 c 0
 229 -210.02734375 258.129882812 -231 299 -231 c 0
 356.526367188 -231 393.6640625 -219.0078125 436.71484375 -201.788085938 c 0
 471 -188.073242188 l 1
 471 -352.484375 l 1
 455.84765625 -358.978515625 l 0
 407.311523438 -379.779296875 340.627929688 -390 277 -390 c 0
 158.034179688 -390 45 -338.173828125 45 -221.057617188 c 0
 45 -95.572265625 180.995117188 -28.314453125 263.67578125 9.2880859375 c 1
 270.131835938 12.599609375 l 1
EndSplineSet
EndChar

StartChar: caron
Encoding: 711 711 217
Width: 771
Flags: HW
LayerCount: 2
Fore
SplineSet
510.461782555 1116 m 1
 300.760873695 1116 l 1
 27 1487 l 1
 227.526367188 1487 l 1
 399.044856079 1287.06152344 l 1
 576.895507812 1487 l 1
 784.22265625 1487 l 1
 510.461782555 1116 l 1
EndSplineSet
EndChar

StartChar: uni00AF
Encoding: 175 175 218
Width: 907
Flags: HW
LayerCount: 2
Fore
SplineSet
-3 1510 m 1
 910 1510 l 1
 910 1330 l 1
 -3 1330 l 1
 -3 1510 l 1
EndSplineSet
EndChar

StartChar: pi
Encoding: 960 960 219
Width: 1323
Flags: HW
LayerCount: 2
Fore
SplineSet
38.1611328125 792.985351562 m 1
 16 966.043945312 l 1
 26.59765625 974.431640625 l 0
 110.107421875 1040.52539062 231.135742188 1040 384.507529849 1040 c 0
 1254.49023438 1040 l 1
 1254.49023438 857 l 1
 1060.49023438 857 l 1
 1060.49023438 304.646484375 l 0
 1060.49023438 229.114257812 1069.0625 197 1128.49023438 197 c 0
 1152.68945312 197 1173.34179688 201.65234375 1197.2109375 208.916992188 c 0
 1231.84277344 219.45703125 l 1
 1227.43457031 153.337890625 l 0
 1226.8046875 143.889648438 1226.49023438 134.444335938 1226.49023438 125 c 0
 1226.49023438 91.06640625 1229.77050781 64.21484375 1238.20703125 38.9052734375 c 0
 1247.30175781 11.6240234375 l 1
 1219.01855469 6.4140625 l 0
 1174.92675781 -1.7080078125 1132.90820312 -8 1084.49023438 -8 c 0
 887.051300393 -8 847.561269572 125.0390625 847.561269572 287.177734375 c 0
 849.231917451 857 l 1
 522.962648384 857 l 1
 505.055931559 625.377929688 480.7441278 427.109375 438.10156067 220.663085938 c 0
 423.30805092 149.040039062 405.860974579 68.4638671875 373.112490882 13.216796875 c 1
 365.626953125 0 l 1
 147.219726562 0 l 1
 167.58203125 35.603515625 l 0
 277.3828125 227.602539062 289.388427898 572.088867188 298.225483219 864.2109375 c 1
 198.432617188 859.650390625 134.748046875 843.391601562 70.419921875 809.8203125 c 0
 38.1611328125 792.985351562 l 1
EndSplineSet
EndChar

StartChar: uni2206
Encoding: 8710 8710 220
Width: 1348
Flags: HW
LayerCount: 2
Fore
SplineSet
780.53253301 1429 m 1
 1300 105.920898438 l 1
 1300 0 l 1
 38 0 l 1
 38 105.927734375 l 1
 558.550864257 1429 l 1
 780.53253301 1429 l 1
663.668102403 1158.93652344 m 1
 554.637771847 833.66796875 430.104471641 526.869140625 316.392281848 212 c 1
 1018.89774088 212 l 1
 673.851047303 1128.08398438 l 1
 663.668102403 1158.93652344 l 1
EndSplineSet
EndChar

StartChar: Omega
Encoding: 937 937 222
Width: 1623
Flags: HW
LayerCount: 2
Fore
SplineSet
963.913085938 160.505859375 m 1
 1139.10351562 278.22265625 1290.09082031 469.842773438 1290.09082031 749.396484375 c 0
 1290.09082031 1041.83203125 1136.37988281 1259 816.968894227 1259 c 0
 494.887695312 1259 330.090820312 1046.31152344 330.090820312 754.205078125 c 0
 330.090820312 470.247070312 474.1171875 277.931640625 651.21875 160.538085938 c 0
 661.763671875 153.546875 l 1
 665.721679688 -0 l 1
 103.013671875 0 l 1
 88 182.04296875 l 1
 370.528320312 181.203125 l 1
 219.779296875 313.641601562 110.090820312 508.516601562 110.090820312 774.272460938 c 0
 110.090820312 1177.63183594 380.098632812 1449 821.766878095 1449 c 0
 1257.11914062 1449 1509.09082031 1165.75683594 1509.09082031 770.407226562 c 0
 1509.09082031 504.208007812 1386.046875 314.432617188 1240.46289062 181.202148438 c 1
 1512.79003906 182.045898438 l 1
 1500.50488281 0 l 1
 957.934570312 0 l 1
 951.622870565 153.056640625 l 1
 963.913085938 160.505859375 l 1
EndSplineSet
EndChar

StartChar: Eth
Encoding: 208 208 223
Width: 1559
Flags: HW
LayerCount: 2
Fore
SplineSet
183 1456 m 1
 521.196147415 1456 l 2
 1092.05659673 1456 1458 1259.37890625 1458 724.133789062 c 0
 1458 254.971679688 1129.32727159 0 604 0 c 0
 183 0 l 1
 183 633 l 1
 -1 633 l 1
 -1 820 l 1
 183 820 l 1
 183 1456 l 1
396 198 m 1
 620.353832309 198 l 2
 1017.59974793 198 1235 379.682617188 1235 721.313476562 c 0
 1235 1125.71386719 999.526956054 1258 542.295088205 1258 c 0
 403.87016949 1258 l 1
 403.87016949 820 l 1
 611.08916056 820 l 1
 591.59765625 633 l 1
 396 633 l 1
 396 198 l 1
EndSplineSet
EndChar

StartChar: multiply
Encoding: 215 215 224
Width: 1485
Flags: HW
LayerCount: 2
Fore
SplineSet
897.761959013 554 m 1
 1185.1953125 275.475585938 l 1
 1051.74707031 135.368164062 l 1
 745.527486871 414.129882812 l 1
 438.349609375 135.408203125 l 1
 306 274.395507812 l 1
 592.341718437 554 l 1
 306 833.603515625 l 1
 438.381835938 972.639648438 l 1
 745.527486871 692.93359375 l 1
 1051.71679688 972.670898438 l 1
 1185.1953125 832.524414062 l 1
 897.761959013 554 l 1
EndSplineSet
EndChar

StartChar: Lslash
Encoding: 321 321 227
Width: 1164
Flags: HW
LayerCount: 2
Fore
SplineSet
417.342096569 198 m 1
 1119 198 l 1
 1119 0 l 1
 192 0 l 1
 192 564.401367188 l 1
 14 452.2734375 l 1
 14 642.611328125 l 1
 192 754.740234375 l 1
 192 1456 l 1
 417.342096569 1456 l 1
 417.342096569 892.370117188 l 1
 712.743205036 1063.56542969 l 1
 712.743205036 874.237304688 l 1
 417.342096569 703.041992188 l 1
 417.342096569 198 l 1
EndSplineSet
EndChar

StartChar: lslash
Encoding: 322 322 228
Width: 528
Flags: HW
LayerCount: 2
Fore
SplineSet
159 836.862304688 m 1
 159 1492 l 1
 366 1492 l 1
 366 945.135742188 l 1
 529 1047.13574219 l 1
 529 859.690429688 l 1
 366 762.385742188 l 1
 366 0 l 1
 159 0 l 1
 159 646.966796875 l 1
 0 550.224609375 l 1
 0 740.122070312 l 1
 159 836.862304688 l 1
EndSplineSet
EndChar

StartChar: eth
Encoding: 240 240 231
Width: 1216
Flags: HW
LayerCount: 2
Fore
SplineSet
1166 461.198242188 m 0
 1166 160.116210938 956.071289062 -23 619.182470232 -23 c 0
 289.716796875 -23 68 163.100585938 68 454.926757812 c 0
 68 729.625976562 257.243164062 909.875976562 562.440230079 909.875976562 c 0
 618.207408463 909.875976562 671.649134034 900.98046875 718.998212953 888.087890625 c 1
 519.630848111 1100.83984375 l 1
 275.4921875 1004.84082031 l 1
 212.349609375 1177.79492188 l 1
 386.679885144 1249.01171875 l 1
 196.01953125 1474 l 1
 508.790981178 1474 l 1
 624.247429582 1340.296875 l 1
 895.501272963 1445.07226562 l 1
 960.750976562 1273.22460938 l 1
 755.746722176 1191.9921875 l 1
 871.877373167 1066.08398438 977.3046875 951.627929688 1063.01660156 811.564453125 c 0
 1122.00292969 715.173828125 1166 610.760742188 1166 461.198242188 c 0
620.273705347 750 m 0
 423.549532387 750 314.004023605 645.123046875 314.004023605 466 c 0
 314.004023605 295.21875 438.397876265 185 626.821116042 185 c 0
 816.014873063 185 930 291.828125 930 463 c 0
 930 639.595703125 814.399368483 750 620.273705347 750 c 0
EndSplineSet
EndChar

StartChar: mu
Encoding: 956 956 234
Width: 1208
Flags: HW
LayerCount: 2
Fore
SplineSet
843 1020 m 1
 1076 1020 l 1
 1076 396.907226562 l 0
 1076 140.599609375 890.829101562 -23 604 -23 c 0
 494.085294805 -23 402.347739717 4.6943359375 339 53.361328125 c 1
 339 -202 l 1
 132 -202 l 1
 132 1020 l 1
 365 1020 l 1
 365 400.631835938 l 0
 365 269.095703125 455.739128439 180 604 180 c 0
 752.359617054 180 843 270.412109375 843 400.631835938 c 0
 843 1020 l 1
EndSplineSet
EndChar

StartChar: thorn
Encoding: 254 254 235
Width: 1299
Flags: HW
LayerCount: 2
Fore
SplineSet
389.381835938 925.216796875 m 1
 468.209160599 997.987304688 574.225127388 1045 720.298260624 1045 c 0
 1068.33496094 1045 1224.38183594 800.349609375 1224.38183594 499.541015625 c 0
 1224.38183594 207.643554688 1078.70117188 -23 742.200735501 -23 c 0
 589.700134021 -23 471.10147163 26.271484375 389.381835938 104.723632812 c 1
 389.381835938 -427 l 1
 156.381835938 -427 l 1
 156.381835938 1202 l 0
 156.381835938 1289.66699219 150.799804688 1370.22265625 149.384765625 1463.62109375 c 0
 149 1489 l 1
 389.381835938 1489 l 1
 389.381835938 925.216796875 l 1
386.381835938 512 m 0
 386.381835938 314.45703125 479.434626085 180 700.586629382 180 c 0
 906.98397146 180 986.381835938 324.71875 986.381835938 512 c 0
 986.381835938 698.895507812 905.022644777 844 700.586629382 844 c 0
 478.447007684 844 386.381835938 709.466796875 386.381835938 512 c 0
EndSplineSet
EndChar

StartChar: Thorn
Encoding: 222 222 236
Width: 1325
Flags: HW
LayerCount: 2
Fore
SplineSet
399 1200.47753906 m 1
 688.962560394 1200.47753906 l 2
 1027.58256936 1200.47753906 1285 1077.66210938 1285 760.25 c 0
 1285 467.919921875 1029.34743981 321 714.995143591 321 c 0
 399 321 l 1
 399 0 l 1
 172 0 l 1
 172 1445 l 1
 399 1445 l 1
 399 1200.47753906 l 1
399 1012 m 1
 399 524 l 1
 733.435510059 524 l 0
 920.73796701 524 1053 608.331054688 1053 767 c 0
 1053 944.008789062 918.98896948 1012 709.571564751 1012 c 0
 399 1012 l 1
EndSplineSet
EndChar

StartChar: brokenbar
Encoding: 166 166 237
Width: 525
Flags: HW
LayerCount: 2
Fore
SplineSet
365 869 m 1
 151 869 l 1
 151 1489 l 1
 365 1489 l 1
 365 869 l 1
365 -279 m 1
 151 -279 l 1
 151 341 l 1
 365 341 l 1
 365 -279 l 1
EndSplineSet
EndChar

StartChar: periodcentered
Encoding: 65537 -1 238
Width: 471
Flags: HW
LayerCount: 2
Fore
SplineSet
72 723 m 1
 328 723 l 1
 328 463 l 1
 72 463 l 1
 72 723 l 1
EndSplineSet
EndChar

StartChar: minus
Encoding: 8722 8722 239
Width: 1485
Flags: HW
LayerCount: 2
Fore
SplineSet
188 446 m 1
 188 633 l 1
 1284 633 l 1
 1284 446 l 1
 188 446 l 1
EndSplineSet
EndChar

StartChar: uni030F
Encoding: 783 783 240
Width: 1045
Flags: HW
LayerCount: 2
Fore
SplineSet
677.479874595 1120 m 1
 475.902914901 1120 l 1
 152 1480 l 1
 382.830078125 1480 l 1
 677.479874595 1120 l 1
974.641601562 1120 m 1
 804.696289062 1120 l 1
 452.480711582 1480 l 1
 726.039157081 1480 l 1
 974.641601562 1120 l 1
EndSplineSet
EndChar

StartChar: uni0326
Encoding: 806 806 241
Width: 563
Flags: W
HStem: -675 513<185.907 247.036>
VStem: 74 344.774
LayerCount: 2
Fore
SplineSet
247.036132812 -675 m 1
 74 -675 l 1
 185.907226562 -162 l 1
 418.774414062 -162 l 1
 247.036132812 -675 l 1
EndSplineSet
EndChar

StartChar: uni0311
Encoding: 785 785 242
Width: 688
Flags: W
HStem: 1287 158<222.083 454.025>
VStem: 43 174<1206 1273.28> 459 174<1206 1273.03>
LayerCount: 2
Fore
SplineSet
459 1206 m 1
 459 1228.25292969 l 2
 459 1265.16601562 414.813476562 1287 338 1287 c 0
 261.188476562 1287 217 1265.16015625 217 1228.25292969 c 0
 217 1206 l 1
 43 1206 l 1
 43 1229.99609375 l 0
 43 1368.8125 178.403320312 1445 338 1445 c 0
 498.109375 1445 633 1367.85351562 633 1229.99609375 c 0
 633 1206 l 1
 459 1206 l 1
EndSplineSet
EndChar

StartChar: uni0218
Encoding: 536 536 243
Width: 1180
Flags: HW
LayerCount: 2
Fore
SplineSet
358.993164062 1081.70214844 m 0
 358.993164062 916.075195312 595.034216365 857.18359375 759.534840441 792.845703125 c 0
 945.802734375 719.01953125 1169.99316406 625.413085938 1169.99316406 369.109375 c 0
 1169.99316406 79.2734375 890.643577497 -22 581.680843417 -22 c 0
 371.887695312 -22 223.221679688 48.6884765625 138.8671875 163.169921875 c 0
 129 176.560546875 l 1
 222.53515625 332.916992188 l 1
 245.116210938 306.103515625 l 0
 312.551757812 226.022460938 436.470745595 173 602.618534334 173 c 0
 795.358682533 173 947.993164062 232.288085938 947.993164062 377.006835938 c 0
 947.993164062 544.834960938 716.818966978 598.669921875 548.611227746 661.375 c 0
 359.462890625 732.611328125 136.993164062 822.9609375 136.993164062 1079.02734375 c 0
 136.993164062 1346.63769531 396.512082546 1474 686.36531934 1474 c 0
 874.39075709 1474 1033.82714844 1430.19628906 1113.16894531 1321.76269531 c 0
 1123.13085938 1308.1484375 l 1
 1114.234375 1293.81640625 l 0
 1090.19335938 1255.08203125 1066.41015625 1216.87988281 1040.6796875 1178.96191406 c 0
 1023.11132812 1153.07226562 l 1
 1001.73632812 1175.92089844 l 0
 940.90625 1240.94726562 832.911251789 1278 687.467407774 1278 c 0
 509.195651597 1278 358.993164062 1217.26855469 358.993164062 1081.70214844 c 0
611.033397286 -625 m 1
 421.158877948 -625 l 1
 544.47441746 -112 l 1
 800.280283229 -112 l 1
 611.033397286 -625 l 1
EndSplineSet
EndChar

StartChar: uni021A
Encoding: 538 538 245
Width: 1202
Flags: HW
LayerCount: 2
Fore
SplineSet
486.479968639 1253 m 1
 27 1253 l 1
 27 1448 l 1
 1179 1448 l 1
 1179 1253 l 1
 714.266664617 1253 l 1
 731.053710938 -0 l 1
 520.10546875 0 l 1
 486.479968639 1253 l 1
634.897460938 -625 m 1
 447.351581229 -625 l 1
 573.955078125 -112 l 1
 825.99391083 -112 l 1
 634.897460938 -625 l 1
EndSplineSet
EndChar

StartChar: uni021B
Encoding: 539 539 246
Width: 738
Flags: HW
LayerCount: 2
Fore
SplineSet
683.392578125 165.412109375 m 1
 680.59375 -3.9541015625 l 1
 655.056640625 -2.982421875 l 0
 402.111328125 6.12890625 233 38.3701171875 233 302.624023438 c 0
 233 865 l 1
 35 865 l 1
 35 1020 l 1
 236 1020 l 1
 236 1278.13085938 l 1
 439 1344.47167969 l 1
 439 1020 l 1
 679 1020 l 1
 679 865 l 1
 439 865 l 1
 439 405.663085938 l 0
 439 364.762695312 437 328.814453125 437 292.192382812 c 0
 437 167.389648438 498.590820312 167.517578125 658.298828125 165.698242188 c 0
 683.392578125 165.412109375 l 1
372.994140625 -625 m 1
 199.958984375 -625 l 1
 311.865234375 -112 l 1
 544.732421875 -112 l 1
 372.994140625 -625 l 1
EndSplineSet
EndChar

StartChar: twosuperior
Encoding: 178 178 271
Width: 1180
Flags: W
HStem: 604 168<532.015 837> 1273 167<453.029 655.39>
VStem: 666 172<1091.62 1259.53>
LayerCount: 2
Fore
SplineSet
271.455078125 1238.74316406 m 1
 277.84765625 1254.43261719 l 2
 321.465820312 1361.49511719 422.040039062 1440 564 1440 c 0
 717.755859375 1440 838 1353.22558594 838 1205.27441406 c 0
 838 1100.61328125 784.141601562 1025.14355469 732.110351562 963.202148438 c 0
 674.2734375 894.349609375 601.751953125 831.299804688 532.014648438 772 c 1
 837 772 l 1
 837 604 l 1
 269 604 l 1
 269 740.891601562 l 1
 276.739257812 747.844726562 l 0
 409.666015625 867.262695312 554.23828125 979.850585938 639.923828125 1117.68261719 c 0
 658.139648438 1146.98535156 666 1171.92578125 666 1192.32421875 c 0
 666 1244.44921875 627.294921875 1273 558 1273 c 0
 479.918945312 1273 433.561523438 1221.72363281 404.860351562 1156.88183594 c 0
 390.3984375 1124.20605469 l 1
 271.455078125 1238.74316406 l 1
EndSplineSet
EndChar

StartChar: threesuperior
Encoding: 179 179 272
Width: 1181
Flags: W
HStem: 586 165<361.115 605.957> 945 169<367.199 589.85> 1272 169<361.712 593.177>
VStem: 601.199 176<1131.37 1262.18> 624.199 173<775.993 923.396>
LayerCount: 2
Fore
SplineSet
777.19921875 1201.88085938 m 0xf0
 777.19921875 1127.41894531 744.368164062 1069.91796875 697.375976562 1032.80859375 c 1
 757.841796875 993.547851562 797.19921875 931.396484375 797.19921875 844.004882812 c 0
 797.19921875 678.944335938 654.282226562 586 488.19921875 586 c 0
 377.717773438 586 294.563476562 629.747070312 236.149414062 690.702148438 c 0
 223 704.422851562 l 1
 305.811523438 843.89453125 l 1
 328.540039062 822.0078125 l 0
 379.208984375 773.21484375 430.111328125 751 483.19921875 751 c 0
 567.866210938 751 624.19921875 785.685546875 624.19921875 849.390625 c 0xe8
 624.19921875 925.487304688 556.4609375 946 445.19921875 946 c 0
 440.181640625 946 427.768554688 945 417.19921875 945 c 0
 367.19921875 945 l 1
 367.19921875 1114 l 1
 439.19921875 1114 l 0
 539.420898438 1114 601.19921875 1133.01855469 601.19921875 1196.90917969 c 0
 601.19921875 1249.70214844 564.052734375 1272 492.19921875 1272 c 0
 422.202148438 1272 371.424804688 1238.31347656 325.203125 1199.79492188 c 0
 302.31640625 1180.72265625 l 1
 223.11328125 1318.96777344 l 1
 236.32421875 1332.47753906 l 0
 292.754882812 1390.19238281 385.678710938 1441 494.19921875 1441 c 0
 647.895507812 1441 777.19921875 1354.23242188 777.19921875 1201.88085938 c 0xf0
EndSplineSet
EndChar

StartChar: onesuperior
Encoding: 185 185 273
Width: 1180
Flags: W
HStem: 604 169<256.287 372.287 537.287 653.287>
VStem: 372.287 165<773 1219.15>
LayerCount: 2
Fore
SplineSet
256.287109375 773 m 1
 372.287109375 773 l 1
 372.287109375 1014.34472656 l 0
 372.287109375 1069.21289062 371.287109375 1113.32617188 371.287109375 1162.29296875 c 0
 371.287109375 1219.15039062 l 1
 333.877929688 1201.57324219 297.998046875 1186.29589844 261.372070312 1172.88574219 c 0
 227 1160.29980469 l 1
 228.42578125 1332.26660156 l 1
 245.323242188 1337.59667969 l 0
 304.879882812 1356.37890625 352.395507812 1380.14160156 398.626953125 1408.28417969 c 1
 403.154296875 1411.2109375 l 1
 537.287109375 1431.02929688 l 1
 537.287109375 760.8984375 l 1
 653.287109375 760.8984375 l 1
 653.287109375 604 l 1
 256.287109375 604 l 1
 256.287109375 773 l 1
EndSplineSet
EndChar

StartChar: foursuperior
Encoding: 8308 8308 274
Width: 902
Flags: HW
LayerCount: 2
Fore
SplineSet
502 778 m 1
 502 615 l 1
 338 615 l 1
 338 778 l 1
 -21 778 l 1
 -21 897.091796875 l 1
 337.703125 1412 l 1
 504 1412 l 1
 504 935 l 1
 604.772460938 935 l 1
 619.4453125 778 l 1
 502 778 l 1
336.020507812 1159.82714844 m 1
 183.217773438 935 l 1
 336 935 l 1
 336 1143 l 0
 336 1148.74121094 336.008789062 1155.12402344 336.020507812 1159.82714844 c 1
EndSplineSet
EndChar

StartChar: currency
Encoding: 164 164 278
Width: 1276
Flags: HW
LayerCount: 2
Fore
SplineSet
294.641601562 66.5185546875 m 1
 382.6015625 302.104492188 l 1
 254.811523438 362.739257812 178 488 178 659.40625 c 0
 178 815.393554688 241.705078125 936.29296875 345.071289062 1002.23339844 c 1
 200.3671875 1273.83789062 l 1
 284.59375 1307.95410156 l 1
 426.914925362 1054.53808594 l 1
 475.51619 1069.40722656 527.641446892 1076 587.435443006 1076 c 0
 628.719662245 1076 671.897384901 1071.46972656 710.923306559 1063.78710938 c 1
 813.47265625 1308.68066406 l 1
 899.904296875 1275.421875 l 1
 801.116210938 1016.49902344 l 1
 922.28515625 951.368164062 991 828.755859375 991 663.278320312 c 0
 991 521.224609375 933.642578125 407.600585938 847.926757812 341.505859375 c 1
 992.9609375 68.310546875 l 1
 914.912109375 31.9052734375 l 1
 772.833984375 303.05859375 l 1
 720.533919693 281.462890625 659.217260641 269 581.486879587 269 c 0
 542.745134599 269 505.459543116 272.134765625 474.736215735 277.501953125 c 1
 375.063476562 31.1494140625 l 1
 294.641601562 66.5185546875 l 1
851 660 m 0
 851 833.9296875 772.55078125 954 582.675987639 954 c 0
 399.390625 954 317 827.795898438 317 660 c 0
 317 490.672851562 400.329101562 370 586.245327235 370 c 0
 770.12109375 370 851 492.287109375 851 660 c 0
EndSplineSet
EndChar

StartChar: macron
Encoding: 65538 -1 279
Width: 788
Flags: HW
LayerCount: 2
Fore
SplineSet
668 1317 m 1
 668 1133 l 1
 75 1133 l 1
 75 1317 l 1
 668 1317 l 1
EndSplineSet
EndChar

StartChar: commaaccent
Encoding: 63171 63171 311
Width: 657
Flags: HW
LayerCount: 2
Fore
SplineSet
278.1015625 -653 m 1
 104 -653 l 1
 217.015625 -140 l 1
 449.83984375 -140 l 1
 278.1015625 -653 l 1
EndSplineSet
EndChar

StartChar: tcommaaccent
Encoding: 355 355 312
Width: 738
Flags: HW
LayerCount: 2
Fore
SplineSet
683.392578125 165.412109375 m 1
 680.59375 -3.9541015625 l 1
 655.056640625 -2.982421875 l 0
 402.111328125 6.12890625 233 38.3701171875 233 302.624023438 c 0
 233 865 l 1
 35 865 l 1
 35 1020 l 1
 236 1020 l 1
 236 1278.13085938 l 1
 439 1344.47167969 l 1
 439 1020 l 1
 679 1020 l 1
 679 865 l 1
 439 865 l 1
 439 405.663085938 l 0
 439 364.762695312 437 328.814453125 437 292.192382812 c 0
 437 167.389648438 498.590820312 167.517578125 658.298828125 165.698242188 c 0
 683.392578125 165.412109375 l 1
324.994140625 -603 m 1
 150.892578125 -603 l 1
 263.908203125 -90 l 1
 496.732421875 -90 l 1
 324.994140625 -603 l 1
EndSplineSet
EndChar

StartChar: scommaaccent
Encoding: 65539 -1 314
Width: 1055
Flags: HW
LayerCount: 2
Fore
SplineSet
322 748.234375 m 0
 322 646.891601562 503.485865698 620.866210938 637.094864225 583.099609375 c 1
 785.577148438 537.4375 957 472.510742188 957 273.282226562 c 0
 957 49.9755859375 743.2109375 -48 501.273050821 -48 c 0
 333.075195312 -48 200.795898438 -17.6884765625 122.526367188 68.15625 c 0
 113.403320312 78.1611328125 l 1
 164.922851562 277.081054688 l 1
 196.107421875 240.122070312 l 0
 252.78515625 172.947265625 355.48828125 133 507.117615455 133 c 0
 646.312916388 133 746 170.36328125 746 266.23828125 c 0
 746 318.280273438 713.693359375 344.60546875 661.967425994 367.547851562 c 1
 465.190702517 452.442382812 111 456.978515625 111 749.977539062 c 0
 111 953.5390625 299.43359375 1045 512.961175177 1045 c 0
 670.009731833 1045 794.260742188 1026.31054688 878.809570312 964.141601562 c 0
 893.211914062 953.551757812 l 1
 838.852539062 780.71875 l 1
 811.1328125 799.19921875 l 0
 748.586914062 840.895507812 650.847076572 862 523.480587589 862 c 0
 409.569862093 862 322 823.581054688 322 748.234375 c 0
528.67195982 -625 m 1
 331.81640625 -625 l 1
 458.526130191 -112 l 1
 727.01171875 -112 l 1
 528.67195982 -625 l 1
EndSplineSet
EndChar

StartChar: iogonek
Encoding: 303 303 316
Width: 525
Flags: HW
LayerCount: 2
Fore
SplineSet
165 1485 m 1
 359 1485 l 1
 359 1345 l 1
 165 1345 l 1
 165 1485 l 1
474.98828125 42.4697265625 m 1
 414.51953125 3.970703125 l 2
 398.948242188 -6.0390625 379.690429688 -17.76953125 362 -29.0556640625 c 1
 362 -87 l 1
 283.029296875 -87 l 1
 253.076171875 -114.282226562 233 -143.234375 233 -174 c 0
 233 -205.950195312 262.817382812 -231 303 -231 c 0
 360.526367188 -231 397.6640625 -219.0078125 440.71484375 -201.788085938 c 0
 475 -188.073242188 l 1
 475 -352.484375 l 1
 459.84765625 -358.978515625 l 0
 411.311523438 -379.779296875 344.627929688 -390 281 -390 c 0
 161.654296875 -390 49 -331.2734375 49 -200 c 0
 49 -113.717773438 100.676757812 -51.5087890625 158 -7.42578125 c 1
 158 1035 l 1
 362 1035 l 1
 362 53.4765625 l 1
 474.98828125 42.4697265625 l 1
EndSplineSet
EndChar

StartChar: kcommaaccent
Encoding: 311 311 318
Width: 1124
Flags: HW
LayerCount: 2
Fore
SplineSet
169 0 m 1
 169 1492 l 1
 376 1492 l 1
 376 621.388671875 l 1
 828.220796085 1026 l 1
 1119.94238281 1026 l 1
 556.782683818 540.297851562 l 1
 749.782110672 373.396484375 938.010742188 206.809570312 1110.67480469 41 c 0
 1153.37011719 0 l 1
 874.513671875 0 l 1
 376 464.852539062 l 1
 376 0 l 1
 169 0 l 1
603.585794736 -603 m 1
 412.288480379 -603 l 1
 537.744535601 -90 l 1
 794.229370335 -90 l 1
 603.585794736 -603 l 1
EndSplineSet
EndChar

StartChar: rcommaaccent
Encoding: 343 343 322
Width: 751
Flags: HW
LayerCount: 2
Fore
SplineSet
151 1020 m 1
 358.528320312 1020 l 1
 361.541015625 928.430664062 l 1
 414.069335938 995.96484375 492.161132812 1045 595.337890625 1045 c 0
 637.123046875 1045 676.66015625 1039.88574219 711.600585938 1030.20703125 c 0
 730.091796875 1025.02929688 l 1
 732.891601562 809.413085938 l 1
 695.2890625 830.094726562 l 0
 672.8828125 842.41796875 634.126953125 854 597.337890625 854 c 0
 434.584960938 854 363.337890625 727.486328125 363.337890625 557.5859375 c 0
 363.337890625 0 l 1
 158.337890625 0 l 1
 158.337890625 760.618164062 l 0
 158.337890625 838.78125 156.368164062 921.096679688 152.37109375 994.740234375 c 0
 151 1020 l 1
405.33203125 -603 m 1
 231.23046875 -603 l 1
 344.245117188 -90 l 1
 577.0703125 -90 l 1
 405.33203125 -603 l 1
EndSplineSet
EndChar

StartChar: dotlessj
Encoding: 567 567 326
Width: 528
Flags: HW
LayerCount: 2
Fore
SplineSet
166.21484375 1020 m 1
 373.21484375 1020 l 1
 373.21484375 112.354492188 l 0
 373.21484375 -140.991210938 336.3515625 -429 45.21484375 -429 c 0
 1.6142578125 -429 -37.978515625 -424.038085938 -76.2919921875 -415.385742188 c 0
 -95.6455078125 -411.015625 l 1
 -97 -217.337890625 l 1
 -66.7861328125 -223.504882812 l 0
 -35.140625 -229.962890625 -9.8173828125 -233 8.21484375 -233 c 0
 133.596679688 -233 166.21484375 -124.008789062 166.21484375 44.7578125 c 0
 166.21484375 1020 l 1
EndSplineSet
EndChar

StartChar: ldot
Encoding: 320 320 327
Width: 975
Flags: HW
LayerCount: 2
Fore
SplineSet
158 1487 m 1
 363 1487 l 1
 363 0 l 1
 158 0 l 1
 158 1487 l 1
550 748 m 1
 806 748 l 1
 806 488 l 1
 550 488 l 1
 550 748 l 1
EndSplineSet
EndChar

StartChar: kgreenlandic
Encoding: 312 312 329
Width: 1128
Flags: HW
LayerCount: 2
Fore
SplineSet
169 0 m 1
 169 1026 l 1
 376 1026 l 1
 376 594.245117188 l 1
 827.65336997 1026 l 1
 1117.28710938 1026 l 1
 556.697621845 512.684570312 l 1
 749.813060582 354.454101562 937.465820312 198.719726562 1110.19824219 41.4462890625 c 0
 1155.71875 0 l 1
 874.96484375 0 l 1
 376 437.448242188 l 1
 376 0 l 1
 169 0 l 1
EndSplineSet
EndChar

StartChar: dotaccentcmb
Encoding: 775 775 330
Width: 548
Flags: HW
LayerCount: 2
Fore
SplineSet
377 1409 m 1
 377 1196 l 1
 175 1196 l 1
 175 1409 l 1
 377 1409 l 1
EndSplineSet
EndChar

StartChar: R.alt.001
Encoding: 65541 -1 331
Width: 1403
Flags: HW
LayerCount: 2
Fore
SplineSet
195 0 m 1
 195 1449 l 1
 648.859805792 1449 l 0
 976.994937249 1449 1250 1359.8671875 1250 1052.61523438 c 0
 1250 847.396484375 1130.00585938 722.536132812 953.227440231 671.655273438 c 1
 1124.0546875 501.383789062 1204.91503906 252.831054688 1304.84765625 34.1572265625 c 0
 1320.45703125 0 l 1
 1282 0 l 0
 1216.921875 0 1151.58789062 -1 1086 -1 c 0
 1069.39785377 -1 l 1
 896.49065245 365.486328125 l 0
 850.873608306 463.413085938 804.308999679 540.83984375 739.091757819 607.921875 c 1
 696.662697641 613.362304688 654.511457417 615 603.74184535 615 c 0
 422 615 l 1
 422 0 l 1
 195 0 l 1
422 1242 m 1
 422 822 l 1
 703.76298188 822 l 0
 889.689024661 822 1013.96483534 892.798828125 1013.96483534 1041.91992188 c 0
 1013.96483534 1183.09765625 891.426391584 1242 703.76298188 1242 c 0
 422 1242 l 1
EndSplineSet
EndChar

StartChar: u.alt
Encoding: 65542 -1 332
Width: 1251
Flags: HW
LayerCount: 2
Fore
SplineSet
365 1020 m 1
 365 513.890625 l 2
 365 321.421875 373.04933729 180 558.391356925 180 c 0
 708.899416051 180 835.543452059 275.357421875 866 371.65234375 c 1
 866 1020 l 1
 1099 1020 l 1
 1099 260.497070312 l 0
 1099 181.951171875 1102 99.5380859375 1102 22.9716796875 c 0
 1102 -1.0595703125 l 1
 882.583007812 -1.0595703125 l 1
 875.317382812 105.673828125 l 1
 792.997951407 25.1064453125 682.238352851 -23 522.90671342 -23 c 0
 239.583984375 -23 132 162.551757812 132 415.986328125 c 0
 132 1020 l 1
 365 1020 l 1
EndSplineSet
EndChar

StartChar: a.alt
Encoding: 65543 -1 333
Width: 1161
Flags: HW
LayerCount: 2
Fore
SplineSet
431.52280677 163 m 0
 647.820318202 163 796 275.770507812 796 464 c 2
 796 498.556640625 l 1
 604.476913856 428.098632812 312 428.93359375 312 263 c 0
 312 202.947265625 358.790708456 163 431.52280677 163 c 0
795 648.21484375 m 1
 795 707.122070312 l 2
 795 806.563476562 737.600515916 844 607.509374002 844 c 0
 456.630498042 844 325.274414062 812.587890625 236.65625 765.8828125 c 0
 208.609375 751.103515625 l 1
 157.672851562 950.829101562 l 1
 176.35546875 959.62109375 l 0
 282.1171875 1009.390625 430.298236237 1045 602.996641808 1045 c 0
 844.814453125 1045 1029 963.509765625 1029 736.370117188 c 0
 1029 -1.0361328125 l 1
 796 -1.0361328125 l 1
 796 88.10546875 l 1
 709.926819995 18.830078125 577.459451899 -23 430.394124304 -23 c 0
 227.844726562 -23 89 77.3798828125 89 266.530273438 c 0
 89 525.739257812 384.039235327 552.063476562 599.01928466 596.106445312 c 1
 680.782840366 611.848632812 755.812256973 624.674804688 795 648.21484375 c 1
EndSplineSet
EndChar

StartChar: y.alt
Encoding: 65544 -1 334
Width: 1145
Flags: HW
LayerCount: 2
Fore
SplineSet
279.651367188 1020 m 1
 591.734233617 289.88671875 l 1
 890.47265625 1020 l 1
 1139.35644531 1020 l 1
 697.771977816 -40.8154296875 l 1
 617.355843697 -222.1328125 446.324373678 -342.249023438 276.646484375 -434.462890625 c 1
 257.916015625 -445.83203125 l 1
 121.791992188 -280.059570312 l 1
 147.47265625 -266.065429688 l 0
 264.515625 -202.28515625 391.142651285 -108.388671875 449.337571128 5.3486328125 c 1
 464.93074383 35.2431640625 l 1
 24 1020 l 1
 279.651367188 1020 l 1
EndSplineSet
EndChar

StartChar: R.alt
Encoding: 65545 -1 335
Width: 1403
Flags: HW
LayerCount: 2
Fore
SplineSet
195 0 m 1
 195 1449 l 1
 648.859805792 1449 l 0
 976.994937249 1449 1250 1359.8671875 1250 1052.61523438 c 0
 1250 847.396484375 1130.00585938 722.536132812 953.227440231 671.655273438 c 1
 1124.0546875 501.383789062 1204.91503906 252.831054688 1304.84765625 34.1572265625 c 0
 1320.45703125 0 l 1
 1282 0 l 0
 1216.921875 0 1151.58789062 -1 1086 -1 c 0
 1069.39785377 -1 l 1
 896.49065245 365.486328125 l 0
 850.873608306 463.413085938 804.308999679 540.83984375 739.091757819 607.921875 c 1
 696.662697641 613.362304688 654.511457417 615 603.74184535 615 c 0
 422 615 l 1
 422 0 l 1
 195 0 l 1
422 1242 m 1
 422 822 l 1
 703.76298188 822 l 0
 889.689024661 822 1013.96483534 892.798828125 1013.96483534 1041.91992188 c 0
 1013.96483534 1183.09765625 891.426391584 1242 703.76298188 1242 c 0
 422 1242 l 1
EndSplineSet
EndChar

StartChar: six.alt
Encoding: 65546 -1 336
Width: 1216
Flags: HW
LayerCount: 2
Fore
SplineSet
1183 455.3828125 m 0
 1183 160.110351562 964.96484375 -24 640.688900175 -24 c 0
 209.52734375 -24 56 278.02734375 56 681.446289062 c 0
 56 1086.55078125 220.340820312 1473 679.806411801 1473 c 0
 861.056041648 1473 1016.56542969 1435.70605469 1118.46875 1363.38769531 c 0
 1134.67382812 1351.88671875 l 1
 1053.92285156 1155.21679688 l 1
 1028.84082031 1170.74414062 l 0
 952.630859375 1217.92089844 822.915822898 1257 687.412429254 1257 c 0
 432.938262477 1257 341.414040454 1044.04589844 318.299327616 805.833007812 c 1
 401.955597851 885.6640625 521.300421152 926 678.719979618 926 c 0
 992.439453125 926 1183 740.329101562 1183 455.3828125 c 0
628.736161815 715 m 0
 432.229849163 715 330.652904882 612.943359375 330.652904882 440.106445312 c 0
 330.652904882 290.193359375 453.58841135 191 628.736161815 191 c 0
 807.594648685 191 926.819418749 295.70703125 926.819418749 449.657226562 c 0
 926.819418749 617.923828125 822.840417559 715 628.736161815 715 c 0
EndSplineSet
EndChar

StartChar: uni041D
Encoding: 1053 1053 337
Width: 1570
Flags: HW
LayerCount: 2
Fore
SplineSet
1157 0 m 1
 1157 645 l 1
 413 645 l 1
 413 0 l 1
 172 0 l 1
 172 1445 l 1
 413 1445 l 1
 413 845 l 1
 1157 845 l 1
 1157 1445 l 1
 1398 1445 l 1
 1398 0 l 1
 1157 0 l 1
EndSplineSet
EndChar

StartChar: uni041F
Encoding: 1055 1055 338
Width: 1570
Flags: HW
LayerCount: 2
Fore
SplineSet
1157 0 m 1
 1157 1245 l 1
 413 1245 l 1
 413 0 l 1
 172 0 l 1
 172 1445 l 1
 1398 1445 l 1
 1398 0 l 1
 1157 0 l 1
EndSplineSet
EndChar

StartChar: uni0422
Encoding: 1058 1058 339
Width: 1203
Flags: HW
LayerCount: 2
Fore
SplineSet
469.157145493 1237 m 1
 27 1237 l 1
 27 1445 l 1
 1179 1445 l 1
 1179 1237 l 1
 729.424878551 1237 l 1
 745.05078125 -0 l 1
 504.110351562 0 l 1
 469.157145493 1237 l 1
EndSplineSet
EndChar

StartChar: uni0421
Encoding: 1057 1057 340
Width: 1429
Flags: HW
LayerCount: 2
Fore
SplineSet
1217.16894531 1139.65039062 m 0
 1136.57128906 1205.59472656 1012.74025905 1258 856.919942838 1258 c 0
 515.283515888 1258 356.12769346 1036.9375 356.12769346 726.911132812 c 0
 356.12769346 416.682617188 517.227000214 192 856.919942838 192 c 0
 1013.75308863 192 1135.96972656 244.912109375 1217.16894531 311.349609375 c 0
 1243.45996094 332.860351562 l 1
 1326.12792969 128.158203125 l 1
 1311.67480469 116.524414062 l 0
 1200.77734375 27.265625 1045.22704011 -23 839.734511895 -23 c 0
 356.386098661 -23 101 299.319335938 101 727.90234375 c 0
 101 1156.65625 357.965241554 1473 839.734511895 1473 c 0
 1045.10724306 1473 1200.69726562 1423.79882812 1311.67480469 1334.47460938 c 0
 1326.12792969 1322.84179688 l 1
 1243.45996094 1118.13964844 l 1
 1217.16894531 1139.65039062 l 0
EndSplineSet
EndChar

StartChar: uni0420
Encoding: 1056 1056 341
Width: 1325
Flags: HW
LayerCount: 2
Fore
SplineSet
413 782 m 1
 687.976498729 782 l 2
 904.719102836 782 1053 847.060546875 1053 1006.65332031 c 0
 1053 1169.890625 907.53276899 1237 687.976498729 1237 c 0
 413 1237 l 1
 413 782 l 1
172 0 m 1
 172 1445 l 1
 666 1445 l 0
 1023.57943924 1445 1285 1321.97949219 1285 1009.5 c 0
 1285 696.124023438 1022.77768486 574 666 574 c 0
 413 574 l 1
 413 0 l 1
 172 0 l 1
EndSplineSet
EndChar

StartChar: uni041E
Encoding: 1054 1054 342
Width: 1698
Flags: HW
LayerCount: 2
Fore
SplineSet
101 722.09765625 m 0
 101 1166.71386719 364.292709192 1473 849 1473 c 0
 1334.6453404 1473 1597 1165.36523438 1597 722.09765625 c 0
 1597 280.874023438 1331.48497142 -23 849 -23 c 0
 364.962462795 -23 101 281.786132812 101 722.09765625 c 0
356.092912879 729.77734375 m 0
 356.092912879 416.009765625 514.080784367 192 849 192 c 0
 1185.23406328 192 1341.90708712 416.295898438 1341.90708712 729.77734375 c 0
 1341.90708712 1039.77734375 1181.13071278 1258 849 1258 c 0
 515.404509455 1258 356.092912879 1039.60546875 356.092912879 729.77734375 c 0
EndSplineSet
EndChar

StartChar: uni0425
Encoding: 1061 1061 343
Width: 1337
Flags: HW
LayerCount: 2
Fore
SplineSet
264.573242188 0 m 1
 -8 0 l 1
 538.502745598 736.734375 l 1
 28.875 1445 l 1
 312.80859375 1445 l 1
 696.092301581 883.28125 l 1
 1098.95019531 1445 l 1
 1365.12792969 1445 l 1
 842.90512527 737.294921875 l 1
 1372.40722656 0 l 1
 1090.72460938 0 l 1
 680.220581264 591.731445312 l 1
 264.573242188 0 l 1
EndSplineSet
EndChar

StartChar: uni042F
Encoding: 1071 1071 344
Width: 1325
Flags: HW
LayerCount: 2
Fore
SplineSet
353.794596754 -1.0771484375 m 1
 102 0.20703125 l 1
 443.663243279 637.263671875 l 1
 291.19140625 700.219726562 187.626953125 820.6328125 187.626953125 1011.93066406 c 0
 187.626953125 1323.63574219 459.841995618 1445 806.626953125 1445 c 0
 1300.62695312 1445 l 1
 1300.62695312 0 l 1
 1059.62695312 0 l 1
 1059.62695312 574 l 1
 806.626953125 574 l 0
 770.291148553 574 734.248849669 575.825195312 702.321620337 577.8671875 c 1
 353.794596754 -1.0771484375 l 1
1059.62695312 1237 m 1
 785.263931941 1237 l 2
 571.413091674 1237 427.207956668 1170.24609375 427.207956668 1006.65332031 c 0
 427.207956668 846.7109375 574.173442792 782 785.263931941 782 c 0
 1059.62695312 782 l 1
 1059.62695312 1237 l 1
EndSplineSet
EndChar

StartChar: uni0410
Encoding: 1040 1040 345
Width: 1382
Flags: HW
LayerCount: 2
Fore
SplineSet
265.579101562 0 m 1
 17 0 l 1
 579.625214925 1445 l 1
 824.124240636 1445 l 1
 1386.68261719 0 l 1
 1137.02636719 0 l 1
 968.414763628 444 l 1
 433.201818423 444 l 1
 382.03755165 309.689453125 l 0
 345.807351043 215.270507812 308.478606971 111.055664062 271.720868405 16.521484375 c 1
 265.579101562 0 l 1
508.987486998 649 m 1
 892.981774924 649 l 1
 703.650969824 1169.52441406 l 1
 508.987486998 649 l 1
EndSplineSet
EndChar

StartChar: uni0411
Encoding: 1041 1041 346
Width: 1325
Flags: HW
LayerCount: 2
Fore
SplineSet
413 1237 m 1
 413 871 l 1
 687.671163611 871 l 0
 1024.38301213 871 1285 747.923828125 1285 435.5 c 0
 1285 122.1796875 1023.62769454 0 687.671163611 0 c 0
 172 0 l 1
 172 1445 l 1
 1207 1445 l 1
 1207 1237 l 1
 413 1237 l 1
413 208 m 1
 708.35753584 208 l 2
 914.839132936 208 1053 274.952148438 1053 438.346679688 c 0
 1053 598.094726562 912.172196837 663 708.35753584 663 c 0
 413 663 l 1
 413 208 l 1
EndSplineSet
EndChar

StartChar: uni0428
Encoding: 1064 1064 347
Width: 1620
Flags: HW
LayerCount: 2
Fore
SplineSet
413 1445 m 1
 413 200 l 1
 695 200 l 1
 695 1445 l 1
 936 1445 l 1
 936 200 l 1
 1207 200 l 1
 1207 1445 l 1
 1448 1445 l 1
 1448 0 l 1
 172 0 l 1
 172 1445 l 1
 413 1445 l 1
EndSplineSet
EndChar

StartChar: uni0406
Encoding: 1030 1030 348
Width: 608
Flags: W
HStem: 0 21G<185 426> 1425 20G<185 426>
VStem: 185 241<0 1445>
LayerCount: 2
Fore
SplineSet
185 1445 m 1
 426 1445 l 1
 426 0 l 1
 185 0 l 1
 185 1445 l 1
EndSplineSet
EndChar

StartChar: uni0408
Encoding: 1032 1032 349
Width: 725
Flags: HW
LayerCount: 2
Fore
SplineSet
312 1445 m 1
 553 1445 l 1
 553 438.314453125 l 0
 553 111.19140625 459.375 -24 111 -24 c 0
 56 -24 l 1
 56 172.06640625 l 1
 130.411132812 173.506835938 l 1
 284.37109375 177.584960938 312 229.551757812 312 389.001953125 c 0
 312 1445 l 1
EndSplineSet
EndChar

StartChar: uni0409
Encoding: 1033 1033 350
Width: 1857
Flags: HW
LayerCount: 2
Fore
SplineSet
1126.17388759 1445 m 1
 1126.17388759 871 l 1
 1276.04454362 871 l 0
 1597.85737249 871 1857.51953125 747.931640625 1907.95898438 436.135742188 c 0
 1908 435.819335938 l 1
 1908 435.5 l 0
 1908 122.124023438 1645.77768486 0 1289 0 c 0
 904.088867188 0 l 1
 876.028062814 1237 l 1
 563.781132039 1237 l 1
 576.151446972 435.951171875 l 1
 576.151446972 110.2890625 474.083727734 -24 112 -24 c 0
 55 -24 l 1
 55 172.0859375 l 1
 131.420898438 173.506835938 l 1
 285.3828125 177.5859375 314.105971205 229.587890625 314.105971205 389 c 0
 313.48281172 1445 l 1
 1126.17388759 1445 l 1
1145 208 m 1
 1310.97649873 208 l 2
 1530.54481036 208 1676 275.107421875 1676 438.346679688 c 0
 1676 597.9375 1527.70505457 663 1310.97649873 663 c 0
 1145 663 l 1
 1145 208 l 1
EndSplineSet
EndChar

StartChar: uni040A
Encoding: 1034 1034 351
Width: 1807
Flags: HW
LayerCount: 2
Fore
SplineSet
1145 1445 m 1
 1145 871 l 1
 1289 871 l 0
 1598.44238281 871 1858 747.848632812 1858 435.5 c 0
 1858 122.254882812 1597.74804688 0 1289 0 c 0
 904 0 l 1
 904 663 l 1
 554 663 l 1
 554 1 l 1
 313 1 l 1
 313 1445 l 1
 554 1445 l 1
 554 871 l 1
 904 871 l 1
 904 1445 l 1
 1145 1445 l 1
1145 208 m 1
 1308 208 l 2
 1497.37011719 208 1626 274.728515625 1626 438.346679688 c 0
 1626 598.314453125 1494.92871094 663 1308 663 c 0
 1145 663 l 1
 1145 208 l 1
EndSplineSet
EndChar

StartChar: uni042A
Encoding: 1066 1066 352
Width: 1857
Flags: HW
LayerCount: 2
Fore
SplineSet
1117.96382228 1445 m 1
 1117.96382228 871 l 1
 1270.40010143 871 l 0
 1597.53475262 871 1857.51757812 747.9453125 1907.95898438 436.135742188 c 0
 1908 435.819335938 l 1
 1908 435.5 l 0
 1908 122.124023438 1645.77768486 0 1289 0 c 0
 904.126953125 0 l 1
 863.827048263 1237 l 1
 438 1237 l 1
 438 1445 l 1
 1117.96382228 1445 l 1
1145 208 m 1
 1310.97649873 208 l 2
 1530.54481036 208 1676 275.107421875 1676 438.346679688 c 0
 1676 597.9375 1527.70505457 663 1310.97649873 663 c 0
 1145 663 l 1
 1145 208 l 1
EndSplineSet
EndChar

StartChar: uni042C
Encoding: 1068 1068 353
Width: 1807
Flags: HW
LayerCount: 2
Fore
SplineSet
1095 208 m 1
 1275.87983191 208 l 2
 1485.87629785 208 1626 274.99609375 1626 438.346679688 c 0
 1626 598.051757812 1483.16469367 663 1275.87983191 663 c 0
 1095 663 l 1
 1095 208 l 1
1095 1445 m 1
 1095 871 l 1
 1254.84622802 871 l 0
 1597.16559192 871 1858 747.938476562 1858 435.5 c 0
 1858 122.1640625 1596.39781857 0 1254.84622802 0 c 0
 854 0 l 1
 854 1445 l 1
 1095 1445 l 1
EndSplineSet
EndChar

StartChar: uni0413
Encoding: 1043 1043 355
Width: 1570
Flags: HW
LayerCount: 2
Fore
SplineSet
1130 1445 m 1
 1130 1245 l 1
 419 1245 l 1
 419 0 l 1
 178 0 l 1
 178 1445 l 1
 1130 1445 l 1
EndSplineSet
EndChar

StartChar: uni0415
Encoding: 1045 1045 358
Width: 1258
Flags: HW
LayerCount: 2
Fore
SplineSet
413 859 m 1
 1080 859 l 1
 1080 651 l 1
 413 651 l 1
 413 208 l 1
 1156.31347656 208 l 1
 1137.8828125 0 l 1
 172 0 l 1
 172 1445 l 1
 1126.31347656 1445 l 1
 1107.8828125 1237 l 1
 413 1237 l 1
 413 859 l 1
EndSplineSet
EndChar

StartChar: uni0405
Encoding: 1029 1029 359
Width: 1294
Flags: HW
LayerCount: 2
Fore
SplineSet
586.941810474 887.528320312 m 0
 784.95119623 830.751953125 l 1
 998.419921875 767.779296875 1205.04003906 672.9609375 1205.04003906 405.419921875 c 0
 1205.04003906 113.51953125 969.934570312 -23 653.054542505 -23 c 0
 431.95690952 -23 267.2265625 29.93359375 141.177734375 105.563476562 c 0
 123 116.46875 l 1
 206.571289062 328.009765625 l 1
 232.620117188 309.307617188 l 0
 329.211914062 239.9609375 476.637366618 195 660.713538553 195 c 0
 842.571482449 195 962.040039062 257.107421875 962.040039062 403.680664062 c 0
 962.040039062 541.784179688 837.06117751 586.4921875 694.312789307 625.952148438 c 0
 500.696150701 679.833984375 l 0
 313.587890625 732.338867188 136.040039062 830.576171875 136.040039062 1062.88964844 c 0
 136.040039062 1339.12207031 369.129300697 1473 670.559967713 1473 c 0
 864.617669127 1473 1028.46777344 1431.68359375 1138.15722656 1356.6328125 c 0
 1155.06933594 1345.0625 l 1
 1072.33789062 1150.70996094 l 1
 1047.33984375 1167.08789062 l 0
 965.193359375 1220.90917969 821.784907573 1257 669.466251157 1257 c 0
 495.089487446 1257 374.130992668 1204.13574219 374.130992668 1069.47949219 c 0
 374.130992668 956.55859375 470.868781657 921.561523438 586.941810474 887.528320312 c 0
EndSplineSet
EndChar

StartChar: uni041B
Encoding: 1051 1051 361
Width: 1570
Flags: HW
LayerCount: 2
Fore
SplineSet
1157 1245 m 1
 427.052863788 1245 l 1
 427.052863788 436.03125 l 0
 427.052863788 110.415039062 328.407484671 -24 -28 -24 c 0
 -83 -24 l 1
 -83 172.067382812 l 1
 -8.4033203125 173.509765625 l 0
 146.629882812 175.563476562 172.495854585 229.615234375 172.495854585 389.001953125 c 0
 172.495854585 1445 l 1
 1398 1445 l 1
 1398 0 l 1
 1157 0 l 1
 1157 1245 l 1
EndSplineSet
EndChar

StartChar: uni041C
Encoding: 1052 1052 362
Width: 1860
Flags: HW
LayerCount: 2
Fore
SplineSet
820.569259378 161 m 1
 402 1025.08300781 l 1
 402 0 l 1
 172 0 l 1
 172 1445 l 1
 433.907226562 1445 l 1
 936.011815485 416.275390625 l 1
 1433.0234375 1445 l 1
 1688 1445 l 1
 1688 0 l 1
 1456 0 l 1
 1456 1016.72851562 l 1
 1046.52613943 161 l 1
 820.569259378 161 l 1
EndSplineSet
EndChar

StartChar: uni0412
Encoding: 1042 1042 363
Width: 1325
Flags: HW
LayerCount: 2
Fore
SplineSet
172 0 m 1
 172 1445 l 1
 660 1445 l 0
 993.305373136 1445 1269 1344.453125 1269 1050.58496094 c 0
 1269 900.803710938 1188.05761719 805.856445312 1084 746.350585938 c 1
 1197.671875 682.997070312 1285 583.336914062 1285 423.407226562 c 0
 1285 115.755859375 1017.002497 0 666.922777826 0 c 0
 172 0 l 1
413 643 m 1
 413 208 l 1
 688.84457327 208 l 0
 904.510867868 208 1053 270.384765625 1053 428.33984375 c 0
 1053 583.463867188 901.692408626 643 688.84457327 643 c 0
 413 643 l 1
413 851 m 1
 688.84457327 851 l 2
 896.978259715 851 1036.93933485 907.224609375 1036.93933485 1046.35058594 c 0
 1036.93933485 1181.8046875 887.854877057 1237 681.921795445 1237 c 0
 413 1237 l 1
 413 851 l 1
EndSplineSet
EndChar

StartChar: uni042B
Encoding: 1067 1067 364
Width: 1807
Flags: HW
LayerCount: 2
Fore
SplineSet
1095 208 m 1
 1215.52162474 208 l 2
 1417.76397205 208 1554.99564761 274.920898438 1554.99564761 438.346679688 c 0
 1554.99564761 598.125 1415.15318114 663 1215.52162474 663 c 0
 1095 663 l 1
 1095 208 l 1
1095 1445 m 1
 1095 871 l 1
 1195.25437129 871 l 0
 1525.07736819 871 1801.92504389 748.04296875 1801.92504389 435.5 c 0
 1801.92504389 122.060546875 1524.33665516 0 1195.25437129 0 c 0
 854 0 l 1
 854 1445 l 1
 1095 1445 l 1
1999 5 m 1
 2140 5 l 1
 2140 1400 l 1
 1999 1400 l 1
 1999 5 l 1
EndSplineSet
EndChar

StartChar: uni042E
Encoding: 1070 1070 365
Width: 1570
Flags: HW
LayerCount: 2
Fore
SplineSet
662.756412358 845 m 1
 701.304898997 1198.03125 919.679419323 1473 1334.42296094 1473 c 0
 1789.38183594 1473 2003 1140.24316406 2003 722.09765625 c 0
 2003 305.120117188 1786.95800781 -23 1334.42296094 -23 c 0
 903.059688943 -23 685.546065141 271.564453125 658.801207757 645 c 1
 413 645 l 1
 413 0 l 1
 172 0 l 1
 172 1445 l 1
 413 1445 l 1
 413 845 l 1
 662.756412358 845 l 1
920.891561629 729.77734375 m 0
 920.891561629 437.206054688 1038.84225646 192 1334.42296094 192 c 0
 1630.15616709 192 1747.93074709 437.944335938 1747.93074709 729.77734375 c 0
 1747.93074709 1018.859375 1627.33439425 1258 1334.42296094 1258 c 0
 1041.23997627 1258 920.891561629 1018.24023438 920.891561629 729.77734375 c 0
EndSplineSet
EndChar

StartChar: uni0440
Encoding: 1088 1088 370
Width: 1299
Flags: HW
LayerCount: 2
Fore
SplineSet
388.110479796 930.666015625 m 1
 469.995629009 1001.40234375 575.935956281 1045 720.995126612 1045 c 0
 1068.34179688 1045 1224.38378906 800.346679688 1224.38378906 499.541015625 c 0
 1224.38378906 196.047851562 1058.20996094 -23 710.073596994 -23 c 0
 575.33499899 -23 465.254522973 17.400390625 389.705748242 80.8984375 c 1
 389.705748242 -427 l 1
 156.383789062 -427 l 1
 156.383789062 742.50390625 l 0
 156.383789062 827.21484375 150.802734375 905.063476562 149.38671875 995.3359375 c 0
 149 1020 l 1
 385.787109375 1020 l 1
 388.110479796 930.666015625 l 1
386.429786016 512 m 0
 386.429786016 314.479492188 480.78703399 180 701.336373299 180 c 0
 907.151829131 180 986.383789062 324.709960938 986.383789062 512 c 0
 986.383789062 698.903320312 905.19598631 844 701.336373299 844 c 0
 479.802656014 844 386.429786016 709.444335938 386.429786016 512 c 0
EndSplineSet
EndChar

StartChar: uni0442
Encoding: 1090 1090 371
Width: 926
Flags: HW
LayerCount: 2
Fore
SplineSet
11 822 m 1
 11 1020 l 1
 915 1020 l 1
 915 822 l 1
 595.977765976 822 l 1
 605.043945312 0 l 1
 372.192382812 0 l 1
 331.405375733 822 l 1
 11 822 l 1
EndSplineSet
EndChar

StartChar: uni0432
Encoding: 1074 1074 376
Width: 1160
Flags: HW
LayerCount: 2
Fore
SplineSet
149 0 m 1
 149 1020 l 1
 616 1020 l 0
 862.693359375 1020 1055 936.01953125 1055 738.701171875 c 0
 1055 644.470703125 1009.11425781 576.897460938 946.193359375 530.875 c 1
 1022.1328125 481.096679688 1085 407.609375 1085 303.215820312 c 0
 1085 94.66015625 874.934570312 0 616 0 c 0
 149 0 l 1
382 198 m 1
 627.662048008 198 l 2
 763.586708895 198 860 241.668945312 860 316.591796875 c 0
 860 391.397460938 761.712725025 437 627.662048008 437 c 0
 382 437 l 1
 382 198 l 1
382 822 m 1
 382 623 l 1
 627.662048008 623 l 0
 749.194962615 623 829.566685425 659.696289062 829.566685425 726.068359375 c 0
 829.566685425 788.529296875 747.365962538 822 627.662048008 822 c 0
 382 822 l 1
EndSplineSet
EndChar

StartChar: uni044C
Encoding: 1100 1100 377
Width: 1168
Flags: HW
LayerCount: 2
Fore
SplineSet
848 325.959960938 m 0
 848 398.9296875 772.775849237 443 664.904454317 443 c 2
 390 443 l 1
 390 198 l 1
 664.904454317 198 l 0
 775.2514125 198 848 247.723632812 848 325.959960938 c 0
390 641 m 1
 643.450905265 641 l 2
 876.477539062 641 1073 536.227539062 1073 325.310546875 c 0
 1073 111.438476562 879.484375 0 643.450905265 0 c 0
 149 0 l 1
 149 1020 l 1
 390 1020 l 1
 390 641 l 1
EndSplineSet
EndChar

StartChar: uni044A
Encoding: 1098 1098 378
Width: 1218
Flags: HW
LayerCount: 2
Fore
SplineSet
-78.7900390625 822 m 1
 -79.3798828125 826.32421875 l 2
 -79.3818359375 826.3359375 -95.7109375 945.978515625 -100.705078125 985.818359375 c 0
 -101.48046875 992.004882812 -105.665039062 998.577148438 -100.338867188 1002.97265625 c 0
 -91.1318359375 1010.5703125 -87.1123046875 967.875976562 -79.595703125 915.981445312 c 1
 -79.41796875 1020 l 1
 429.641601562 1020 l 1
 429.641601562 641 l 1
 673.072464768 641 l 0
 900.387695312 641 1095.88378906 536.21875 1146.484375 326.245117188 c 0
 1146.57421875 325.782226562 l 1
 1146.57421875 325.310546875 l 0
 1146.57421875 111.336914062 952.875 0 687.57421875 0 c 0
 222.797851562 0 l 1
 174.58984375 822 l 1
 -78.7900390625 822 l 1
921.57421875 325.959960938 m 0
 921.57421875 398.592773438 838.655339746 443 712.548116989 443 c 2
 463.57421875 443 l 1
 463.57421875 198 l 1
 712.548116989 198 l 0
 841.607247551 198 921.57421875 248.077148438 921.57421875 325.959960938 c 0
EndSplineSet
EndChar

StartChar: uni043F
Encoding: 1087 1087 379
Width: 1251
Flags: HW
LayerCount: 2
Fore
SplineSet
152 0 m 1
 152 1020 l 1
 1119 1020 l 1
 1119 0 l 1
 886 0 l 1
 886 819 l 1
 385 819 l 1
 385 0 l 1
 152 0 l 1
EndSplineSet
EndChar

StartChar: uni043B
Encoding: 1083 1083 380
Width: 1268
Flags: HW
LayerCount: 2
Fore
SplineSet
-11 -26.3193359375 m 1
 -11 169.0625 l 1
 10.921875 171.677734375 l 0
 159.795898438 189.430664062 182 221.608398438 182 384.427734375 c 0
 182 1020 l 1
 1119 1020 l 1
 1119 0 l 1
 886 0 l 1
 886 819 l 1
 429.826656924 819 l 1
 429.826656924 428.432617188 l 0
 429.826656924 298.422851562 430.570732661 189.092773438 363.87277576 107.629882812 c 0
 288.939388609 16.107421875 162.2890625 -5.67578125 17.1005859375 -22.806640625 c 0
 -11 -26.3193359375 l 1
EndSplineSet
EndChar

StartChar: uni044F
Encoding: 1103 1103 381
Width: 1184
Flags: HW
LayerCount: 2
Fore
SplineSet
110 0 m 1
 355.607421875 417.065429688 l 1
 234.90234375 458.603515625 128.818359375 548.359375 128.818359375 697.725585938 c 0
 128.818359375 909.637695312 322.368164062 1020 558.912469985 1020 c 0
 1065.81835938 1020 l 1
 1065.81835938 0 l 1
 832.818359375 0 l 1
 832.818359375 383 l 1
 612.745144137 383 l 1
 358.284179688 0 l 1
 110 0 l 1
832.818359375 822 m 1
 537.70680769 822 l 2
 428.628879163 822 353.818359375 772.107421875 353.818359375 693.71875 c 0
 353.818359375 619.333007812 432.445639004 570 537.70680769 570 c 0
 832.818359375 570 l 1
 832.818359375 822 l 1
EndSplineSet
EndChar

StartChar: uni044E
Encoding: 1102 1102 382
Width: 1568
Flags: HW
LayerCount: 2
Fore
SplineSet
382 602 m 1
 498.779363468 602 l 1
 532.71552553 847.952148438 700.199065924 1045 1007.37226301 1045 c 0
 1339.47070312 1045 1493 803.9609375 1493 510.044921875 c 0
 1493 219.830078125 1329.15429688 -23 1003.12690832 -23 c 0
 694.079511124 -23 531.334327983 174.75390625 498.745772111 416 c 1
 382 416 l 1
 382 0 l 1
 149 0 l 1
 149 1020 l 1
 382 1020 l 1
 382 602 l 1
1003.12690832 842 m 0
 826.442300142 842 746.036448057 681.368164062 746.036448057 506.276367188 c 0
 746.036448057 329.546875 826.747586295 178 1007.37226301 178 c 0
 1185.3669341 178 1255 332.37890625 1255 508.138671875 c 0
 1255 689.747070312 1186.68490086 842 1003.12690832 842 c 0
EndSplineSet
EndChar

StartChar: uni0437
Encoding: 1079 1079 383
Width: 1160
Flags: HW
LayerCount: 2
Fore
SplineSet
178.333007812 921.745117188 m 1
 192.436523438 934.524414062 l 2
 278.663085938 1012.66894531 421.517578125 1045 591.35684761 1045 c 0
 827.93795001 1045 1052.22363281 972.592773438 1052.22363281 761.19921875 c 0
 1052.22363281 653.87109375 1012.79199219 578.924804688 946.431640625 530.926757812 c 1
 1030.32226562 481.102539062 1082.22363281 405.984375 1082.22363281 293.270507812 c 0
 1082.22363281 59.6689453125 848.012695312 -23 586.790139471 -23 c 0
 419.8125 -23 277.272460938 8.8486328125 192.466796875 85.447265625 c 0
 178 98.513671875 l 1
 187.145507812 115.728515625 l 0
 209.4140625 157.645507812 229.150390625 198.754882812 250.862304688 242.180664062 c 0
 264.103515625 268.661132812 l 1
 287.9921875 251.171875 l 0
 351.389648438 204.754882812 460.047225004 175 589.073993947 175 c 0
 753.113192768 175 857.223632812 214.043945312 857.223632812 306.153320312 c 0
 857.223632812 383.171875 764.288266859 430 649.571117239 430 c 0
 417.223632812 430 l 1
 417.223632812 618 l 1
 649.571117239 618 l 0
 756.190691678 618 826.994183678 659.38671875 826.994183678 729.787109375 c 0
 826.994183678 813.55859375 730.864126663 847 577.658724818 847 c 0
 447.129736082 847 346.131835938 819.575195312 289.685546875 770.185546875 c 0
 265.413085938 748.946289062 l 1
 178.333007812 921.745117188 l 1
EndSplineSet
EndChar

StartChar: uni043D
Encoding: 1085 1085 384
Width: 1251
Flags: HW
LayerCount: 2
Fore
SplineSet
152 0 m 1
 152 1020 l 1
 385 1020 l 1
 385 644 l 1
 886 644 l 1
 886 1020 l 1
 1119 1020 l 1
 1119 0 l 1
 886 0 l 1
 886 445 l 1
 385 445 l 1
 385 0 l 1
 152 0 l 1
EndSplineSet
EndChar

StartChar: uni0448
Encoding: 1096 1096 385
Width: 1301
Flags: HW
LayerCount: 2
Fore
SplineSet
385 1020 m 1
 385 201 l 1
 555 201 l 1
 555 1020 l 1
 771 1020 l 1
 771 201 l 1
 936 201 l 1
 936 1020 l 1
 1169 1020 l 1
 1169 0 l 1
 152 0 l 1
 152 1020 l 1
 385 1020 l 1
EndSplineSet
EndChar

StartChar: uni043C
Encoding: 1084 1084 386
Width: 1294
Flags: HW
LayerCount: 2
Fore
SplineSet
930.987622525 661.0703125 m 1
 696.792124308 314 l 1
 594.95931469 314 l 1
 363.008514453 660.482421875 l 1
 363.008514453 0 l 1
 149 0 l 1
 149 1020 l 1
 349.057617188 1020 l 1
 645.987457783 566.014648438 l 1
 944.994140625 1020 l 1
 1145 1020 l 1
 1145 0 l 1
 930.987622525 0 l 1
 930.987622525 661.0703125 l 1
EndSplineSet
EndChar

StartChar: uni0424
Encoding: 1060 1060 387
Width: 1439
Flags: HW
LayerCount: 2
Fore
SplineSet
603 0 m 1
 603 115.806640625 l 1
 269.525390625 130.259765625 75 309.9453125 75 601 c 0
 75 891.896484375 275.823242188 1067.95214844 569.673582992 1082.171875 c 1
 569.673582992 1198 l 1
 818.81193432 1198 l 1
 818.81193432 1082.16894531 l 1
 1117.46582031 1067.69628906 1313.86328125 889.966796875 1363.95214844 601.688476562 c 0
 1364 601.345703125 l 1
 1364 601 l 0
 1364 308.258789062 1164.84667969 130.12890625 836 115.8125 c 1
 836 0 l 1
 603 0 l 1
1125 573.400390625 m 1
 1074.93646219 734.807617188 975.638392929 837.666015625 818.94546594 852.390625 c 1
 835.874023438 295.19921875 l 1
 1020.42191862 308.643554688 1124.60449219 417.0859375 1125 573.400390625 c 1
314 574 m 0
 314 415.321289062 423.238314539 308.377929688 602.734742323 295.237304688 c 1
 569.924820263 852.434570312 l 1
 408.672035726 837.3359375 314 733.0859375 314 574 c 0
EndSplineSet
EndChar

StartChar: uni0444
Encoding: 1092 1092 388
Width: 1470
Flags: HW
LayerCount: 2
Fore
SplineSet
610.66921229 34.5439453125 m 1
 575.605356117 24.9091796875 539.500615852 19.8291015625 499.656403104 19.8291015625 c 0
 222.870117188 19.8291015625 75 268.370117188 75 514.760742188 c 0
 75 764.954101562 223.018554688 1015.45507812 501.785618998 1015.45507812 c 0
 540.552373378 1015.45507812 580.052590244 1007.85742188 610.66921229 998.6640625 c 1
 610.66921229 1219 l 1
 858.265191269 1219 l 1
 858.265191269 998.690429688 l 1
 892.886202167 1009.12988281 928.316789583 1015.45507812 968.214381002 1015.45507812 c 0
 1247.91308594 1015.45507812 1395 763.376953125 1395 514.760742188 c 0
 1395 266.81640625 1246.1875 19.8291015625 970.343596896 19.8291015625 c 0
 930.086193691 19.8291015625 891.529000021 25.5244140625 858.265191269 34.544921875 c 1
 858.265191269 -180 l 1
 610.66921229 -180 l 1
 610.66921229 34.5439453125 l 1
858.265191269 202.172851562 m 1
 897.621088023 186.319335938 933.085284231 179 966.084176614 179 c 0
 1100.70024352 179 1156 337.68359375 1156 496 c 0
 1156 655.41015625 1101.81823013 821 968.214381002 821 c 0
 935.480404989 821 896.581192424 812.055664062 858.265191269 796.057617188 c 1
 858.265191269 202.172851562 l 1
610.66921229 797.0390625 m 1
 574.695941715 812.153320312 543.615716022 821 501.785618998 821 c 0
 368.04140373 821 314 655.038085938 314 496 c 0
 314 337.322265625 369.305687448 179 503.915823386 179 c 0
 535.553559647 179 572.235580359 186.76171875 610.66921229 201.466796875 c 1
 610.66921229 797.0390625 l 1
EndSplineSet
EndChar

StartChar: uni0443
Encoding: 1091 1091 389
Width: 1140
Flags: HW
LayerCount: 2
Fore
SplineSet
279.94140625 1020 m 1
 591.785995031 262.2109375 l 1
 890.295898438 1020 l 1
 1139.38476562 1020 l 1
 725.995617112 23.5283203125 l 1
 669.217716198 -243.706054688 493.233824011 -385 143.750976562 -385 c 0
 118.750976562 -385 l 1
 118.750976562 -178 l 1
 143.750976562 -178 l 0
 346.905731997 -178 455.091322135 -121.061523438 468.260205078 37.5244140625 c 1
 24 1020 l 1
 279.94140625 1020 l 1
EndSplineSet
EndChar

StartChar: uni0445
Encoding: 1093 1093 390
Width: 1149
Flags: HW
LayerCount: 2
Fore
SplineSet
311.407226562 0 m 1
 39 0 l 1
 444.133373856 514.045898438 l 1
 57.958984375 1020 l 1
 335.8515625 1020 l 1
 601.476759728 659.481445312 l 1
 884.880859375 1020 l 1
 1146.21386719 1020 l 1
 762.673534208 517.635742188 l 1
 1158.26464844 0 l 1
 883.569335938 0 l 1
 602.709416794 373.76953125 l 1
 311.407226562 0 l 1
EndSplineSet
EndChar

StartChar: uni0447
Encoding: 1095 1095 391
Width: 1134
Flags: HW
LayerCount: 2
Fore
SplineSet
308 1020 m 1
 308 860.301757812 l 2
 308 675.0390625 320.938872817 551 503.24202077 551 c 0
 637.337336301 551 743.304927851 653.057617188 769 745.354492188 c 1
 769 1020 l 1
 1002 1020 l 1
 1002 0 l 1
 769 0 l 1
 769 468.303710938 l 1
 699.036054861 395.827148438 605.536178284 350 467.425040708 350 c 0
 190.084960938 350 75 515.778320312 75 764.497070312 c 0
 75 1020 l 1
 308 1020 l 1
EndSplineSet
EndChar

StartChar: uni0438
Encoding: 1080 1080 392
Width: 1251
Flags: W
HStem: 0 21G<152 372 894.901 1119> 1000 20G<152 380 891.826 1119>
VStem: 152 228<0 137.069 397.555 1020> 894.901 224.099<0 725.976>
LayerCount: 2
Fore
SplineSet
152 0 m 1
 152 1020 l 1
 380 1020 l 1
 380 397.5546875 l 1
 908.817382812 1020 l 1
 1119 1020 l 1
 1119 0 l 1
 894.900900147 0 l 1
 894.900900147 725.975585938 l 1
 372 137.069335938 l 1
 372 0 l 1
 152 0 l 1
EndSplineSet
EndChar

StartChar: uni0433
Encoding: 1075 1075 394
Width: 876
Flags: W
HStem: 0 21G<191 423> 822 198<423 733>
VStem: 191 232<0 822>
LayerCount: 2
Fore
SplineSet
191 0 m 1
 191 1020 l 1
 733 1020 l 1
 733 822 l 1
 423 822 l 1
 423 0 l 1
 191 0 l 1
EndSplineSet
EndChar

StartChar: uni0414
Encoding: 1044 1044 396
Width: 1570
Flags: HW
LayerCount: 2
Fore
SplineSet
727.78602303 1445 m 1
 1337 1445 l 1
 1337 200 l 1
 1424 200 l 1
 1424 -182 l 1
 1183 -182 l 1
 1183 0 l 1
 333 0 l 1
 333 -182 l 1
 92 -182 l 1
 92 200 l 1
 146 200 l 0
 371.132415328 200 436.715454278 356.403320312 486.65336368 545.931640625 c 0
 727.78602303 1445 l 1
1092.32643641 1241 m 1
 919.251573074 1241 l 1
 747.354788985 580.458984375 l 1
 710.832355799 457.583007812 680.549196323 293.21875 585.017050569 200 c 1
 1092.32643641 200 l 1
 1092.32643641 1241 l 1
EndSplineSet
EndChar

StartChar: uni043A
Encoding: 1082 1082 397
Width: 1186
Flags: HW
LayerCount: 2
Fore
SplineSet
1077 1015.93164062 m 1
 1077 811.044921875 l 1
 1047.52734375 816.403320312 l 0
 1022.28808594 820.9921875 1001.38476562 824 976 824 c 0
 926.142578125 824 898.77734375 793.09765625 864.712890625 753.845703125 c 1
 807.501169449 693.77734375 752.435693491 629.762695312 677.173319574 567.584960938 c 0
 593.545242558 498.01953125 l 1
 1162.11230469 0 l 1
 849.927734375 0 l 1
 393 399.23828125 l 1
 393 0 l 1
 160 0 l 1
 160 1020 l 1
 393 1020 l 1
 393 606.163085938 l 1
 527.961484925 730.994140625 l 1
 528.500627982 731.442382812 l 0
 604.749434011 794.8125 657.747196504 866.731445312 727.153877775 938.056640625 c 0
 780.555997561 992.934570312 848.333268705 1030 950 1030 c 0
 982.475585938 1030 1017.8984375 1026.48535156 1056.39453125 1019.61035156 c 0
 1077 1015.93164062 l 1
EndSplineSet
EndChar

StartChar: uni0434
Encoding: 1076 1076 398
Width: 1158
Flags: HW
LayerCount: 2
Fore
SplineSet
342.258940729 1021 m 1
 964 1021 l 1
 964 50 l 1
 1053 50 l 1
 1053 -323 l 1
 817 -323 l 1
 817 -141 l 1
 117 -141 l 1
 117 -323 l 1
 -104 -323 l 1
 -104 50 l 1
 -50 50 l 0
 136.75 50 181.472729729 215.297851562 217.122690504 390.716796875 c 0
 342.258940729 1021 l 1
725.394146453 817 m 1
 540.318134051 817 l 1
 472.241451994 407.876953125 l 1
 453.088409686 297.553710938 428.365339856 138.99609375 356.22069359 50 c 1
 725.394146453 50 l 1
 725.394146453 817 l 1
EndSplineSet
EndChar
